<svg width="8" height="14" viewBox="0 0 8 14" fill="none" xmlns="http://www.w3.org/2000/svg">
<g filter="url(#filter0_i)">
<path fill-rule="evenodd" clip-rule="evenodd" d="M7.6719 13.6445C7.22393 14.1076 6.48534 14.1199 6.02221 13.6719L1.02789 8.84103C0.10129 7.94475 0.077098 6.46688 0.973875 5.54076L5.9952 0.355097C6.44342 -0.107791 7.18202 -0.119682 7.6449 0.328536C8.10779 0.776754 8.11968 1.51535 7.67146 1.97824L2.65014 7.1639L7.64445 11.9948C8.10758 12.4427 8.11987 13.1813 7.6719 13.6445Z" fill="black"/>
<path fill-rule="evenodd" clip-rule="evenodd" d="M7.6719 13.6445C7.22393 14.1076 6.48534 14.1199 6.02221 13.6719L1.02789 8.84103C0.10129 7.94475 0.077098 6.46688 0.973875 5.54076L5.9952 0.355097C6.44342 -0.107791 7.18202 -0.119682 7.6449 0.328536C8.10779 0.776754 8.11968 1.51535 7.67146 1.97824L2.65014 7.1639L7.64445 11.9948C8.10758 12.4427 8.11987 13.1813 7.6719 13.6445Z" fill="url(#paint0_linear)"/>
</g>
<defs>
<filter id="filter0_i" x="0.316772" y="0" width="7.6832" height="15" filterUnits="userSpaceOnUse" color-interpolation-filters="sRGB">
<feFlood flood-opacity="0" result="BackgroundImageFix"/>
<feBlend mode="normal" in="SourceGraphic" in2="BackgroundImageFix" result="shape"/>
<feColorMatrix in="SourceAlpha" type="matrix" values="0 0 0 0 0 0 0 0 0 0 0 0 0 0 0 0 0 0 127 0" result="hardAlpha"/>
<feOffset dy="1"/>
<feGaussianBlur stdDeviation="1"/>
<feComposite in2="hardAlpha" operator="arithmetic" k2="-1" k3="1"/>
<feColorMatrix type="matrix" values="0 0 0 0 1 0 0 0 0 1 0 0 0 0 1 0 0 0 0.6 0"/>
<feBlend mode="normal" in2="shape" result="effect1_innerShadow"/>
</filter>
<linearGradient id="paint0_linear" x1="8" y1="14" x2="0.316802" y2="14" gradientUnits="userSpaceOnUse">
<stop stop-color="#FF699E"/>
<stop offset="1" stop-color="#C036EE"/>
</linearGradient>
</defs>
</svg>
