<svg width="36" height="30" viewBox="0 0 36 30" fill="none" xmlns="http://www.w3.org/2000/svg">
<path d="M17.671 0L17.5934 0.000447688C15.139 0.0287815 12.8929 1.40016 11.7411 3.57978L10.3402 6.23051L7.72037 3.74491C6.87068 2.93876 5.74566 2.48957 4.57627 2.48957C2.04887 2.48957 0 4.54541 0 7.08141V22.883C0 24.0751 0.462061 25.2205 1.28848 26.077L1.34156 26.1311C3.10434 27.8997 5.96182 27.9283 7.75946 26.1819L10.3361 23.6787L11.7287 26.3691C12.8833 28.6 15.18 30 17.6852 30H29.2881C32.995 30 36 26.9848 36 23.2653V6.73469C36 3.01523 32.995 0 29.2881 0H17.671ZM29.2881 4.28571C30.6361 4.28571 31.7288 5.38216 31.7288 6.73469V23.2653C31.7288 24.6178 30.6361 25.7143 29.2881 25.7143H17.6852C16.7742 25.7143 15.9391 25.2052 15.5192 24.394L11.8619 17.3274C11.7065 17.0273 11.3382 16.9103 11.0391 17.0662C10.9867 17.0935 10.9384 17.1284 10.8959 17.1697L4.78848 23.1029C4.66743 23.2205 4.47429 23.2174 4.35709 23.0959C4.30199 23.0388 4.27119 22.9624 4.27119 22.883V7.08141C4.27119 6.91234 4.40778 6.77529 4.57627 6.77529C4.65423 6.77529 4.72923 6.80523 4.78588 6.85898L10.9017 12.6614C11.1466 12.8937 11.5328 12.8829 11.7643 12.6372C11.8021 12.5971 11.8343 12.5521 11.86 12.5034L15.5147 5.58745C15.9379 4.78652 16.7675 4.28571 17.671 4.28571H29.2881Z" fill="url(#paint0_radial)"/>
<defs>
<radialGradient id="paint0_radial" cx="0" cy="0" r="1" gradientUnits="userSpaceOnUse" gradientTransform="translate(2.5 5) rotate(37.3332) scale(37.1012 31.8612)">
<stop stop-color="#FF699E"/>
<stop offset="0.579735" stop-color="#C036EE"/>
<stop offset="1" stop-color="#6060F0"/>
</radialGradient>
</defs>
</svg>
