<svg width="375" height="216" viewBox="0 0 375 216" fill="none" xmlns="http://www.w3.org/2000/svg">
<path opacity="0.8" d="M325 157C325 143.193 336.193 132 350 132H375L375 157C375 170.807 363.807 182 350 182C336.193 182 325 170.807 325 157Z" fill="#FF699E"/>
<path opacity="0.8" d="M268.4 215C243.547 215 223.4 194.853 223.4 170V125L268.4 125C293.253 125 313.4 145.147 313.4 170C313.4 194.853 293.253 215 268.4 215Z" fill="#9636FC"/>
<mask id="mask0" mask-type="alpha" maskUnits="userSpaceOnUse" x="223" y="125" width="91" height="90">
<path d="M268.4 215C243.547 215 223.4 194.853 223.4 170V125L268.4 125C293.253 125 313.4 145.147 313.4 170C313.4 194.853 293.253 215 268.4 215Z" fill="#FF699E"/>
</mask>
<g mask="url(#mask0)">
<ellipse cx="255.122" cy="199.803" rx="5.12057" ry="5.01351" transform="rotate(-47.1672 255.122 199.803)" fill="#C50675"/>
<ellipse cx="295.62" cy="193.347" rx="5.12057" ry="5.01351" transform="rotate(-47.1672 295.62 193.347)" fill="#C50675"/>
<ellipse rx="4.23939" ry="3.49318" transform="matrix(-0.874172 -0.485616 -0.485616 0.874172 300.092 187.996)" fill="#C50675"/>
<ellipse cx="249.242" cy="196.102" rx="4.23939" ry="3.49318" transform="rotate(-47.1672 249.242 196.102)" fill="#C50675"/>
<circle cx="273.792" cy="189.641" r="23.7365" transform="rotate(-9.05716 273.792 189.641)" fill="#C50675"/>
<circle cx="257.278" cy="175.348" r="5.01351" transform="rotate(-9.05716 257.278 175.348)" fill="#C50675"/>
<circle r="5.01351" transform="matrix(-0.987532 0.15742 0.15742 0.987532 286.003 170.769)" fill="#C50675"/>
<ellipse cx="252.604" cy="180.735" rx="3.36109" ry="5.01351" transform="rotate(-47.1672 252.604 180.735)" fill="#C50675"/>
<ellipse rx="3.36109" ry="5.01351" transform="matrix(-0.874172 -0.485616 -0.485616 0.874172 292.12 174.436)" fill="#C50675"/>
<ellipse cx="250.2" cy="185.353" rx="5.12057" ry="5.01351" transform="rotate(-47.1672 250.2 185.353)" fill="#C50675"/>
<ellipse rx="5.12057" ry="5.01351" transform="matrix(-0.874172 -0.485616 -0.485616 0.874172 295.84 178.078)" fill="#C50675"/>
<ellipse cx="250.074" cy="191.637" rx="1.90252" ry="5.01351" transform="rotate(-81.6502 250.074 191.637)" fill="#C50675"/>
<ellipse rx="1.90252" ry="5.01351" transform="matrix(-0.445637 -0.895214 -0.895214 0.445637 297.914 184.012)" fill="#C50675"/>
<path d="M264.908 198.197C267.646 194.095 266.149 182.265 265.059 176.862L271.651 175.812L275.267 198.494C270.674 200.104 262.171 202.3 264.908 198.197Z" fill="#F8A2B0"/>
<path d="M285.02 194.989C281.143 191.941 278.887 180.232 278.244 174.759L271.651 175.809L275.267 198.492C280.134 198.594 288.898 198.037 285.02 194.989Z" fill="#F8A2B0"/>
<path d="M315.883 210.632L276.628 216.89L240.313 222.679C238.534 211.514 249.595 200.169 266.033 195.112C266.033 195.112 268.131 196.798 274.764 195.741C281.398 194.683 282.978 192.426 282.978 192.426C300.123 192.155 314.107 199.491 315.883 210.632Z" fill="#8C40EC"/>
<path d="M287.553 152.978C289.147 162.977 281.907 172.442 271.382 174.12C260.856 175.798 251.032 169.052 249.438 159.054C247.844 149.055 257.924 135.451 265.945 140.798C271.494 132.959 285.96 142.979 287.553 152.978Z" fill="#C50675"/>
<ellipse cx="269.766" cy="164.387" rx="16.8861" ry="22.0615" transform="rotate(-9.05716 269.766 164.387)" fill="#FFB4C0"/>
<ellipse cx="258.774" cy="150.179" rx="4.59093" ry="11.0081" transform="rotate(40.7645 258.774 150.179)" fill="#C50675"/>
<ellipse rx="4.59093" ry="11.0081" transform="matrix(-0.51685 0.856076 0.856076 0.51685 275.922 147.446)" fill="#C50675"/>
<ellipse cx="253.639" cy="168.818" rx="2.86219" ry="4.91058" transform="rotate(-28.7202 253.639 168.818)" fill="#FFB4C0"/>
<ellipse rx="2.86219" ry="4.91058" transform="matrix(-0.982916 -0.184052 -0.184052 0.982916 287.524 163.416)" fill="#FFB4C0"/>
<path d="M277.275 173.18C277.82 176.601 275.596 179.799 272.307 180.323C269.018 180.848 265.909 178.5 265.364 175.079L277.275 173.18Z" fill="#E95BAD"/>
<path d="M277.275 173.18C277.354 173.675 277.375 174.164 277.343 174.642C274.196 176.552 269.338 177.327 265.754 176.489C265.575 176.045 265.443 175.573 265.364 175.079L277.275 173.18Z" fill="#FFFAF7"/>
<ellipse cx="261.915" cy="164.564" rx="1.26778" ry="2.24776" transform="rotate(-9.05716 261.915 164.564)" fill="#944071"/>
<ellipse cx="277.284" cy="162.114" rx="1.26778" ry="2.24776" transform="rotate(-9.05716 277.284 162.114)" fill="#9E2884"/>
<path d="M268.142 172.853L269.12 164.481C269.179 163.976 269.865 163.869 270.073 164.332L273.511 171.991C273.538 172.051 273.5 172.121 273.435 172.131L268.257 172.963C268.191 172.973 268.134 172.919 268.142 172.853Z" fill="#FFC8D1"/>
<path d="M270.476 172.605L268.767 172.881C268.767 172.881 269.028 172.046 269.5 171.97C269.972 171.894 270.476 172.605 270.476 172.605Z" fill="#A84E4E"/>
<path d="M272.898 172.216L271.188 172.492C271.188 172.492 271.449 171.657 271.921 171.581C272.393 171.505 272.898 172.216 272.898 172.216Z" fill="#A84E4E"/>
<path fill-rule="evenodd" clip-rule="evenodd" d="M261.451 158.124C262.753 158.039 263.951 158.484 264.618 159.252C264.815 159.48 265.16 159.505 265.389 159.307C265.617 159.11 265.641 158.764 265.444 158.536C264.503 157.451 262.937 156.931 261.379 157.034C259.805 157.137 258.168 157.876 257.062 159.401C256.885 159.646 256.94 159.988 257.184 160.165C257.428 160.342 257.77 160.287 257.947 160.043C258.841 158.811 260.163 158.209 261.451 158.124Z" fill="#CC609F"/>
<path fill-rule="evenodd" clip-rule="evenodd" d="M276.095 155.79C274.83 156.114 273.829 156.909 273.435 157.847C273.318 158.125 272.998 158.256 272.72 158.139C272.441 158.022 272.311 157.701 272.428 157.423C272.984 156.098 274.31 155.118 275.824 154.731C277.351 154.34 279.137 154.534 280.662 155.639C280.907 155.816 280.961 156.158 280.784 156.403C280.607 156.647 280.265 156.702 280.021 156.524C278.789 155.631 277.345 155.47 276.095 155.79Z" fill="#CC609F"/>
</g>
<path opacity="0.8" d="M219 103.5C219 96.5964 224.596 91 231.5 91H244L244 103.5C244 110.404 238.404 116 231.5 116C224.596 116 219 110.404 219 103.5Z" fill="#C036EE"/>
<path opacity="0.5" d="M255 60C255 93.1371 281.863 120 315 120H375L375 60C375 26.8629 348.137 0 315 0C281.863 0 255 26.8629 255 60Z" fill="#9636FC"/>
<mask id="mask1" mask-type="alpha" maskUnits="userSpaceOnUse" x="255" y="0" width="120" height="120">
<path d="M255 60C255 93.1371 281.863 120 315 120H375L375 60C375 26.8629 348.137 0 315 0C281.863 0 255 26.8629 255 60Z" fill="#9C26C4"/>
</mask>
<g mask="url(#mask1)">
<circle cx="314.911" cy="54.3939" r="29.8798" fill="#2C1375"/>
<circle cx="322.689" cy="24.5139" r="6.15993" fill="#2C1375"/>
<circle cx="329.525" cy="27.659" r="6.15993" fill="#2C1375"/>
<circle cx="335.685" cy="31.9624" r="6.15993" fill="#2C1375"/>
<circle cx="340.907" cy="38.1226" r="6.15993" fill="#2C1375"/>
<circle cx="344.791" cy="45.9038" r="6.15993" fill="#2C1375"/>
<circle cx="344.791" cy="54.489" r="6.15993" fill="#2C1375"/>
<circle cx="342.442" cy="62.0115" r="6.15993" fill="#2C1375"/>
<circle cx="338.631" cy="69.5342" r="6.15993" fill="#2C1375"/>
<circle cx="333.347" cy="76.521" r="6.15993" fill="#2C1375"/>
<circle cx="327.395" cy="79.2478" r="6.15993" fill="#2C1375"/>
<circle r="6.15993" transform="matrix(-1 0 0 1 315.075 23.3555)" fill="#2C1375"/>
<circle r="6.15993" transform="matrix(-1 0 0 1 307.461 24.5142)" fill="#2C1375"/>
<circle r="6.15993" transform="matrix(-1 0 0 1 300.625 27.6592)" fill="#2C1375"/>
<circle r="6.15993" transform="matrix(-1 0 0 1 294.465 31.9624)" fill="#2C1375"/>
<circle r="6.15993" transform="matrix(-1 0 0 1 289.242 38.1228)" fill="#2C1375"/>
<circle r="6.15993" transform="matrix(-1 0 0 1 285.359 45.9038)" fill="#2C1375"/>
<circle r="6.15993" transform="matrix(-1 0 0 1 285.359 54.4893)" fill="#2C1375"/>
<circle r="6.15993" transform="matrix(-1 0 0 1 287.708 62.0115)" fill="#2C1375"/>
<circle r="6.15993" transform="matrix(-1 0 0 1 291.519 69.5342)" fill="#2C1375"/>
<circle r="6.15993" transform="matrix(-1 0 0 1 296.803 76.521)" fill="#2C1375"/>
<circle r="6.15993" transform="matrix(-1 0 0 1 302.755 79.2478)" fill="#2C1375"/>
<path d="M303.023 96.2813C306.987 91.9961 307.442 77.8908 307.174 71.3738H315.075V98.5577C309.406 99.5844 299.059 100.566 303.023 96.2813Z" fill="#B55A84"/>
<path d="M327.127 96.281C323.163 91.9959 322.708 77.8906 322.975 71.3735H315.075V98.5575C320.744 99.5841 331.09 100.566 327.127 96.281Z" fill="#B55A84"/>
<path d="M329.525 58.1324C329.525 68.2881 324.614 76.521 314.947 76.521C305.279 76.521 300.625 68.2881 300.625 58.1324C300.625 47.9767 303.694 39.7439 314.947 39.7439C326.2 39.7439 329.525 47.9767 329.525 58.1324Z" fill="#C06690"/>
<path d="M319.946 64.6091C319.946 67.3902 317.692 69.6447 314.911 69.6447C312.13 69.6447 309.875 67.3902 309.875 64.6091H319.946Z" fill="#B9206A"/>
<path d="M319.946 64.6091C319.946 65.0111 319.899 65.402 319.81 65.7768H310.011C309.922 65.402 309.875 65.0111 309.875 64.6091H319.946Z" fill="#FFFAF7"/>
<ellipse cx="300.082" cy="63.8885" rx="2.64204" ry="5.18478" transform="rotate(-18.572 300.082 63.8885)" fill="#C4C4C4"/>
<ellipse cx="300.082" cy="63.8885" rx="2.64204" ry="5.18478" transform="rotate(-18.572 300.082 63.8885)" fill="#C06690"/>
<ellipse rx="2.64204" ry="5.18478" transform="matrix(-0.947924 -0.318496 -0.318496 0.947924 330.378 63.8887)" fill="#C06690"/>
<path d="M360.284 120.314H313.238H269.716C269.716 106.933 284.758 95.7341 304.912 92.886C304.912 92.886 307.05 95.2483 315 95.2483C322.951 95.2483 325.217 92.9043 325.217 92.9043C345.306 95.7819 360.284 106.961 360.284 120.314Z" fill="#EA42A4"/>
<path d="M311.418 48.8391C310.322 47.8697 306.976 46.0497 303.104 48.2069" stroke="#923963" stroke-linecap="round"/>
<path d="M318.689 49.0916C320.197 47.4274 323.572 46.2866 326.571 47.8881" stroke="#923963" stroke-linecap="round"/>
<ellipse cx="307.563" cy="54.5055" rx="1.3847" ry="1.86052" fill="#72304F"/>
<ellipse cx="322.587" cy="54.5056" rx="1.38472" ry="1.86055" fill="#72304F"/>
<path d="M300.306 68.5967C300.498 68.2633 300.979 68.2633 301.172 68.5967L302.956 71.6866C303.148 72.0199 302.907 72.4366 302.523 72.4366H298.955C298.57 72.4366 298.329 72.0199 298.522 71.6866L300.306 68.5967Z" fill="#B030FF"/>
<path d="M329.198 68.5967C329.39 68.2633 329.871 68.2633 330.064 68.5967L331.848 71.6866C332.04 72.0199 331.8 72.4366 331.415 72.4366H327.847C327.462 72.4366 327.221 72.0199 327.414 71.6866L329.198 68.5967Z" fill="#B030FF"/>
<path d="M303.385 48.5483C306.018 48.1278 309.482 48.1207 312.959 49.6988C312.905 52.6161 312.112 55.2283 310.88 57.1174C309.6 59.0792 307.891 60.2079 306.076 60.2079C304.26 60.2079 302.551 59.0792 301.272 57.1174C300.041 55.23 299.248 52.6209 299.192 49.7068C299.199 49.704 299.206 49.7011 299.213 49.6983C299.42 49.6121 299.728 49.4915 300.121 49.3571C300.907 49.0879 302.033 48.7642 303.385 48.5483Z" stroke="white"/>
<path d="M321.233 48.5483C323.867 48.1278 327.33 48.1207 330.808 49.6988C330.754 52.6161 329.961 55.2283 328.729 57.1174C327.449 59.0792 325.74 60.2079 323.924 60.2079C322.109 60.2079 320.4 59.0792 319.12 57.1174C317.89 55.23 317.096 52.6209 317.041 49.7068C317.048 49.704 317.055 49.7011 317.062 49.6983C317.269 49.6121 317.577 49.4915 317.97 49.3571C318.756 49.0879 319.882 48.7642 321.233 48.5483Z" stroke="white"/>
<path d="M313.086 49.8586H316.748" stroke="white"/>
<path d="M312.731 60.6193L314.563 54.5474C314.707 54.071 315.383 54.0741 315.522 54.5518L317.292 60.6201C317.311 60.6841 317.263 60.7481 317.196 60.7481H312.827C312.76 60.7481 312.712 60.6835 312.731 60.6193Z" fill="#DC75A5"/>
<path d="M314.696 60.7481H313.239C313.239 60.7481 313.565 60.1345 313.967 60.1345C314.37 60.1345 314.696 60.7481 314.696 60.7481Z" fill="#AE547E"/>
<path d="M316.761 60.7481H315.304C315.304 60.7481 315.63 60.1345 316.032 60.1345C316.435 60.1345 316.761 60.7481 316.761 60.7481Z" fill="#AE547E"/>
</g>
<path opacity="0.5" d="M60 159C60 142.431 46.5685 129 30 129H3.57628e-06L0 159C0 175.569 13.4315 189 30 189C46.5685 189 60 175.569 60 159Z" fill="#9636FC"/>
<path opacity="0.6" d="M208 142C208 103.34 176.66 72 138 72H68L68 142C68 180.66 99.3401 212 138 212C176.66 212 208 180.66 208 142Z" fill="#4203C0"/>
<mask id="mask2" mask-type="alpha" maskUnits="userSpaceOnUse" x="68" y="72" width="140" height="140">
<path d="M208 142C208 103.34 176.66 72 138 72H68L68 142C68 180.66 99.3401 212 138 212C176.66 212 208 180.66 208 142Z" fill="#9C26C4"/>
</mask>
<g mask="url(#mask2)">
<path d="M151.549 155.81C143.9 158.169 136.495 161.243 124.977 164.795C107.26 172.737 96.4814 187.188 91.9999 206C91.9999 206 129.805 228.312 156.511 220.782C183.383 213.205 205.637 168.841 205.637 168.841C193.526 154.048 159.199 153.452 151.549 155.81Z" fill="#FEA666"/>
<path d="M128.311 166.243C126.707 159.113 124.249 150.319 120.843 143.727C114.051 130.583 143.049 109.414 145.766 136.042C146.472 142.958 148.074 148.538 150.06 153.01C153.053 159.748 150.065 173.45 142.955 175.401C136.439 177.189 129.794 172.836 128.311 166.243Z" fill="#E09191"/>
<ellipse rx="5.3005" ry="6.14553" transform="matrix(-0.999999 0.0014388 0.0014388 0.999999 146.827 124.139)" fill="#EA9999"/>
<ellipse cx="109.247" cy="125.336" rx="5.97598" ry="7.15094" transform="rotate(-30.5185 109.247 125.336)" fill="#F7C953"/>
<ellipse cx="111.25" cy="135.645" rx="5.3005" ry="6.68085" transform="rotate(-34.1936 111.25 135.645)" fill="#EA9999"/>
<path d="M103.711 112.341L137.752 101.844L147.162 132.36C150.06 141.76 144.79 151.73 135.39 154.628C125.99 157.527 116.02 152.257 113.121 142.857L103.711 112.341Z" fill="#EA9999"/>
<path d="M125.093 121.169C125.608 118.018 129.946 116.671 132.267 118.065" stroke="#653D31" stroke-width="0.6" stroke-linecap="round"/>
<path d="M117.367 123.943C115.045 121.751 110.781 123.314 109.782 125.83" stroke="#653D31" stroke-width="0.6" stroke-linecap="round"/>
<ellipse cx="115.366" cy="108.923" rx="21.1625" ry="11.2079" transform="rotate(-17.138 115.366 108.923)" fill="#F7C953"/>
<ellipse cx="113.053" cy="102.599" rx="12.5371" ry="11.2903" transform="rotate(40.848 113.053 102.599)" fill="#F7C953"/>
<ellipse cx="120.602" cy="96.1946" rx="9.17062" ry="9.33098" transform="rotate(3.49457 120.602 96.1946)" fill="#F7C953"/>
<ellipse cx="130.766" cy="99.95" rx="8.45356" ry="10.7329" transform="rotate(13.4304 130.766 99.95)" fill="#F7C953"/>
<ellipse cx="141.469" cy="106.547" rx="5.65759" ry="11.3527" transform="rotate(-11.5084 141.469 106.547)" fill="#F7C953"/>
<ellipse cx="138.811" cy="110.757" rx="4.94611" ry="6.3527" transform="rotate(-15.5743 138.811 110.757)" fill="#F6C953"/>
<path d="M122.212 138.001L121.055 126.869C120.998 126.318 121.746 126.096 121.998 126.589L127.07 136.515C127.212 136.791 127.069 137.128 126.772 137.22L122.857 138.427C122.556 138.52 122.245 138.315 122.212 138.001Z" fill="#F2B1B1"/>
<path fill-rule="evenodd" clip-rule="evenodd" d="M135.365 137.412C135.736 137.498 135.967 137.868 135.881 138.239C135.072 141.732 132.974 143.674 130.682 144.581C128.431 145.471 126.007 145.359 124.46 144.804C124.102 144.676 123.915 144.281 124.044 143.923C124.172 143.565 124.567 143.379 124.925 143.508C126.163 143.952 128.242 144.065 130.176 143.3C132.068 142.551 133.837 140.958 134.539 137.928C134.625 137.557 134.995 137.326 135.365 137.412Z" fill="#663527"/>
<ellipse cx="102.856" cy="112.605" rx="8.09067" ry="9.15446" transform="rotate(-17.138 102.856 112.605)" fill="#F7C953"/>
<path d="M127.823 162.722L124.991 164.61C124.568 168.001 124.949 179.098 139.642 176.735C150.339 175.014 159.002 165.392 156.153 155.167C153.32 154.223 150.487 154.223 150.487 154.223C152.078 160.955 149.165 171.349 138.406 172.891C130.29 174.054 128.081 167.444 127.823 162.722Z" fill="#FFCEAA"/>
<ellipse cx="129.109" cy="126.375" rx="1.14772" ry="2.0659" transform="rotate(-17.138 129.109 126.375)" fill="#212121"/>
<ellipse cx="116.386" cy="130.298" rx="1.14772" ry="2.0659" transform="rotate(-17.138 116.386 130.298)" fill="#212121"/>
<path d="M148.852 127.264C148.852 127.264 150.189 122.824 146.84 120.738C147.738 119.905 149.405 120.771 150.061 122.44C150.697 124.059 150.307 126.245 148.852 127.264Z" fill="#F2B1B1"/>
<path d="M111.572 139.409C111.572 139.409 107.666 136.91 108.851 133.145C107.626 133.098 106.925 134.841 107.514 136.534C108.085 138.177 109.805 139.582 111.572 139.409Z" fill="#F2B1B1"/>
<path d="M143.536 125.811L138.953 110.949C141.926 111.782 147.424 114.055 145.632 116.485C144.184 118.45 143.916 122.738 143.989 125.732C143.994 125.971 143.607 126.04 143.536 125.811Z" fill="#F7C953"/>
</g>
<path d="M60 62.5H0L0 0C33.1371 0 60 27.9822 60 62.5Z" fill="#6363FF"/>
<path d="M0 62.5H60V125C26.8629 125 0 97.0178 0 62.5Z" fill="#6363FF"/>
<g opacity="0.8">
<path d="M128 0V60L68 60C68 26.8629 94.8629 0 128 0Z" fill="#C036EE"/>
<path d="M128 60V0L188 0C188 33.1371 161.137 60 128 60Z" fill="#C036EE"/>
</g>
<circle opacity="0.8" r="15" transform="matrix(1 0 0 -1 184 60)" fill="#FF699E"/>
<path d="M244 41H204V1C226.091 1 244 18.9086 244 41Z" fill="#6363FF"/>
<path d="M204 41H244V81C221.909 81 204 63.0914 204 41Z" fill="#6363FF"/>
</svg>
