<svg width="168" height="31" viewBox="0 0 168 31" fill="none" xmlns="http://www.w3.org/2000/svg">
<path d="M50.9657 6.7881C51.685 6.7881 52.3067 6.52606 52.8308 6.00197C53.3549 5.47789 53.617 4.85618 53.617 4.13685C53.617 3.41752 53.3549 2.79581 52.8308 2.27172C52.3067 1.74764 51.685 1.4856 50.9657 1.4856C50.2464 1.4856 49.6247 1.74764 49.1006 2.27172C48.5765 2.79581 48.3145 3.41752 48.3145 4.13685C48.3145 4.85618 48.5765 5.47789 49.1006 6.00197C49.6247 6.52606 50.2464 6.7881 50.9657 6.7881ZM53.0929 24.3912V8.66864H48.8385V24.3912H53.0929ZM64.1813 24.3912C65.1267 24.3912 65.9796 24.1702 66.74 23.7284C67.5005 23.2865 68.1068 22.6905 68.5589 21.9403C69.0111 21.1901 69.2371 20.3629 69.2371 19.4586C69.2371 18.2871 69.0111 17.3417 68.5589 16.6224C68.1068 15.9031 67.4696 15.3738 66.6475 15.0347C65.8255 14.6956 64.8492 14.5261 63.7188 14.5261H60.7593C60.4305 14.5261 60.153 14.4182 59.9269 14.2024C59.7009 13.9866 59.5878 13.7142 59.5878 13.3854C59.5878 13.0566 59.706 12.7894 59.9423 12.5839C60.1787 12.3783 60.451 12.2756 60.7593 12.2756H67.7265V8.66864H60.3585C59.4542 8.66864 58.627 8.88957 57.8768 9.33145C57.1267 9.77332 56.5307 10.3591 56.0888 11.0887C55.6469 11.8183 55.426 12.625 55.426 13.5087C55.426 14.6596 55.6675 15.5896 56.1504 16.2987C56.6334 17.0077 57.2808 17.5216 58.0926 17.8401C58.9045 18.1587 59.8139 18.318 60.821 18.318H63.7805C64.0271 18.318 64.2481 18.3745 64.4433 18.4875C64.6386 18.6006 64.7927 18.7496 64.9057 18.9345C65.0188 19.1195 65.0753 19.3353 65.0753 19.5819C65.0753 19.808 65.0188 20.0135 64.9057 20.1985C64.7927 20.3835 64.6386 20.5273 64.4433 20.6301C64.2481 20.7329 64.0271 20.7842 63.7805 20.7842H56.1042V24.3912H64.1813ZM80.6637 24.3912V20.7842H77.2417C76.9745 20.7842 76.7433 20.6866 76.5481 20.4914C76.3528 20.2961 76.2552 20.0649 76.2552 19.7977L76.2551 12.2756H80.6637V8.66864H76.2551L76.2552 4.72259H72.0317L72.0316 8.66864H69.3496V12.2756H72.0316L72.0317 19.921C72.0317 21.2563 72.4037 22.321 73.1477 23.1152L73.2186 23.1889C74.0098 23.9904 75.1043 24.3912 76.5018 24.3912H80.6637ZM88.4545 24.7611C89.3588 24.7611 90.1398 24.6275 90.7975 24.3603C91.4552 24.0932 92.0152 23.7335 92.4776 23.2813C92.9401 22.8292 93.3254 22.3257 93.6337 21.7707H93.6954V24.3912H97.9189V16.5607C97.9189 15.0399 97.6003 13.6526 96.9632 12.3989C96.3261 11.1452 95.4012 10.1484 94.1886 9.40852C92.976 8.66864 91.486 8.29869 89.7185 8.29869C87.9715 8.29869 86.4712 8.6635 85.2175 9.39311C83.9638 10.1227 83.003 11.1144 82.3351 12.3681C81.6671 13.6217 81.3331 15.0193 81.3331 16.5607C81.3331 18.0611 81.626 19.4329 82.2118 20.6763C82.7975 21.9198 83.6247 22.9114 84.6934 23.6513C85.7622 24.3912 87.0159 24.7611 88.4545 24.7611ZM89.6568 21.1542C88.8142 21.1542 88.0897 20.9487 87.4834 20.5376C86.8771 20.1266 86.4147 19.5665 86.0961 18.8575C85.7776 18.1484 85.6183 17.3623 85.6183 16.4991C85.6183 15.6359 85.7776 14.86 86.0961 14.1715C86.4147 13.483 86.8771 12.9332 87.4834 12.5222C88.0897 12.1112 88.8142 11.9056 89.6568 11.9056C90.4789 11.9056 91.188 12.1112 91.784 12.5222C92.38 12.9332 92.8373 13.483 93.1559 14.1715C93.4744 14.86 93.6337 15.6359 93.6337 16.4991C93.6337 17.3623 93.4744 18.1484 93.1559 18.8575C92.8373 19.5665 92.38 20.1266 91.784 20.5376C91.188 20.9487 90.4789 21.1542 89.6568 21.1542ZM104.626 24.3912V15.3584C104.626 14.7213 104.78 14.1407 105.088 13.6166C105.396 13.0925 105.813 12.6763 106.337 12.3681C106.861 12.0598 107.441 11.9056 108.078 11.9056C108.716 11.9056 109.296 12.0598 109.82 12.3681C110.344 12.6763 110.761 13.0925 111.069 13.6166C111.377 14.1407 111.531 14.7213 111.531 15.3584V24.3912H115.755V15.3584C115.755 14.0636 115.452 12.8819 114.845 11.8131C114.239 10.7444 113.366 9.8915 112.225 9.25438C111.084 8.61726 109.702 8.29869 108.078 8.29869C106.475 8.29869 105.098 8.61726 103.947 9.25438C102.796 9.8915 101.918 10.7444 101.312 11.8131C100.705 12.8819 100.402 14.0636 100.402 15.3584V24.3912H104.626ZM128.353 24.3912V20.7842H124.931C124.664 20.7842 124.433 20.6866 124.237 20.4914C124.042 20.2961 123.944 20.0649 123.944 19.7977L123.944 12.2756H128.353V8.66864H123.944L123.944 4.72259H119.721L119.721 8.66864H117.039V12.2756H119.721L119.721 19.921C119.721 21.2563 120.093 22.321 120.837 23.1152L120.908 23.1889C121.699 23.9904 122.793 24.3912 124.191 24.3912H128.353ZM142.34 24.3912V20.7842H134.602C134.5 20.7842 134.412 20.7483 134.34 20.6763C134.268 20.6044 134.232 20.5171 134.232 20.4143C134.232 20.3732 134.248 20.3218 134.279 20.2602C134.309 20.1985 134.356 20.1471 134.417 20.106L140.861 15.7592C141.395 15.3892 141.832 14.9268 142.171 14.3719C142.51 13.817 142.679 13.2107 142.679 12.553C142.679 11.8337 142.51 11.1812 142.171 10.5954C141.832 10.0097 141.385 9.54211 140.83 9.19272C140.275 8.84333 139.648 8.66864 138.949 8.66864H130.41V12.2756H137.716C137.819 12.2756 137.906 12.3115 137.978 12.3835C138.05 12.4554 138.086 12.5428 138.086 12.6455C138.086 12.6866 138.076 12.738 138.055 12.7997C138.035 12.8613 137.983 12.9127 137.901 12.9538L131.458 17.3006C130.923 17.6706 130.487 18.133 130.148 18.6879C129.809 19.2428 129.639 19.8491 129.639 20.5068C129.639 21.2261 129.809 21.8786 130.148 22.4644C130.487 23.0501 130.934 23.5177 131.489 23.8671C132.044 24.2165 132.67 24.3912 133.369 24.3912H142.34ZM147.262 6.7881C147.982 6.7881 148.603 6.52606 149.128 6.00197C149.652 5.47789 149.914 4.85618 149.914 4.13685C149.914 3.41752 149.652 2.79581 149.128 2.27172C148.603 1.74764 147.982 1.4856 147.262 1.4856C146.543 1.4856 145.921 1.74764 145.397 2.27172C144.873 2.79581 144.611 3.41752 144.611 4.13685C144.611 4.85618 144.873 5.47789 145.397 6.00197C145.921 6.52606 146.543 6.7881 147.262 6.7881ZM149.39 24.3912V8.66864H145.135V24.3912H149.39ZM158.536 24.7611C159.44 24.7611 160.221 24.6275 160.879 24.3603C161.536 24.0932 162.097 23.7335 162.559 23.2813C163.021 22.8292 163.407 22.3257 163.715 21.7707H163.777V24.3912H168V16.5607C168 15.0399 167.682 13.6526 167.044 12.3989C166.407 11.1452 165.483 10.1484 164.27 9.40852C163.057 8.66864 161.567 8.29869 159.8 8.29869C158.053 8.29869 156.553 8.6635 155.299 9.39311C154.045 10.1227 153.084 11.1144 152.416 12.3681C151.748 13.6217 151.414 15.0193 151.414 16.5607C151.414 18.0611 151.707 19.4329 152.293 20.6763C152.879 21.9198 153.706 22.9114 154.775 23.6513C155.843 24.3912 157.097 24.7611 158.536 24.7611ZM159.738 21.1542C158.895 21.1542 158.171 20.9487 157.565 20.5376C156.958 20.1266 156.496 19.5665 156.177 18.8575C155.859 18.1484 155.7 17.3623 155.7 16.4991C155.7 15.6359 155.859 14.86 156.177 14.1715C156.496 13.483 156.958 12.9332 157.565 12.5222C158.171 12.1112 158.895 11.9056 159.738 11.9056C160.56 11.9056 161.269 12.1112 161.865 12.5222C162.461 12.9332 162.919 13.483 163.237 14.1715C163.556 14.86 163.715 15.6359 163.715 16.4991C163.715 17.3623 163.556 18.1484 163.237 18.8575C162.919 19.5665 162.461 20.1266 161.865 20.5376C161.269 20.9487 160.56 21.1542 159.738 21.1542Z" fill="#303033"/>
<path d="M17.8544 0L17.776 0.000450802C15.2961 0.0289817 13.0267 1.40989 11.863 3.60468L10.4476 6.27384L7.80051 3.77095C6.942 2.95919 5.8053 2.50689 4.62377 2.50689C2.07013 2.50689 0 4.57702 0 7.13066V23.0421C0 24.2425 0.466858 25.3959 1.30186 26.2583L1.35549 26.3129C3.13657 28.0938 6.02371 28.1225 7.84 26.364L10.4434 23.8434L11.8504 26.5525C13.017 28.7989 15.3376 30.2086 17.8688 30.2086H29.5921C33.3375 30.2086 36.3737 27.1725 36.3737 23.4271V6.78153C36.3737 3.0362 33.3375 0 29.5921 0H17.8544ZM29.5921 4.31552C30.9541 4.31552 32.0582 5.41959 32.0582 6.78153V23.4271C32.0582 24.7891 30.9541 25.8931 29.5921 25.8931H17.8688C16.9483 25.8931 16.1045 25.3805 15.6803 24.5636L11.985 17.4479C11.8281 17.1457 11.4559 17.0279 11.1537 17.1849C11.1007 17.2124 11.052 17.2475 11.009 17.2891L4.83819 23.2636C4.71588 23.382 4.52073 23.3788 4.40231 23.2565C4.34665 23.199 4.31552 23.1221 4.31552 23.0421V7.13066C4.31552 6.96042 4.45353 6.82241 4.62377 6.82241C4.70254 6.82241 4.77832 6.85256 4.83556 6.90668L11.0149 12.7495C11.2623 12.9834 11.6525 12.9725 11.8864 12.7251C11.9246 12.6847 11.9571 12.6394 11.9831 12.5903L15.6757 5.62631C16.1033 4.81981 16.9415 4.31552 17.8544 4.31552H29.5921Z" fill="url(#paint0_radial)"/>
<defs>
<radialGradient id="paint0_radial" cx="0" cy="0" r="1" gradientUnits="userSpaceOnUse" gradientTransform="translate(2.5 5) rotate(36.4164) scale(37.9012 32.5387)">
<stop stop-color="#FF699E"/>
<stop offset="0.579735" stop-color="#C036EE"/>
<stop offset="1" stop-color="#6060F0"/>
</radialGradient>
</defs>
</svg>
