<svg width="64" height="64" viewBox="0 0 64 64" fill="none" xmlns="http://www.w3.org/2000/svg">
<path d="M49.3207 25.699C50.6953 24.2967 50.6729 22.0456 49.2706 20.671C47.8683 19.2963 45.6172 19.3188 44.2426 20.7211L29.5678 35.6911L19.7766 25.5502C18.4127 24.1375 16.1618 24.098 14.7491 25.462C13.3364 26.8259 13.2969 29.0769 14.6609 30.4895L26.9906 43.2596C27.6574 43.9502 28.575 44.3418 29.535 44.3455C30.4949 44.3491 31.4155 43.9645 32.0875 43.2789L49.3207 25.699Z" fill="url(#paint0_radial)"/>
<path fill-rule="evenodd" clip-rule="evenodd" d="M43.5246 1.53348e-06H20.4754C17.6133 -4.3819e-05 15.2511 -8.11153e-05 13.3268 0.157136C11.3283 0.320426 9.49111 0.670877 7.76547 1.55013C5.08939 2.91367 2.91367 5.08939 1.55013 7.76547C0.670877 9.49111 0.320426 11.3283 0.157136 13.3268C-8.11153e-05 15.2511 -4.3819e-05 17.6133 1.53348e-06 20.4754V43.5246C-4.3819e-05 46.3867 -8.11153e-05 48.7489 0.157136 50.6732C0.320426 52.6717 0.670877 54.5089 1.55013 56.2345C2.91367 58.9106 5.08939 61.0863 7.76547 62.4499C9.49111 63.3291 11.3283 63.6796 13.3268 63.8429C15.2511 64.0001 17.6132 64 20.4753 64H43.5247C46.3868 64 48.7489 64.0001 50.6732 63.8429C52.6717 63.6796 54.5089 63.3291 56.2345 62.4499C58.9106 61.0863 61.0863 58.9106 62.4499 56.2345C63.3291 54.5089 63.6796 52.6717 63.8429 50.6732C64.0001 48.7489 64 46.3868 64 43.5247V20.4753C64 17.6132 64.0001 15.2511 63.8429 13.3268C63.6796 11.3283 63.3291 9.49111 62.4499 7.76547C61.0863 5.08939 58.9106 2.91367 56.2345 1.55013C54.5089 0.670877 52.6717 0.320426 50.6732 0.157136C48.7489 -8.11153e-05 46.3867 -4.3819e-05 43.5246 1.53348e-06ZM10.9938 7.88618C11.5499 7.60284 12.3471 7.37199 13.9059 7.24463C15.5062 7.11388 17.5766 7.11111 20.6222 7.11111H43.3778C46.4234 7.11111 48.4938 7.11388 50.0941 7.24463C51.6529 7.37199 52.4501 7.60284 53.0062 7.88618C54.3442 8.56794 55.4321 9.65581 56.1138 10.9938C56.3972 11.5499 56.628 12.3471 56.7554 13.9059C56.8861 15.5062 56.8889 17.5766 56.8889 20.6222V43.3778C56.8889 46.4234 56.8861 48.4938 56.7554 50.0941C56.628 51.6529 56.3972 52.4501 56.1138 53.0062C55.4321 54.3442 54.3442 55.4321 53.0062 56.1138C52.4501 56.3972 51.6529 56.628 50.0941 56.7554C48.4938 56.8861 46.4234 56.8889 43.3778 56.8889H20.6222C17.5766 56.8889 15.5062 56.8861 13.9059 56.7554C12.3471 56.628 11.5499 56.3972 10.9938 56.1138C9.65581 55.4321 8.56794 54.3442 7.88618 53.0062C7.60284 52.4501 7.37199 51.6529 7.24463 50.0941C7.11388 48.4938 7.11111 46.4234 7.11111 43.3778V20.6222C7.11111 17.5766 7.11388 15.5062 7.24463 13.9059C7.37199 12.3471 7.60284 11.5499 7.88618 10.9938C8.56794 9.65581 9.65581 8.56794 10.9938 7.88618Z" fill="url(#paint1_radial)"/>
<defs>
<radialGradient id="paint0_radial" cx="0" cy="0" r="1" gradientUnits="userSpaceOnUse" gradientTransform="translate(4.51978 13.0612) rotate(44.9331) scale(71.5061 62.4775)">
<stop stop-color="#FF699E"/>
<stop offset="0.607879" stop-color="#C036EE"/>
<stop offset="1" stop-color="#6060F0"/>
</radialGradient>
<radialGradient id="paint1_radial" cx="0" cy="0" r="1" gradientUnits="userSpaceOnUse" gradientTransform="translate(4.51978 13.0612) rotate(44.9331) scale(71.5061 62.4775)">
<stop stop-color="#FF699E"/>
<stop offset="0.607879" stop-color="#C036EE"/>
<stop offset="1" stop-color="#6060F0"/>
</radialGradient>
</defs>
</svg>
