<svg width="14" height="8" viewBox="0 0 14 8" fill="none" xmlns="http://www.w3.org/2000/svg">
<g filter="url(#filter0_i)">
<path fill-rule="evenodd" clip-rule="evenodd" d="M13.6445 0.328102C14.1076 0.776072 14.1199 1.51466 13.6719 1.97779L8.84103 6.97211C7.94475 7.89871 6.46688 7.9229 5.54076 7.02613L0.355097 2.0048C-0.107791 1.55658 -0.119681 0.817984 0.328536 0.355097C0.776754 -0.10779 1.51535 -0.119682 1.97824 0.328536L7.1639 5.34986L11.9948 0.355546C12.4427 -0.107581 13.1813 -0.119868 13.6445 0.328102Z" fill="black"/>
<path fill-rule="evenodd" clip-rule="evenodd" d="M13.6445 0.328102C14.1076 0.776072 14.1199 1.51466 13.6719 1.97779L8.84103 6.97211C7.94475 7.89871 6.46688 7.9229 5.54076 7.02613L0.355097 2.0048C-0.107791 1.55658 -0.119681 0.817984 0.328536 0.355097C0.776754 -0.10779 1.51535 -0.119682 1.97824 0.328536L7.1639 5.34986L11.9948 0.355546C12.4427 -0.107581 13.1813 -0.119868 13.6445 0.328102Z" fill="url(#paint0_linear)"/>
</g>
<defs>
<filter id="filter0_i" x="0" y="0" width="14" height="8.6832" filterUnits="userSpaceOnUse" color-interpolation-filters="sRGB">
<feFlood flood-opacity="0" result="BackgroundImageFix"/>
<feBlend mode="normal" in="SourceGraphic" in2="BackgroundImageFix" result="shape"/>
<feColorMatrix in="SourceAlpha" type="matrix" values="0 0 0 0 0 0 0 0 0 0 0 0 0 0 0 0 0 0 127 0" result="hardAlpha"/>
<feOffset dy="1"/>
<feGaussianBlur stdDeviation="1"/>
<feComposite in2="hardAlpha" operator="arithmetic" k2="-1" k3="1"/>
<feColorMatrix type="matrix" values="0 0 0 0 1 0 0 0 0 1 0 0 0 0 1 0 0 0 0.6 0"/>
<feBlend mode="normal" in2="shape" result="effect1_innerShadow"/>
</filter>
<linearGradient id="paint0_linear" x1="14" y1="0" x2="14" y2="7.6832" gradientUnits="userSpaceOnUse">
<stop stop-color="#FF699E"/>
<stop offset="1" stop-color="#C036EE"/>
</linearGradient>
</defs>
</svg>
