<svg width="70" height="58" viewBox="0 0 70 58" fill="none" xmlns="http://www.w3.org/2000/svg">
<path fill-rule="evenodd" clip-rule="evenodd" d="M11.6667 0C5.22334 0 0 5.1935 0 11.6V46.4C0 52.8065 5.22334 58 11.6667 58H58.3333C64.7766 58 70 52.8065 70 46.4V11.6C70 5.1935 64.7767 0 58.3333 0H11.6667ZM8.02816 10.232C8.58382 8.77169 10.0033 7.73333 11.6667 7.73333H58.3333C59.9976 7.73333 61.4177 8.77277 61.9727 10.2343L51.9872 20.076C48.4926 23.5203 46.0349 25.9385 43.963 27.6731C41.9261 29.3782 40.5173 30.1982 39.2093 30.6187C36.4919 31.4924 33.5669 31.4941 30.8485 30.6235C29.54 30.2044 28.1303 29.3861 26.0915 27.6832C24.0175 25.951 21.557 23.5357 18.0584 20.0953L8.02816 10.232ZM7.77778 20.8624V46.4C7.77778 48.5355 9.51889 50.2667 11.6667 50.2667H58.3333C60.4811 50.2667 62.2222 48.5355 62.2222 46.4V20.8774L57.3437 25.6856C53.9954 28.9858 51.315 31.6277 48.9725 33.5887C46.5672 35.6024 44.2656 37.1206 41.6023 37.9769C37.3321 39.3499 32.7357 39.3525 28.464 37.9844C25.7996 37.1311 23.4963 35.6155 21.0887 33.6046C18.744 31.6462 16.0606 29.0074 12.7085 25.711L7.77778 20.8624Z" fill="url(#paint0_radial)"/>
<defs>
<radialGradient id="paint0_radial" cx="0" cy="0" r="1" gradientUnits="userSpaceOnUse" gradientTransform="translate(4.9435 11.8367) rotate(39.5785) scale(71.8353 61.6446)">
<stop stop-color="#FF699E"/>
<stop offset="0.607879" stop-color="#C036EE"/>
<stop offset="1" stop-color="#6060F0"/>
</radialGradient>
</defs>
</svg>
