<svg width="56" height="64" viewBox="0 0 56 64" fill="none" xmlns="http://www.w3.org/2000/svg">
<path fill-rule="evenodd" clip-rule="evenodd" d="M27.8079 0C18.2121 0 10.4332 7.77892 10.4332 17.3747V22.7042C9.17187 22.8517 7.91648 23.1397 6.69986 23.7596C4.56331 24.8482 2.82624 26.5853 1.73761 28.7218C1.00606 30.1576 0.736787 31.6473 0.615066 33.1371C0.499872 34.547 0.499933 36.2574 0.500003 38.2337V48.2883C0.499933 50.2646 0.499872 51.975 0.615066 53.3849C0.736787 54.8747 1.00606 56.3644 1.73761 57.8002C2.82624 59.9367 4.56331 61.6738 6.69986 62.7624C8.1356 63.4939 9.62534 63.7632 11.1151 63.8849C12.525 64.0001 14.2354 64.0001 16.2115 64H39.4042C41.3804 64.0001 43.0908 64.0001 44.5007 63.8849C45.9905 63.7632 47.4802 63.4939 48.916 62.7624C51.0525 61.6738 52.7896 59.9367 53.8782 57.8002C54.6098 56.3644 54.8791 54.8747 55.0008 53.3849C55.116 51.975 55.1159 50.2646 55.1158 48.2885V38.2337C55.1159 36.2575 55.116 34.547 55.0008 33.1371C54.8791 31.6473 54.6098 30.1576 53.8782 28.7218C52.7896 26.5853 51.0525 24.8482 48.916 23.7596C47.6994 23.1397 46.444 22.8517 45.1826 22.7042V17.3747C45.1826 7.77892 37.4037 0 27.8079 0ZM37.4876 22.522V17.3747C37.4876 12.0288 33.1539 7.69501 27.8079 7.69501C22.462 7.69501 18.1282 12.0288 18.1282 17.3747V22.522H37.4876ZM10.1933 30.6159C10.3635 30.5292 10.7278 30.3894 11.7418 30.3065C12.8006 30.22 14.1935 30.217 16.3592 30.217H39.2566C41.4223 30.217 42.8152 30.22 43.8741 30.3065C44.888 30.3894 45.2524 30.5292 45.4225 30.6159C46.1112 30.9668 46.671 31.5267 47.0219 32.2153C47.1086 32.3855 47.2485 32.7498 47.3313 33.7637C47.4178 34.8226 47.4208 36.2155 47.4208 38.3812V48.1408C47.4208 50.3065 47.4178 51.6994 47.3313 52.7583C47.2485 53.7722 47.1086 54.1365 47.0219 54.3067C46.671 54.9953 46.1112 55.5552 45.4225 55.9061C45.2524 55.9928 44.888 56.1326 43.8741 56.2155C42.8152 56.302 41.4223 56.305 39.2566 56.305H16.3592C14.1935 56.305 12.8006 56.302 11.7418 56.2155C10.7278 56.1326 10.3635 55.9928 10.1933 55.9061C9.50468 55.5552 8.9448 54.9953 8.59392 54.3067C8.50722 54.1365 8.36737 53.7722 8.28452 52.7583C8.19801 51.6994 8.19502 50.3065 8.19502 48.1408V38.3812C8.19502 36.2155 8.19801 34.8226 8.28452 33.7637C8.36737 32.7498 8.50722 32.3855 8.59392 32.2153C8.9448 31.5267 9.50468 30.9668 10.1933 30.6159Z" fill="url(#paint0_radial)"/>
<defs>
<radialGradient id="paint0_radial" cx="0" cy="0" r="1" gradientUnits="userSpaceOnUse" gradientTransform="translate(4.35705 13.0612) rotate(49.4574) scale(66.4586 57.366)">
<stop stop-color="#FF699E"/>
<stop offset="0.607879" stop-color="#C036EE"/>
<stop offset="1" stop-color="#6060F0"/>
</radialGradient>
</defs>
</svg>
