<svg width="120" height="120" viewBox="0 0 120 120" fill="none" xmlns="http://www.w3.org/2000/svg">
<circle cx="60" cy="41.4281" r="7.05882" fill="#FF699E"/>
<g filter="url(#filter0_i)">
<path fill-rule="evenodd" clip-rule="evenodd" d="M41.2825 20.2149C41.9716 20.904 41.9716 22.0214 41.2825 22.7105C30.9451 33.0479 30.9451 49.8082 41.2825 60.1456C41.9716 60.8348 41.9716 61.9521 41.2825 62.6413C40.5933 63.3304 39.476 63.3304 38.7868 62.6413C27.0711 50.9255 27.0711 31.9306 38.7868 20.2149C39.476 19.5257 40.5933 19.5257 41.2825 20.2149ZM78.7175 20.2149C79.4067 19.5257 80.524 19.5257 81.2132 20.2149C92.9289 31.9306 92.9289 50.9255 81.2132 62.6413C80.524 63.3304 79.4067 63.3304 78.7175 62.6413C78.0284 61.9521 78.0284 60.8348 78.7175 60.1456C89.0549 49.8082 89.0549 33.0479 78.7175 22.7105C78.0284 22.0214 78.0284 20.904 78.7175 20.2149Z" fill="#FF699E"/>
</g>
<g filter="url(#filter1_i)">
<path fill-rule="evenodd" clip-rule="evenodd" d="M46.3986 25.9134C46.927 26.4417 46.927 27.2983 46.3986 27.8267C38.8868 35.3386 38.8868 47.5177 46.3986 55.0295C46.927 55.5579 46.927 56.4145 46.3986 56.9429C45.8703 57.4712 45.0136 57.4712 44.4853 56.9429C35.9167 48.3743 35.9167 34.4819 44.4853 25.9134C45.0136 25.385 45.8703 25.385 46.3986 25.9134ZM73.6014 25.9134C74.1298 25.385 74.9864 25.385 75.5148 25.9134C84.0833 34.4819 84.0833 48.3743 75.5148 56.9429C74.9864 57.4712 74.1298 57.4712 73.6014 56.9429C73.0731 56.4145 73.0731 55.5579 73.6014 55.0295C81.1133 47.5177 81.1133 35.3386 73.6014 27.8267C73.0731 27.2983 73.0731 26.4417 73.6014 25.9134Z" fill="#C036EE"/>
</g>
<g filter="url(#filter2_i)">
<path fill-rule="evenodd" clip-rule="evenodd" d="M51.0572 31.2374C51.4018 31.582 51.4018 32.1407 51.0572 32.4853C46.1182 37.4243 46.1182 45.4319 51.0572 50.3709C51.4018 50.7155 51.4018 51.2742 51.0572 51.6188C50.7126 51.9633 50.1539 51.9633 49.8094 51.6188C44.1812 45.9906 44.1812 36.8656 49.8094 31.2374C50.1539 30.8929 50.7126 30.8929 51.0572 31.2374ZM68.9428 31.2374C69.2874 30.8929 69.8461 30.8929 70.1907 31.2374C75.8188 36.8656 75.8188 45.9906 70.1907 51.6188C69.8461 51.9633 69.2874 51.9633 68.9428 51.6188C68.5983 51.2742 68.5983 50.7155 68.9428 50.3709C73.8818 45.4319 73.8818 37.4243 68.9428 32.4853C68.5983 32.1407 68.5983 31.582 68.9428 31.2374Z" fill="#7C36EE"/>
</g>
<mask id="mask0" mask-type="alpha" maskUnits="userSpaceOnUse" x="52" y="34" width="16" height="15">
<circle cx="60" cy="41.4281" r="7.05882" fill="#FF699E"/>
</mask>
<g mask="url(#mask0)">
<g filter="url(#filter3_f)">
<circle cx="58.1214" cy="40.3714" r="2.8566" fill="#FBA7C5"/>
</g>
</g>
<g filter="url(#filter4_i)">
<path fill-rule="evenodd" clip-rule="evenodd" d="M23.3929 92.8489H26.6071C29.8937 92.8489 31.1374 92.8667 32.1067 93.1312C34.8381 93.8768 36.972 96.0107 37.7176 98.7422C37.9822 99.7114 38 100.955 38 104.242C38 105.635 37.9822 105.932 37.9294 106.126C37.743 106.808 37.2095 107.342 36.5267 107.528C36.3332 107.581 36.0362 107.599 34.6429 107.599H15.3571C13.9638 107.599 13.6667 107.581 13.4733 107.528C12.7905 107.342 12.257 106.808 12.0706 106.126C12.0178 105.932 12 105.635 12 104.242C12 100.955 12.0178 99.7114 12.2824 98.7422C13.028 96.0107 15.1619 93.8768 17.8933 93.1312C18.8626 92.8667 20.1063 92.8489 23.3929 92.8489ZM39.6471 98.2156C40 99.5086 40 101.086 40 104.242C40 105.504 40 106.135 39.8588 106.652C39.486 108.018 38.4191 109.085 37.0533 109.458C36.5361 109.599 35.905 109.599 34.6429 109.599H15.3571C14.095 109.599 13.4639 109.599 12.9467 109.458C11.5809 109.085 10.514 108.018 10.1412 106.652C10 106.135 10 105.504 10 104.242C10 101.086 10 99.5086 10.3529 98.2156C11.2849 94.8012 13.9523 92.1338 17.3667 91.2018C18.6597 90.8489 20.2374 90.8489 23.3929 90.8489H26.6071C29.7626 90.8489 31.3403 90.8489 32.6333 91.2018C36.0477 92.1338 38.715 94.8012 39.6471 98.2156Z" fill="#7C36EE"/>
</g>
<g filter="url(#filter5_i)">
<path fill-rule="evenodd" clip-rule="evenodd" d="M15.6037 72.6052C16.6674 72.6052 17.5755 73.2832 17.9143 74.2337C18.0997 74.7539 18.6718 75.0253 19.192 74.8399C19.7122 74.6544 19.9836 74.0824 19.7982 73.5622C19.1844 71.8402 17.5395 70.6052 15.6037 70.6052C13.1449 70.6052 11.1516 72.5985 11.1516 75.0573C11.1516 76.0091 11.3129 76.8178 11.5043 77.5601C11.5799 77.8533 11.6543 78.1173 11.7261 78.3721C11.8465 78.7995 11.9595 79.2007 12.0584 79.6688C12.3454 81.026 12.4449 82.7136 11.5475 85.5439L10.76 88.0272L13.0068 86.7086C15.3986 85.3049 17.6395 83.4431 19.0206 80.8858C19.2831 80.3999 19.1019 79.7932 18.6159 79.5307C18.13 79.2683 17.5233 79.4495 17.2609 79.9354C16.4977 81.3485 15.3952 82.5443 14.0875 83.57C14.3797 81.7961 14.2669 80.4456 14.0152 79.255C13.9047 78.7325 13.7577 78.2077 13.6247 77.7331C13.5577 77.4939 13.4943 77.2675 13.4409 77.0607C13.2708 76.4011 13.1516 75.774 13.1516 75.0573C13.1516 73.7031 14.2494 72.6052 15.6037 72.6052Z" fill="#7C36EE"/>
</g>
<g filter="url(#filter6_i)">
<path fill-rule="evenodd" clip-rule="evenodd" d="M19.5 80.3489V76.5989C19.5 73.5613 21.9624 71.0989 25 71.0989C28.0376 71.0989 30.5 73.5613 30.5 76.5989V80.3489C30.5 83.3864 28.0376 85.8489 25 85.8489C21.9624 85.8489 19.5 83.3864 19.5 80.3489ZM25 69.0989C29.1421 69.0989 32.5 72.4567 32.5 76.5989V80.3489C32.5 84.491 29.1421 87.8489 25 87.8489C20.8579 87.8489 17.5 84.491 17.5 80.3489V76.5989C17.5 72.4567 20.8579 69.0989 25 69.0989Z" fill="#7C36EE"/>
</g>
<g filter="url(#filter7_i)">
<path fill-rule="evenodd" clip-rule="evenodd" d="M96.6071 92.849H93.3929C90.1063 92.849 88.8626 92.8668 87.8933 93.1314C85.1619 93.877 83.028 96.0109 82.2824 98.7423C82.0178 99.7116 82 100.955 82 104.242C82 105.635 82.0178 105.932 82.0706 106.126C82.257 106.809 82.7905 107.342 83.4733 107.528C83.6668 107.581 83.9638 107.599 85.3571 107.599H104.643C106.036 107.599 106.333 107.581 106.527 107.528C107.21 107.342 107.743 106.809 107.929 106.126C107.982 105.932 108 105.635 108 104.242C108 100.955 107.982 99.7116 107.718 98.7423C106.972 96.0109 104.838 93.877 102.107 93.1314C101.137 92.8668 99.8937 92.849 96.6071 92.849ZM80.3529 98.2157C80 99.5087 80 101.086 80 104.242C80 105.504 80 106.135 80.1412 106.652C80.514 108.018 81.5809 109.085 82.9467 109.458C83.4639 109.599 84.095 109.599 85.3571 109.599H104.643C105.905 109.599 106.536 109.599 107.053 109.458C108.419 109.085 109.486 108.018 109.859 106.652C110 106.135 110 105.504 110 104.242C110 101.086 110 99.5087 109.647 98.2157C108.715 94.8013 106.048 92.1339 102.633 91.2019C101.34 90.849 99.7626 90.849 96.6071 90.849H93.3929C90.2374 90.849 88.6597 90.849 87.3667 91.2019C83.9523 92.1339 81.285 94.8013 80.3529 98.2157Z" fill="#C036EE"/>
</g>
<g filter="url(#filter8_i)">
<path fill-rule="evenodd" clip-rule="evenodd" d="M100.5 80.3489V76.5989C100.5 73.5613 98.0376 71.0989 95 71.0989C91.9624 71.0989 89.5 73.5613 89.5 76.5989V80.3489C89.5 83.3864 91.9624 85.8489 95 85.8489C98.0376 85.8489 100.5 83.3864 100.5 80.3489ZM95 69.0989C90.8579 69.0989 87.5 72.4567 87.5 76.5989V80.3489C87.5 84.491 90.8579 87.8489 95 87.8489C99.1421 87.8489 102.5 84.491 102.5 80.3489V76.5989C102.5 72.4567 99.1421 69.0989 95 69.0989Z" fill="#C036EE"/>
</g>
<defs>
<filter id="filter0_i" x="30" y="19.698" width="60" height="44.4601" filterUnits="userSpaceOnUse" color-interpolation-filters="sRGB">
<feFlood flood-opacity="0" result="BackgroundImageFix"/>
<feBlend mode="normal" in="SourceGraphic" in2="BackgroundImageFix" result="shape"/>
<feColorMatrix in="SourceAlpha" type="matrix" values="0 0 0 0 0 0 0 0 0 0 0 0 0 0 0 0 0 0 127 0" result="hardAlpha"/>
<feOffset dy="1"/>
<feGaussianBlur stdDeviation="0.5"/>
<feComposite in2="hardAlpha" operator="arithmetic" k2="-1" k3="1"/>
<feColorMatrix type="matrix" values="0 0 0 0 1 0 0 0 0 0.6875 0 0 0 0 0.797917 0 0 0 1 0"/>
<feBlend mode="normal" in2="shape" result="effect1_innerShadow"/>
</filter>
<filter id="filter1_i" x="38.0588" y="25.5171" width="43.8823" height="32.822" filterUnits="userSpaceOnUse" color-interpolation-filters="sRGB">
<feFlood flood-opacity="0" result="BackgroundImageFix"/>
<feBlend mode="normal" in="SourceGraphic" in2="BackgroundImageFix" result="shape"/>
<feColorMatrix in="SourceAlpha" type="matrix" values="0 0 0 0 0 0 0 0 0 0 0 0 0 0 0 0 0 0 127 0" result="hardAlpha"/>
<feOffset dy="1"/>
<feGaussianBlur stdDeviation="0.5"/>
<feComposite in2="hardAlpha" operator="arithmetic" k2="-1" k3="1"/>
<feColorMatrix type="matrix" values="0 0 0 0 0.868952 0 0 0 0 0.466667 0 0 0 0 1 0 0 0 1 0"/>
<feBlend mode="normal" in2="shape" result="effect1_innerShadow"/>
</filter>
<filter id="filter2_i" x="45.5883" y="30.979" width="28.8235" height="21.8982" filterUnits="userSpaceOnUse" color-interpolation-filters="sRGB">
<feFlood flood-opacity="0" result="BackgroundImageFix"/>
<feBlend mode="normal" in="SourceGraphic" in2="BackgroundImageFix" result="shape"/>
<feColorMatrix in="SourceAlpha" type="matrix" values="0 0 0 0 0 0 0 0 0 0 0 0 0 0 0 0 0 0 127 0" result="hardAlpha"/>
<feOffset dy="1"/>
<feGaussianBlur stdDeviation="0.5"/>
<feComposite in2="hardAlpha" operator="arithmetic" k2="-1" k3="1"/>
<feColorMatrix type="matrix" values="0 0 0 0 0.636006 0 0 0 0 0.4125 0 0 0 0 1 0 0 0 1 0"/>
<feBlend mode="normal" in2="shape" result="effect1_innerShadow"/>
</filter>
<filter id="filter3_f" x="51.2648" y="33.5148" width="13.7132" height="13.7132" filterUnits="userSpaceOnUse" color-interpolation-filters="sRGB">
<feFlood flood-opacity="0" result="BackgroundImageFix"/>
<feBlend mode="normal" in="SourceGraphic" in2="BackgroundImageFix" result="shape"/>
<feGaussianBlur stdDeviation="2" result="effect1_foregroundBlur"/>
</filter>
<filter id="filter4_i" x="10" y="90.8489" width="30" height="19.75" filterUnits="userSpaceOnUse" color-interpolation-filters="sRGB">
<feFlood flood-opacity="0" result="BackgroundImageFix"/>
<feBlend mode="normal" in="SourceGraphic" in2="BackgroundImageFix" result="shape"/>
<feColorMatrix in="SourceAlpha" type="matrix" values="0 0 0 0 0 0 0 0 0 0 0 0 0 0 0 0 0 0 127 0" result="hardAlpha"/>
<feOffset dy="1"/>
<feGaussianBlur stdDeviation="0.5"/>
<feComposite in2="hardAlpha" operator="arithmetic" k2="-1" k3="1"/>
<feColorMatrix type="matrix" values="0 0 0 0 0.625679 0 0 0 0 0.395833 0 0 0 0 1 0 0 0 1 0"/>
<feBlend mode="normal" in2="shape" result="effect1_innerShadow"/>
</filter>
<filter id="filter5_i" x="10.7601" y="70.6052" width="9.09647" height="18.422" filterUnits="userSpaceOnUse" color-interpolation-filters="sRGB">
<feFlood flood-opacity="0" result="BackgroundImageFix"/>
<feBlend mode="normal" in="SourceGraphic" in2="BackgroundImageFix" result="shape"/>
<feColorMatrix in="SourceAlpha" type="matrix" values="0 0 0 0 0 0 0 0 0 0 0 0 0 0 0 0 0 0 127 0" result="hardAlpha"/>
<feOffset dy="1"/>
<feGaussianBlur stdDeviation="0.5"/>
<feComposite in2="hardAlpha" operator="arithmetic" k2="-1" k3="1"/>
<feColorMatrix type="matrix" values="0 0 0 0 0.625679 0 0 0 0 0.395833 0 0 0 0 1 0 0 0 1 0"/>
<feBlend mode="normal" in2="shape" result="effect1_innerShadow"/>
</filter>
<filter id="filter6_i" x="17.5" y="69.0989" width="15" height="19.75" filterUnits="userSpaceOnUse" color-interpolation-filters="sRGB">
<feFlood flood-opacity="0" result="BackgroundImageFix"/>
<feBlend mode="normal" in="SourceGraphic" in2="BackgroundImageFix" result="shape"/>
<feColorMatrix in="SourceAlpha" type="matrix" values="0 0 0 0 0 0 0 0 0 0 0 0 0 0 0 0 0 0 127 0" result="hardAlpha"/>
<feOffset dy="1"/>
<feGaussianBlur stdDeviation="0.5"/>
<feComposite in2="hardAlpha" operator="arithmetic" k2="-1" k3="1"/>
<feColorMatrix type="matrix" values="0 0 0 0 0.625679 0 0 0 0 0.395833 0 0 0 0 1 0 0 0 1 0"/>
<feBlend mode="normal" in2="shape" result="effect1_innerShadow"/>
</filter>
<filter id="filter7_i" x="80" y="90.849" width="30" height="19.75" filterUnits="userSpaceOnUse" color-interpolation-filters="sRGB">
<feFlood flood-opacity="0" result="BackgroundImageFix"/>
<feBlend mode="normal" in="SourceGraphic" in2="BackgroundImageFix" result="shape"/>
<feColorMatrix in="SourceAlpha" type="matrix" values="0 0 0 0 0 0 0 0 0 0 0 0 0 0 0 0 0 0 127 0" result="hardAlpha"/>
<feOffset dy="1"/>
<feGaussianBlur stdDeviation="0.5"/>
<feComposite in2="hardAlpha" operator="arithmetic" k2="-1" k3="1"/>
<feColorMatrix type="matrix" values="0 0 0 0 0.681458 0 0 0 0 0.420833 0 0 0 0 1 0 0 0 1 0"/>
<feBlend mode="normal" in2="shape" result="effect1_innerShadow"/>
</filter>
<filter id="filter8_i" x="87.5" y="69.0989" width="15" height="19.75" filterUnits="userSpaceOnUse" color-interpolation-filters="sRGB">
<feFlood flood-opacity="0" result="BackgroundImageFix"/>
<feBlend mode="normal" in="SourceGraphic" in2="BackgroundImageFix" result="shape"/>
<feColorMatrix in="SourceAlpha" type="matrix" values="0 0 0 0 0 0 0 0 0 0 0 0 0 0 0 0 0 0 127 0" result="hardAlpha"/>
<feOffset dy="1"/>
<feGaussianBlur stdDeviation="0.5"/>
<feComposite in2="hardAlpha" operator="arithmetic" k2="-1" k3="1"/>
<feColorMatrix type="matrix" values="0 0 0 0 0.681458 0 0 0 0 0.420833 0 0 0 0 1 0 0 0 1 0"/>
<feBlend mode="normal" in2="shape" result="effect1_innerShadow"/>
</filter>
</defs>
</svg>
