<svg width="487" height="675" viewBox="0 0 487 675" fill="none" xmlns="http://www.w3.org/2000/svg">
<path d="M189.274 127.934L233.427 134.055" stroke="#B060C7" stroke-width="2" stroke-linecap="round"/>
<path d="M200 43L172.048 74.5339" stroke="#B060C7" stroke-width="2" stroke-linecap="round"/>
<path d="M245.607 80.0569L187.338 99.2788" stroke="#B060C7" stroke-width="2" stroke-linecap="round"/>
<path d="M156.384 1.59497C154.485 6.31645 146.098 45.7183 142.142 64.8291" stroke="#B060C7" stroke-width="2" stroke-linecap="round"/>
<g filter="url(#filter0_i)">
<path d="M273.174 276.089C290 280.5 300.799 304.549 280.971 315.629C256.185 329.48 232.684 309.617 245.607 304.213C258.53 298.808 272.06 324.818 255.631 334.843C239.203 344.867 204.098 335.27 212.549 323.385C221 311.5 258.271 335.394 226.661 354.19C195.05 372.986 176 354.19 189 348C202 341.81 224.424 363.311 208.075 374.497C191.725 385.684 147.606 374.546 122.143 389.063C77.8147 414.335 103.874 462.931 1.3493 544.454" stroke="url(#paint0_linear)" stroke-width="2" stroke-linecap="round"/>
</g>
<path d="M98.623 111.613C103.227 92.017 122.832 80.1052 134.338 78.1157L158.677 142.548C158.218 143.105 151.628 145.286 151.543 146.023C148.638 171.149 169.657 215.398 213.26 227.316C216.318 228.152 218.132 219.215 221.248 216.97C257.827 228.06 282.416 254.561 286.192 258.934C286.192 258.934 278.857 287.275 242.739 288.647C206.621 290.018 161.82 254.728 129.743 209.76C102.288 171.273 95.745 123.863 98.623 111.613Z" fill="#D185E7"/>
<mask id="mask0" mask-type="alpha" maskUnits="userSpaceOnUse" x="98" y="78" width="189" height="211">
<path d="M98.623 111.613C103.126 92.2043 122.832 80.1051 134.338 78.1156L158.717 142.427C158.038 142.866 151.602 145.522 151.552 145.945C148.583 171.054 169.261 215.288 212.91 227.218C217.248 228.404 217.896 216.872 223.857 214.356C259.575 225.316 282.458 254.61 286.192 258.934C286.192 258.934 278.857 287.275 242.739 288.647C206.621 290.018 161.82 254.728 129.743 209.76C102.288 171.272 95.7792 123.871 98.623 111.613Z" fill="#D185E7"/>
</mask>
<g mask="url(#mask0)">
<g filter="url(#filter1_f)">
<path d="M152.903 144.257C112.035 114.794 138.071 69.9634 138.071 69.9634L85.6284 101.363C44.9592 255.751 255.084 299.868 255.084 299.868L288.006 262.103C270.828 268.402 242.094 228.795 226.554 224.228C221.922 222.866 226.866 210.172 220.908 217.218C218.346 220.248 213.66 227.356 213.66 227.356C211.728 233.792 212.282 243.255 215.5 250C215.5 250 183.182 240.149 156.181 212.039C129.181 183.929 122.595 148.164 122.595 148.164C133.88 156.843 152.236 157.331 152.236 157.331L152.903 144.257Z" fill="#C070D7"/>
</g>
</g>
<ellipse cx="143.805" cy="111.293" rx="26.6647" ry="34.6384" transform="rotate(-22.9443 143.805 111.293)" fill="#D185E7"/>
<g filter="url(#filter2_f)">
<path d="M162.938 103.193C168.59 116.546 164.271 130.274 154.484 134.417C144.697 138.56 131.834 132.106 126.182 118.753C120.529 105.4 124.848 91.6728 134.635 87.5297C144.422 83.3866 157.285 89.8403 162.938 103.193Z" stroke="#E39FF7" stroke-width="4"/>
</g>
<ellipse cx="143.805" cy="111.293" rx="10.4917" ry="13.6291" transform="rotate(-22.9443 143.805 111.293)" fill="#B060C7"/>
<ellipse cx="139.2" cy="106.865" rx="1.07184" ry="1.39236" transform="rotate(-22.9443 139.2 106.865)" fill="#7F1F99"/>
<ellipse cx="139.2" cy="113.723" rx="1.07184" ry="1.39236" transform="rotate(-22.9443 139.2 113.723)" fill="#7F1F99"/>
<ellipse cx="143.948" cy="111.158" rx="1.07184" ry="1.39236" transform="rotate(-22.9443 143.948 111.158)" fill="#7F1F99"/>
<ellipse cx="145.034" cy="104.628" rx="1.07184" ry="1.39236" transform="rotate(-22.9443 145.034 104.628)" fill="#7F1F99"/>
<ellipse cx="149.298" cy="109.429" rx="1.07184" ry="1.39236" transform="rotate(-22.9443 149.298 109.429)" fill="#7F1F99"/>
<ellipse cx="149.298" cy="115.422" rx="1.07184" ry="1.39236" transform="rotate(-22.9443 149.298 115.422)" fill="#7F1F99"/>
<ellipse cx="144.59" cy="117.958" rx="1.07184" ry="1.39236" transform="rotate(-22.9443 144.59 117.958)" fill="#7F1F99"/>
<ellipse cx="252.287" cy="240.208" rx="39.3251" ry="24.5599" transform="rotate(35.1903 252.287 240.208)" fill="#D185E7"/>
<g filter="url(#filter3_f)">
<path d="M273.976 256.62C271.445 260.21 266.784 262.107 260.893 261.908C255.024 261.71 248.197 259.414 241.883 254.961C235.57 250.509 231.114 244.85 228.957 239.387C226.792 233.906 227.013 228.879 229.545 225.288C232.077 221.698 236.738 219.802 242.628 220C248.498 220.198 255.325 222.495 261.638 226.947C267.952 231.399 272.407 237.058 274.565 242.521C276.73 248.002 276.508 253.03 273.976 256.62Z" stroke="#E39FF7" stroke-width="4"/>
</g>
<ellipse cx="252.287" cy="240.208" rx="13.1942" ry="8.24025" transform="rotate(35.1903 252.287 240.208)" fill="#B060C7"/>
<ellipse cx="252.287" cy="240.208" rx="1.10573" ry="0.690566" transform="rotate(35.1903 252.287 240.208)" fill="#7F1F99"/>
<ellipse cx="252.287" cy="235.537" rx="1.10573" ry="0.690566" transform="rotate(35.1903 252.287 235.537)" fill="#7F1F99"/>
<ellipse cx="246.418" cy="236.666" rx="1.10573" ry="0.690566" transform="rotate(35.1903 246.418 236.666)" fill="#7F1F99"/>
<ellipse cx="248.225" cy="242.028" rx="1.10573" ry="0.690566" transform="rotate(35.1903 248.225 242.028)" fill="#7F1F99"/>
<ellipse cx="254.094" cy="245.16" rx="1.10573" ry="0.690566" transform="rotate(35.1903 254.094 245.16)" fill="#7F1F99"/>
<ellipse cx="257.494" cy="239.625" rx="1.10573" ry="0.690566" transform="rotate(35.1903 257.494 239.625)" fill="#7F1F99"/>
<ellipse cx="258.29" cy="243.886" rx="1.10573" ry="0.690566" transform="rotate(35.1903 258.29 243.886)" fill="#7F1F99"/>
<path d="M250.321 574.517L336.923 524.517L423.526 474.517L470.081 555.153C475.052 563.763 472.102 574.771 463.493 579.742L321.465 661.742C312.855 666.712 301.847 663.763 296.876 655.153L250.321 574.517Z" fill="#AF96D7"/>
<path d="M302.043 482.268C305.315 476.855 311.126 473.49 317.448 473.344L415.361 471.09C420.925 470.961 424.686 476.726 422.326 481.767L372.936 587.273L257.245 577.258C251.711 576.779 248.6 570.66 251.474 565.906L302.043 482.268Z" fill="#876CB0" stroke="#AF96D7" stroke-width="3"/>
<mask id="mask1" mask-type="alpha" maskUnits="userSpaceOnUse" x="219" y="421" width="241" height="216">
<path d="M307.188 473.394L392.602 424.082L420.679 477.69L371.449 584.698L257.867 574.174C255.862 573.988 254.056 572.884 252.977 571.184L222.105 522.519L307.188 473.394Z" fill="#6C3DB9" stroke="#7C36EE" stroke-width="3"/>
</mask>
<g mask="url(#mask1)">
<path d="M257.005 541.842C251.349 534.957 248.521 531.515 249.017 528.781C249.514 526.047 252.947 524.065 259.812 520.101L369.429 456.814C372.806 454.864 374.495 453.889 376.41 454.075C378.324 454.261 379.687 455.45 382.413 457.828C418.051 488.919 425.415 537.997 425.415 537.997L293.266 614.293C293.266 614.293 279.601 569.349 257.005 541.842Z" fill="#D4BAFD"/>
<path d="M291.115 545.342L373.945 497.52" stroke="#58368C" stroke-width="2" stroke-linecap="round"/>
<path d="M298.393 553.149L360.747 517.149" stroke="#58368C" stroke-width="2" stroke-linecap="round"/>
<path d="M350.461 484.329L375.433 469.912" stroke="#58368C" stroke-width="2" stroke-linecap="round"/>
<path d="M362.942 484.707L380.985 474.289" stroke="#58368C" stroke-width="2" stroke-linecap="round"/>
</g>
<mask id="mask2" mask-type="alpha" maskUnits="userSpaceOnUse" x="250" y="474" width="230" height="197">
<path d="M250.321 574.517L336.923 524.517L423.526 474.517L470.081 555.153C475.052 563.763 472.102 574.771 463.493 579.742L321.465 661.742C312.855 666.712 301.847 663.763 296.876 655.153L250.321 574.517Z" fill="#AF96D7"/>
</mask>
<g mask="url(#mask2)">
<g filter="url(#filter4_f)">
<path d="M388.27 556.541C378.994 563.273 387.271 561.236 387.271 561.236L467.068 574.067C467.068 574.067 397.547 549.809 388.27 556.541Z" fill="#A187CA"/>
</g>
<g filter="url(#filter5_f)">
<path d="M314.493 667.692C314.493 667.692 357.749 583.305 342.536 584.42C324.152 592.444 316.618 648.807 314.493 667.692Z" fill="#A187CA"/>
</g>
<path d="M346.231 569.406C349.816 559.094 360.421 552.97 371.145 555.022L464.75 572.931C467.48 573.453 468.093 577.086 465.686 578.476L319.272 663.008C316.865 664.398 314.025 662.05 314.938 659.425L346.231 569.406Z" fill="#AF96D7"/>
</g>
<defs>
<filter id="filter0_i" x="0.349243" y="275.089" width="292.308" height="274.366" filterUnits="userSpaceOnUse" color-interpolation-filters="sRGB">
<feFlood flood-opacity="0" result="BackgroundImageFix"/>
<feBlend mode="normal" in="SourceGraphic" in2="BackgroundImageFix" result="shape"/>
<feColorMatrix in="SourceAlpha" type="matrix" values="0 0 0 0 0 0 0 0 0 0 0 0 0 0 0 0 0 0 127 0" result="hardAlpha"/>
<feOffset dy="4"/>
<feGaussianBlur stdDeviation="2"/>
<feComposite in2="hardAlpha" operator="arithmetic" k2="-1" k3="1"/>
<feColorMatrix type="matrix" values="0 0 0 0 0.932322 0 0 0 0 0.692934 0 0 0 0 0.995833 0 0 0 1 0"/>
<feBlend mode="normal" in2="shape" result="effect1_innerShadow"/>
</filter>
<filter id="filter1_f" x="76.404" y="65.9634" width="215.602" height="237.904" filterUnits="userSpaceOnUse" color-interpolation-filters="sRGB">
<feFlood flood-opacity="0" result="BackgroundImageFix"/>
<feBlend mode="normal" in="SourceGraphic" in2="BackgroundImageFix" result="shape"/>
<feGaussianBlur stdDeviation="2" result="effect1_foregroundBlur"/>
</filter>
<filter id="filter2_f" x="109.636" y="73.1284" width="69.8473" height="75.6896" filterUnits="userSpaceOnUse" color-interpolation-filters="sRGB">
<feFlood flood-opacity="0" result="BackgroundImageFix"/>
<feBlend mode="normal" in="SourceGraphic" in2="BackgroundImageFix" result="shape"/>
<feGaussianBlur stdDeviation="2" result="effect1_foregroundBlur"/>
</filter>
<filter id="filter3_f" x="212.88" y="204.494" width="77.7606" height="72.9204" filterUnits="userSpaceOnUse" color-interpolation-filters="sRGB">
<feFlood flood-opacity="0" result="BackgroundImageFix"/>
<feBlend mode="normal" in="SourceGraphic" in2="BackgroundImageFix" result="shape"/>
<feGaussianBlur stdDeviation="2" result="effect1_foregroundBlur"/>
</filter>
<filter id="filter4_f" x="379.014" y="522.786" width="92.0538" height="88.0495" filterUnits="userSpaceOnUse" color-interpolation-filters="sRGB">
<feFlood flood-opacity="0" result="BackgroundImageFix"/>
<feBlend mode="normal" in="SourceGraphic" in2="BackgroundImageFix" result="shape"/>
<feGaussianBlur stdDeviation="2" result="effect1_foregroundBlur"/>
</filter>
<filter id="filter5_f" x="280.449" y="579.409" width="97.1254" height="92.2831" filterUnits="userSpaceOnUse" color-interpolation-filters="sRGB">
<feFlood flood-opacity="0" result="BackgroundImageFix"/>
<feBlend mode="normal" in="SourceGraphic" in2="BackgroundImageFix" result="shape"/>
<feGaussianBlur stdDeviation="2" result="effect1_foregroundBlur"/>
</filter>
<linearGradient id="paint0_linear" x1="234.085" y1="234.257" x2="146.128" y2="542.189" gradientUnits="userSpaceOnUse">
<stop offset="0.28222" stop-color="#DBC5FF"/>
<stop offset="0.93743" stop-color="#EAA2FF"/>
</linearGradient>
</defs>
</svg>
