<svg width="34" height="14" viewBox="0 0 34 14" fill="none" xmlns="http://www.w3.org/2000/svg">
<path fill-rule="evenodd" clip-rule="evenodd" d="M30.4054 11.0962C30.6057 10.7185 30.7198 10.2594 30.7456 10.1382C30.7626 10.0581 30.8061 9.87641 30.8597 9.65286C30.9137 9.4276 30.9778 9.1598 31.0353 8.9105C31.0964 8.64567 31.1545 8.38351 31.1984 8.1626C31.2203 8.0521 31.2376 7.95726 31.2498 7.88078C31.2558 7.84276 31.2601 7.81218 31.263 7.78855C31.266 7.76383 31.2667 7.75317 31.2667 7.75317C31.2758 7.58346 31.2703 7.50311 31.2232 7.3847C31.1648 7.23783 31.0119 6.96865 30.5846 6.5261C29.7869 5.70006 28.1625 4.67237 25.4995 3.85211C22.4703 2.91905 18.9477 2.61098 17.0429 2.60158L17.0342 2.60154L17.0254 2.60134C15.1293 2.55871 11.7361 2.67632 8.8659 3.45566C5.28356 4.42836 4.28421 5.16923 3.50503 5.92168C3.09626 6.31643 2.91221 6.60232 2.82603 6.78702C2.74654 6.95737 2.73306 7.07721 2.73075 7.18661C2.71468 7.94765 2.86705 8.93311 3.04021 9.77319C3.12483 10.1837 3.21069 10.5422 3.27527 10.7975C3.28475 10.835 3.29377 10.8702 3.30223 10.9029C3.30552 10.9049 3.30885 10.9068 3.31222 10.9087C3.42616 10.973 3.57893 11.0257 3.77932 10.9995C4.7625 10.827 7.77369 10.1821 8.38051 10.017C8.49359 9.98619 8.60748 9.96202 8.69735 9.94316C8.70857 9.9408 8.7195 9.93851 8.73018 9.93628C8.81303 9.91892 8.8808 9.90473 8.9495 9.88808C9.10188 9.85116 9.19561 9.81606 9.26244 9.77759C9.31822 9.74549 9.36656 9.70484 9.41381 9.6297C9.46319 9.55119 9.53097 9.40292 9.57539 9.13293C9.594 8.86413 9.66271 8.3616 9.81844 7.83846C9.97289 7.31962 10.2837 6.52832 10.9392 6.06254C11.16 5.90559 11.419 5.80896 11.6248 5.745C11.8484 5.67547 12.0993 5.61798 12.3562 5.56947C12.8709 5.47228 13.4758 5.39901 14.0692 5.34514C15.2475 5.23818 16.4819 5.19906 17.0311 5.2214C17.0907 5.22382 17.1631 5.22652 17.2465 5.22963C17.8322 5.25148 18.9646 5.29373 20.0706 5.40435C20.7008 5.4674 21.3528 5.55538 21.9077 5.68245C22.1847 5.7459 22.4609 5.82427 22.7084 5.92436C22.9386 6.01747 23.2309 6.16317 23.4628 6.40325C23.9131 6.86958 24.1671 7.30119 24.296 7.82185C24.3529 8.0517 24.3798 8.27756 24.4006 8.47386C24.4062 8.52659 24.4114 8.57786 24.4165 8.6288C24.432 8.7809 24.4472 8.93004 24.4711 9.10628C24.4855 9.21171 24.4925 9.32378 24.4972 9.39998C24.4975 9.40553 24.4979 9.41089 24.4982 9.41604C24.5038 9.50579 24.5085 9.57596 24.5167 9.64559C24.5328 9.78206 24.558 9.86961 24.5915 9.93433C24.6227 9.99441 24.7645 10.2637 25.6159 10.4008L25.6398 10.4046L25.6635 10.4096C26.2949 10.5428 27.0373 10.7065 27.7647 10.8669C28.6878 11.0705 29.5866 11.2687 30.2036 11.3925C30.2519 11.3435 30.3236 11.2504 30.4054 11.0962ZM2.41843 11.4681C1.45658 11.7417 1.45652 11.7415 1.45652 11.7415L1.45564 11.7384L1.45366 11.7314L1.44674 11.7066C1.44085 11.6853 1.43247 11.6549 1.42197 11.616C1.40097 11.5383 1.37145 11.4267 1.33634 11.2879C1.26623 11.0108 1.17328 10.6227 1.0814 10.177C0.901567 9.30456 0.710203 8.13869 0.731199 7.14439C0.738002 6.8222 0.791867 6.4166 1.01362 5.94134C1.22869 5.48043 1.57978 5.00054 2.11571 4.483C3.22593 3.41088 4.57857 2.54737 8.34183 1.52555C11.4774 0.674165 15.0852 0.557797 17.0616 0.601649C19.0994 0.612573 22.8226 0.93486 26.0882 1.94073C28.9401 2.81916 30.9097 3.98365 32.0233 5.13678C32.5515 5.68381 32.8919 6.16873 33.0816 6.64545C33.2825 7.15062 33.2799 7.56336 33.2637 7.86118C33.2453 8.20289 33.099 8.8624 32.9842 9.36001C32.9123 9.67145 32.8452 9.95022 32.7936 10.1646C32.7495 10.3481 32.7166 10.4844 32.7019 10.5536C32.6617 10.7433 32.5011 11.4134 32.1722 12.0334C32.0089 12.3413 31.7665 12.71 31.414 12.9888C31.0341 13.2893 30.51 13.492 29.8962 13.3706C29.2694 13.2465 28.2794 13.0284 27.287 12.8097C26.572 12.6522 25.8558 12.4944 25.2731 12.3713C24.0239 12.165 23.223 11.6397 22.8161 10.8552C22.6293 10.495 22.5616 10.1443 22.5304 9.87944C22.5152 9.74997 22.5077 9.63004 22.5023 9.54411L22.5021 9.54106C22.4958 9.44107 22.4929 9.40149 22.4894 9.37607C22.4604 9.16257 22.4406 8.96743 22.4246 8.80998C22.42 8.76494 22.4158 8.72299 22.4117 8.68457C22.3919 8.49795 22.376 8.38917 22.3545 8.30228C22.3276 8.19361 22.2849 8.06878 22.0515 7.82132C22.0372 7.81343 22.0079 7.79843 21.9584 7.77844C21.8446 7.73237 21.6797 7.68202 21.4612 7.63199C21.0251 7.5321 20.4678 7.45408 19.8715 7.39442C18.8341 7.29065 17.7703 7.25073 17.1784 7.22852C17.0915 7.22527 17.0148 7.22239 16.9499 7.21975C16.5212 7.20231 15.382 7.23419 14.25 7.33695C13.6882 7.38795 13.1537 7.45422 12.7273 7.53475C12.5136 7.5751 12.3434 7.61601 12.2184 7.65487C12.1384 7.67974 12.0977 7.6975 12.0843 7.70337C12.0057 7.77097 11.8607 7.98792 11.7353 8.40908C11.6164 8.80856 11.5742 9.18897 11.5696 9.28699L11.5673 9.33769L11.5598 9.38789C11.4039 10.433 10.9412 11.119 10.2601 11.511C9.95608 11.686 9.65324 11.7754 9.4205 11.8318C9.31908 11.8564 9.21897 11.8773 9.13914 11.894C9.12844 11.8963 9.1181 11.8984 9.10817 11.9005C9.01584 11.9199 8.95504 11.9333 8.90558 11.9468C8.21549 12.1346 5.10843 12.7983 4.10571 12.9727L4.09169 12.9752L4.07761 12.9772C3.33459 13.0848 2.73314 12.8786 2.32863 12.6501C2.12835 12.537 1.9726 12.4168 1.8635 12.3214C1.80854 12.2733 1.76417 12.2304 1.73065 12.1962C1.71384 12.1791 1.69966 12.1641 1.68811 12.1515L1.67274 12.1345L1.66652 12.1274L1.66378 12.1243L1.6625 12.1228C1.6625 12.1228 1.66128 12.1214 2.41843 11.4681ZM2.41843 11.4681L1.66128 12.1214L1.517 11.9541L1.45652 11.7415L2.41843 11.4681Z" fill="white"/>
</svg>
