<svg width="14" height="20" viewBox="0 0 14 20" fill="none" xmlns="http://www.w3.org/2000/svg">
<path d="M6.99999 12.5C8.65999 12.5 9.99999 11.16 9.99999 9.5V3.5C9.99999 1.84 8.65999 0.5 6.99999 0.5C5.33999 0.5 3.99999 1.84 3.99999 3.5V9.5C3.99999 11.16 5.33999 12.5 6.99999 12.5ZM12.91 9.5C12.42 9.5 12.01 9.86 11.93 10.35C11.52 12.7 9.46999 14.5 6.99999 14.5C4.52999 14.5 2.47999 12.7 2.06999 10.35C1.98999 9.86 1.57999 9.5 1.08999 9.5C0.479987 9.5 -1.35005e-05 10.04 0.0899865 10.64C0.579987 13.64 2.97999 15.99 5.99999 16.42V18.5C5.99999 19.05 6.44999 19.5 6.99999 19.5C7.54999 19.5 7.99999 19.05 7.99999 18.5V16.42C11.02 15.99 13.42 13.64 13.91 10.64C14.01 10.04 13.52 9.5 12.91 9.5Z" fill="white"/>
</svg>
