<svg width="26" height="24" viewBox="0 0 26 24" fill="none" xmlns="http://www.w3.org/2000/svg">
<path fill-rule="evenodd" clip-rule="evenodd" d="M9.06665 1.6998C6.61798 1.6998 4.63332 3.68318 4.63332 6.13027C4.63332 8.57736 6.61798 10.5607 9.06665 10.5607C11.5153 10.5607 13.5 8.57736 13.5 6.13027C13.5 3.68318 11.5153 1.6998 9.06665 1.6998ZM3.23332 6.13027C3.23332 2.90908 5.84568 0.299805 9.06665 0.299805C12.2876 0.299805 14.9 2.90908 14.9 6.13027C14.9 9.35146 12.2876 11.9607 9.06665 11.9607C5.84568 11.9607 3.23332 9.35146 3.23332 6.13027ZM19.8667 6.56647C18.2282 6.56647 16.9 7.89469 16.9 9.53314C16.9 11.1716 18.2282 12.4998 19.8667 12.4998C21.5051 12.4998 22.8333 11.1716 22.8333 9.53314C22.8333 7.89469 21.5051 6.56647 19.8667 6.56647ZM15.5 9.53314C15.5 7.1215 17.455 5.16647 19.8667 5.16647C22.2783 5.16647 24.2333 7.12149 24.2333 9.53314C24.2333 11.9448 22.2783 13.8998 19.8667 13.8998C17.455 13.8998 15.5 11.9448 15.5 9.53314ZM6.13332 14.8912C3.68486 14.8912 1.69999 16.8753 1.69999 19.3238V21.9864C1.69999 22.1521 1.8343 22.2864 1.99999 22.2864H16.1333C16.299 22.2864 16.4333 22.1521 16.4333 21.9864V19.3238C16.4333 16.8753 14.4484 14.8912 12 14.8912H6.13332ZM0.299988 19.3238C0.299988 16.1018 2.91199 13.4912 6.13332 13.4912H12C15.2213 13.4912 17.8333 16.1018 17.8333 19.3238V21.9864C17.8333 22.9253 17.0722 23.6864 16.1333 23.6864H1.99999C1.0611 23.6864 0.299988 22.9253 0.299988 21.9864V19.3238ZM19.9 15.6665C19.9 15.2799 20.2134 14.9665 20.6 14.9665H21.3333C23.745 14.9665 25.7 16.9215 25.7 19.3331V21.9998C25.7 22.9387 24.9389 23.6998 24 23.6998H20.6C20.2134 23.6998 19.9 23.3864 19.9 22.9998C19.9 22.6132 20.2134 22.2998 20.6 22.2998H24C24.1657 22.2998 24.3 22.1655 24.3 21.9998V19.3331C24.3 17.6947 22.9718 16.3665 21.3333 16.3665H20.6C20.2134 16.3665 19.9 16.0531 19.9 15.6665Z" fill="white"/>
</svg>
