<svg width="20" height="18" viewBox="0 0 20 18" fill="none" xmlns="http://www.w3.org/2000/svg">
<path d="M18 2H14.83L13.59 0.65C13.22 0.24 12.68 0 12.12 0H7.88C7.32 0 6.78 0.24 6.4 0.65L5.17 2H2C0.9 2 0 2.9 0 4V16C0 17.1 0.9 18 2 18H18C19.1 18 20 17.1 20 16V4C20 2.9 19.1 2 18 2ZM11.67 14.7C11.15 14.89 10.59 15 10 15C7.24 15 5 12.76 5 10H3L5.5 7.5L8 10H6C6 12.21 7.79 14 10 14C10.46 14 10.91 13.92 11.32 13.77C11.51 13.7 11.71 13.74 11.85 13.88C12.11 14.14 12.01 14.57 11.67 14.7ZM14.5 12.5L12 10H14C14 7.79 12.21 6 10 6C9.54 6 9.09 6.08 8.68 6.23C8.49 6.3 8.29 6.26 8.15 6.12C7.89 5.86 7.99 5.43 8.33 5.3C8.85 5.11 9.41 5 10 5C12.76 5 15 7.24 15 10H17L14.5 12.5Z" fill="white"/>
</svg>
