<svg width="20" height="18" viewBox="0 0 20 18" fill="none" xmlns="http://www.w3.org/2000/svg">
<path d="M17.5944 0.449511L1.79902 1.50458C1.07387 1.58347 0.485571 2.0726 0.263665 2.78091C0.0418009 3.48928 0.231064 4.2741 0.757642 4.82902L3.83108 8.06805C4.46761 8.73887 5.48103 8.88584 6.28189 8.42346L10.8958 5.75963C11.1709 5.60077 11.5308 5.70894 11.6996 6.00129C11.8684 6.29359 11.7822 6.65939 11.507 6.81827L6.89309 9.4821C6.09224 9.94448 5.7128 10.8956 5.97548 11.7823L7.24383 16.0634C7.46114 16.797 8.04614 17.3533 8.77056 17.5153C9.4964 17.6776 10.2134 17.4112 10.6436 16.8238C10.6436 16.8238 18.9893 4.30816 19.455 3.67212C19.9207 3.03609 19.9523 2.19463 19.5375 1.47611C19.1226 0.757586 18.3781 0.36416 17.5944 0.449511Z" fill="white"/>
</svg>
