<svg width="14" height="20" viewBox="0 0 14 20" fill="none" xmlns="http://www.w3.org/2000/svg">
<path fill-rule="evenodd" clip-rule="evenodd" d="M2.91992 3.51583L10.7109 11.3068C10.976 10.7622 11.1247 10.1504 11.1247 9.50393V4.12473C11.1247 1.8467 9.27804 0 7.00002 0C4.92887 0 3.21426 1.52652 2.91992 3.51583ZM9.07783 13.0679L2.87529 6.86531V9.50393C2.87529 11.782 4.72199 13.6287 7.00002 13.6287C7.7577 13.6287 8.46766 13.4244 9.07783 13.0679ZM9.65687 13.6469L10.615 14.605C9.76875 15.2191 8.7606 15.6233 7.66668 15.7411V18.6667H9.59356C9.96175 18.6667 10.2602 18.9651 10.2602 19.3333C10.2602 19.7015 9.96175 20 9.59356 20H4.40648C4.03829 20 3.73981 19.7015 3.73981 19.3333C3.73981 18.9651 4.03829 18.6667 4.40648 18.6667H6.33335V15.7411C3.23974 15.408 0.832031 12.7838 0.832031 9.60332C0.832031 9.23513 1.13051 8.93666 1.4987 8.93666C1.86689 8.93666 2.16536 9.23513 2.16536 9.60332C2.16536 12.2743 4.33077 14.4434 7.00001 14.4434C7.98123 14.4434 8.89436 14.1503 9.65687 13.6469ZM12.2493 12.8452L11.2728 11.8687C11.6315 11.1926 11.8347 10.4215 11.8347 9.60332C11.8347 9.23513 12.1331 8.93666 12.5013 8.93666C12.8695 8.93666 13.168 9.23513 13.168 9.60332C13.168 10.7918 12.8318 11.9026 12.2493 12.8452Z" fill="#F96060"/>
</svg>
