<svg width="20" height="18" viewBox="0 0 20 18" fill="none" xmlns="http://www.w3.org/2000/svg">
<path d="M7.22686 3.16057L7.22687 3.16055C7.73057 2.21059 8.71255 1.61267 9.78577 1.59963C9.78641 1.59962 9.78704 1.59962 9.78768 1.59961L9.82166 1.59941H9.82368H16.1167C17.7388 1.59941 19.0537 2.91435 19.0537 4.5364V13.4636C19.0537 15.0856 17.7388 16.4005 16.1167 16.4005H9.82939C8.73315 16.4005 7.72815 15.79 7.22292 14.8171L7.22291 14.8171L6.46831 13.3642L6.03524 12.5303L5.36018 13.1839L3.96396 14.5357C3.26552 15.212 2.15553 15.2016 1.46999 14.5181L1.44548 14.4932C1.12523 14.1614 0.946216 13.7183 0.946216 13.2571V4.72364C0.946216 3.74071 1.74304 2.94388 2.72598 2.94388C3.18077 2.94388 3.6183 3.11798 3.94876 3.43044L3.94876 3.43044L5.3684 4.77276L6.0368 5.40476L6.46776 4.59207L7.22686 3.16057Z" stroke="white" stroke-width="1.4"/>
</svg>
