<svg width="23" height="22" viewBox="0 0 23 22" fill="none" xmlns="http://www.w3.org/2000/svg">
<path fill-rule="evenodd" clip-rule="evenodd" d="M5.46014 18.4324L4.52784 17.3849C3.01718 15.6875 2.10057 13.4528 2.10057 11C2.10057 5.69632 6.39388 1.4 11.686 1.4C16.9782 1.4 21.2715 5.69632 21.2715 11C21.2715 16.3037 16.9782 20.6 11.686 20.6H3.01652L5.46014 18.4324ZM0.313847 21.1259C-0.0302887 21.4312 0.185165 22 0.645178 22H11.686C17.7531 22 22.6715 17.0751 22.6715 11C22.6715 4.92487 17.7531 0 11.686 0C5.61893 0 0.700571 4.92487 0.700571 11C0.700571 13.7956 1.74208 16.3476 3.45776 18.2883C3.46584 18.2974 3.47393 18.3065 3.48204 18.3157L0.313847 21.1259Z" fill="white"/>
</svg>
