<svg width="22" height="22" viewBox="0 0 22 22" fill="none" xmlns="http://www.w3.org/2000/svg">
<g opacity="0.5">
<path d="M7.625 11C8.24632 11 8.75 10.4963 8.75 9.875C8.75 9.25368 8.24632 8.75 7.625 8.75C7.00368 8.75 6.5 9.25368 6.5 9.875C6.5 10.4963 7.00368 11 7.625 11Z" fill="white"/>
<path d="M11.0024 17.0015C8.87337 17.0015 7.08274 15.6173 6.51602 13.7282C6.50017 13.672 6.49768 13.6129 6.50873 13.5555C6.51978 13.4982 6.54407 13.4442 6.57968 13.3979C6.61528 13.3516 6.66121 13.3142 6.7138 13.2888C6.76639 13.2634 6.82419 13.2506 6.88259 13.2515H15.1181C15.1765 13.2506 15.2343 13.2634 15.2868 13.2888C15.3394 13.3142 15.3854 13.3516 15.421 13.3979C15.4566 13.4442 15.4809 13.4982 15.4919 13.5555C15.503 13.6129 15.5005 13.672 15.4846 13.7282C14.9226 15.6173 13.1315 17.0015 11.0024 17.0015Z" fill="white"/>
<path d="M14.375 11C14.9963 11 15.5 10.4963 15.5 9.875C15.5 9.25368 14.9963 8.75 14.375 8.75C13.7537 8.75 13.25 9.25368 13.25 9.875C13.25 10.4963 13.7537 11 14.375 11Z" fill="white"/>
<path d="M11 20.75C16.3848 20.75 20.75 16.3848 20.75 11C20.75 5.61522 16.3848 1.25 11 1.25C5.61522 1.25 1.25 5.61522 1.25 11C1.25 16.3848 5.61522 20.75 11 20.75Z" stroke="white" stroke-width="1.5" stroke-miterlimit="10"/>
</g>
</svg>
