<svg width="26" height="26" viewBox="0 0 26 26" fill="none" xmlns="http://www.w3.org/2000/svg">
<path fill-rule="evenodd" clip-rule="evenodd" d="M13 24.6C19.4065 24.6 24.6 19.4065 24.6 13C24.6 6.5935 19.4065 1.4 13 1.4C6.5935 1.4 1.4 6.5935 1.4 13C1.4 19.4065 6.5935 24.6 13 24.6ZM13 26C20.1797 26 26 20.1797 26 13C26 5.8203 20.1797 0 13 0C5.8203 0 0 5.8203 0 13C0 20.1797 5.8203 26 13 26Z" fill="white"/>
<path d="M20.5833 12.9998C20.5833 17.188 17.1881 20.5832 13 20.5832C8.8118 20.5832 5.41663 17.188 5.41663 12.9998C5.41663 8.81168 8.8118 5.4165 13 5.4165C17.1881 5.4165 20.5833 8.81168 20.5833 12.9998Z" fill="white"/>
</svg>
