<svg width="26" height="26" viewBox="0 0 26 26" fill="none" xmlns="http://www.w3.org/2000/svg">
<path fill-rule="evenodd" clip-rule="evenodd" d="M23.7977 23.5984C22.5483 24.9401 20.7609 25.6997 18.6226 25.6997L7.37629 25.6997C5.23793 25.6997 3.45079 24.9401 2.20176 23.5983C0.958002 22.2622 0.300074 20.4058 0.300074 18.2979L0.300074 7.70155C0.300074 5.59264 0.961824 3.73636 2.20697 2.40071C3.45719 1.05961 5.24391 0.299707 7.37629 0.299707L18.6226 0.299707C20.7609 0.299707 22.5483 1.05928 23.7977 2.40101C25.0418 3.7371 25.7001 5.59352 25.7001 7.70155L25.7001 18.2979C25.7001 20.4059 25.0418 22.2623 23.7977 23.5984ZM22.7731 22.6444C23.735 21.6113 24.3001 20.1168 24.3001 18.2979L24.3001 7.70155C24.3001 5.88265 23.735 4.38815 22.7731 3.35505C21.8164 2.32759 20.415 1.69971 18.6226 1.69971L7.37629 1.69971C5.59083 1.69971 4.18944 2.32726 3.23101 3.35535C2.26751 4.38889 1.70007 5.88353 1.70007 7.70155L1.70007 18.2979C1.70007 20.1169 2.26485 21.6114 3.2265 22.6444C4.18287 23.6718 5.58384 24.2997 7.37629 24.2997L18.6226 24.2997C20.415 24.2997 21.8164 23.6718 22.7731 22.6444Z" fill="white"/>
<path fill-rule="evenodd" clip-rule="evenodd" d="M13.0001 19C12.6135 19 12.3001 18.6866 12.3001 18.3L12.3001 7.69849C12.3001 7.31189 12.6135 6.99849 13.0001 6.99849C13.3867 6.99849 13.7001 7.31189 13.7001 7.69849L13.7001 18.3C13.7001 18.6866 13.3867 19 13.0001 19Z" fill="white"/>
<path fill-rule="evenodd" clip-rule="evenodd" d="M18.3563 13.0773C18.0823 13.3501 17.6391 13.3491 17.3664 13.0752L13.0001 8.69029L8.63387 13.0752C8.36108 13.3491 7.91787 13.3501 7.64392 13.0773C7.36997 12.8045 7.36903 12.3613 7.64181 12.0873L12.5041 7.2043C12.6354 7.07238 12.8139 6.99822 13.0001 6.99822C13.1863 6.99822 13.3648 7.07238 13.4961 7.2043L18.3584 12.0873C18.6312 12.3613 18.6302 12.8045 18.3563 13.0773Z" fill="white"/>
</svg>
