<svg width="32" height="32" viewBox="0 0 32 32" fill="none" xmlns="http://www.w3.org/2000/svg">
<path d="M9.29364 9.8586L10.2485 10.7615L10.8642 9.60047L11.965 7.5245L11.965 7.52447C12.6981 6.14191 14.1273 5.27172 15.6892 5.25276L15.7443 5.25244H24.8706C27.2313 5.25244 29.145 7.16616 29.145 9.52685V22.4731C29.145 24.8338 27.2313 26.7475 24.8706 26.7475H15.7526C14.1572 26.7475 12.6945 25.859 11.9592 24.4431L11.9592 24.443L10.8649 22.336L10.2462 21.1448L9.28186 22.0785L7.25704 24.0389C6.23818 25.0253 4.61897 25.0101 3.61895 24.013L3.58331 23.9768C3.11613 23.4929 2.85498 22.8464 2.85498 22.1737V9.79838C2.85498 8.36455 4.01733 7.2022 5.45117 7.2022C6.11458 7.2022 6.75282 7.45616 7.23486 7.91195L7.92191 7.18534L7.23486 7.91196L9.29364 9.8586Z" stroke="white" stroke-width="2"/>
</svg>
