<svg width="12" height="12" viewBox="0 0 12 12" fill="none" xmlns="http://www.w3.org/2000/svg">
<rect x="0.611816" y="1.20508" width="0.84" height="14.4" rx="0.42" transform="rotate(-45 0.611816 1.20508)" fill="#F96060"/>
<path fill-rule="evenodd" clip-rule="evenodd" d="M3.5519 2.10885L8.22664 6.78359C8.38555 6.45692 8.4747 6.09005 8.4747 5.70236V2.47484C8.4747 1.10802 7.36668 0 5.99986 0C4.7574 0 3.72878 0.915579 3.5519 2.10885ZM7.24703 7.84044L3.52503 4.11844V5.70236C3.52503 7.06917 4.63305 8.17719 5.99986 8.17719C6.45467 8.17719 6.88082 8.05451 7.24703 7.84044ZM7.59443 8.18784L8.16929 8.76271C7.66145 9.13129 7.0564 9.37396 6.39986 9.44464V11.2H7.55599C7.77691 11.2 7.95599 11.3791 7.95599 11.6C7.95599 11.8209 7.77691 12 7.55599 12H4.44374C4.22282 12 4.04374 11.8209 4.04374 11.6C4.04374 11.3791 4.22282 11.2 4.44374 11.2H5.59986V9.44464C3.7437 9.24481 2.29907 7.67029 2.29907 5.76199C2.29907 5.54108 2.47816 5.36199 2.69907 5.36199C2.91999 5.36199 3.09907 5.54108 3.09907 5.76199C3.09907 7.36457 4.39831 8.66605 5.99986 8.66605C6.58878 8.66605 7.13683 8.49006 7.59443 8.18784ZM9.14969 7.70664L8.56381 7.12075C8.77883 6.71521 8.90065 6.25272 8.90065 5.76199C8.90065 5.54108 9.07974 5.36199 9.30065 5.36199C9.52157 5.36199 9.70065 5.54108 9.70065 5.76199C9.70065 6.47488 9.49905 7.14118 9.14969 7.70664Z" fill="#F96060"/>
</svg>
