<svg width="19" height="30" viewBox="0 0 19 30" fill="none" xmlns="http://www.w3.org/2000/svg">
<path fill-rule="evenodd" clip-rule="evenodd" d="M3.06489 6.18709C3.06489 2.77005 5.83494 0 9.25198 0C12.669 0 15.4391 2.77005 15.4391 6.18709V14.2559C15.4391 17.6729 12.669 20.443 9.25198 20.443C5.83494 20.443 3.06489 17.6729 3.06489 14.2559V6.18709ZM9.25198 2C6.93951 2 5.06489 3.87462 5.06489 6.18709V14.2559C5.06489 16.5684 6.93951 18.443 9.25198 18.443C11.5644 18.443 13.4391 16.5684 13.4391 14.2559V6.18709C13.4391 3.87462 11.5644 2 9.25198 2ZM1 13.405C1.55228 13.405 2 13.8527 2 14.405C2 18.4114 5.24811 21.6651 9.25198 21.6651C13.2558 21.6651 16.504 18.4114 16.504 14.405C16.504 13.8527 16.9517 13.405 17.504 13.405C18.0562 13.405 18.504 13.8527 18.504 14.405C18.504 19.1757 14.8924 23.112 10.252 23.6116V28H13.1423C13.6946 28 14.1423 28.4477 14.1423 29C14.1423 29.5523 13.6946 30 13.1423 30H5.36167C4.80938 30 4.36167 29.5523 4.36167 29C4.36167 28.4477 4.80938 28 5.36167 28H8.25198V23.6116C3.61156 23.112 0 19.1757 0 14.405C0 13.8527 0.447715 13.405 1 13.405Z" fill="white"/>
</svg>
