<svg width="4" height="14" viewBox="0 0 4 14" fill="none" xmlns="http://www.w3.org/2000/svg">
<path d="M2 3C2.825 3 3.5 2.325 3.5 1.5C3.5 0.675 2.825 0 2 0C1.175 0 0.5 0.675 0.5 1.5C0.5 2.325 1.175 3 2 3Z" fill="white"/>
<path d="M2 5.5C1.175 5.5 0.5 6.175 0.5 7C0.5 7.825 1.175 8.5 2 8.5C2.825 8.5 3.5 7.825 3.5 7C3.5 6.175 2.825 5.5 2 5.5Z" fill="white"/>
<path d="M0.5 12.5C0.5 11.675 1.175 11 2 11C2.825 11 3.5 11.675 3.5 12.5C3.5 13.325 2.825 14 2 14C1.175 14 0.5 13.325 0.5 12.5Z" fill="white"/>
</svg>
