<svg width="14" height="20" viewBox="0 0 14 20" fill="none" xmlns="http://www.w3.org/2000/svg">
<path fill-rule="evenodd" clip-rule="evenodd" d="M2.87529 4.12473C2.87529 1.8467 4.72199 0 7.00002 0C9.27804 0 11.1247 1.8467 11.1247 4.12473V9.50393C11.1247 11.782 9.27804 13.6287 7.00002 13.6287C4.72199 13.6287 2.87529 11.782 2.87529 9.50393V4.12473ZM7.00002 1.33333C5.45837 1.33333 4.20862 2.58308 4.20862 4.12473V9.50393C4.20862 11.0456 5.45837 12.2953 7.00002 12.2953C8.54166 12.2953 9.79141 11.0456 9.79141 9.50393V4.12473C9.79141 2.58308 8.54166 1.33333 7.00002 1.33333ZM1.4987 8.93666C1.86689 8.93666 2.16536 9.23513 2.16536 9.60332C2.16536 12.2743 4.33077 14.4434 7.00001 14.4434C9.66926 14.4434 11.8347 12.2743 11.8347 9.60332C11.8347 9.23513 12.1331 8.93666 12.5013 8.93666C12.8695 8.93666 13.168 9.23513 13.168 9.60332C13.168 12.7838 10.7603 15.408 7.66668 15.7411V18.6667H9.59356C9.96175 18.6667 10.2602 18.9651 10.2602 19.3333C10.2602 19.7015 9.96175 20 9.59356 20H4.40648C4.03829 20 3.73981 19.7015 3.73981 19.3333C3.73981 18.9651 4.03829 18.6667 4.40648 18.6667H6.33335V15.7411C3.23974 15.408 0.832031 12.7838 0.832031 9.60332C0.832031 9.23513 1.13051 8.93666 1.4987 8.93666Z" fill="white"/>
</svg>
