<svg width="120" height="120" viewBox="0 0 120 120" fill="none" xmlns="http://www.w3.org/2000/svg">
<path fill-rule="evenodd" clip-rule="evenodd" d="M56.8193 53.7104H59.2764C68.5591 53.7104 76.1865 46.6236 77.0435 37.5652C78.0039 39.3937 78.5474 41.4755 78.5474 43.6842C78.5474 47.0489 77.2863 50.1191 75.211 52.4478L78.2194 55.1128C78.9083 55.7231 78.4798 56.8613 77.5594 56.8613H65.3703C62.107 56.8613 59.1208 55.6751 56.8193 53.7104Z" fill="#C036EE"/>
<g filter="url(#filter0_i)">
<path d="M43.1609 35.863C43.1609 39.9485 44.6921 43.6764 47.212 46.504L43.1363 50.1145C42.4474 50.7248 42.8742 51.863 43.7945 51.863C48.3356 51.863 57.3329 51.863 59.1609 51.863C67.9974 51.863 75.1609 44.6996 75.1609 35.863C75.1609 27.0265 67.9974 19.863 59.1609 19.863C50.3243 19.863 43.1609 27.0265 43.1609 35.863Z" fill="#FF699E"/>
</g>
<mask id="mask0" mask-type="alpha" maskUnits="userSpaceOnUse" x="42" y="19" width="34" height="33">
<path d="M43.161 35.863C43.161 39.9485 44.6922 43.6764 47.2121 46.504L43.1364 50.1145C42.4475 50.7248 42.8743 51.863 43.7947 51.863C48.3357 51.863 57.333 51.863 59.161 51.863C67.9976 51.863 75.161 44.6996 75.161 35.863C75.161 27.0265 67.9976 19.863 59.161 19.863C50.3244 19.863 43.161 27.0265 43.161 35.863Z" fill="#FF699E"/>
</mask>
<g mask="url(#mask0)">
<g filter="url(#filter1_f)">
<path d="M68.3523 22.5806C54.3019 12.7459 40.9402 25.0818 43.1411 37.087C49.8441 25.0817 61.8272 22.638 68.3523 22.5806Z" fill="#FBA7C5"/>
</g>
</g>
<g filter="url(#filter2_i)">
<path fill-rule="evenodd" clip-rule="evenodd" d="M91.25 87.4H88.75C85.5647 87.4 83.311 87.4016 81.5454 87.537C79.8053 87.6704 78.738 87.9232 77.8955 88.3217C75.8877 89.2713 74.2713 90.8877 73.3217 92.8955C72.9232 93.738 72.6704 94.8053 72.537 96.5454C72.4016 98.311 72.4 100.565 72.4 103.75C72.4 104.836 72.4016 105.516 72.441 106.029C72.4784 106.517 72.5392 106.654 72.5536 106.684C72.7119 107.019 72.9813 107.288 73.3159 107.446C73.3464 107.461 73.483 107.522 73.9708 107.559C74.484 107.598 75.1635 107.6 76.25 107.6H103.75C104.836 107.6 105.516 107.598 106.029 107.559C106.517 107.522 106.654 107.461 106.684 107.446C107.019 107.288 107.288 107.019 107.446 106.684C107.461 106.654 107.522 106.517 107.559 106.029C107.598 105.516 107.6 104.836 107.6 103.75C107.6 100.565 107.598 98.311 107.463 96.5454C107.33 94.8053 107.077 93.738 106.678 92.8955C105.729 90.8877 104.112 89.2713 102.105 88.3217C101.262 87.9232 100.195 87.6704 98.4546 87.537C96.689 87.4016 94.4353 87.4 91.25 87.4ZM71.1521 91.8693C70 94.3053 70 97.4535 70 103.75C70 105.849 70 106.898 70.384 107.71C70.7797 108.547 71.4532 109.22 72.2898 109.616C73.1018 110 74.1512 110 76.25 110H103.75C105.849 110 106.898 110 107.71 109.616C108.547 109.22 109.22 108.547 109.616 107.71C110 106.898 110 105.849 110 103.75C110 97.4535 110 94.3053 108.848 91.8693C107.661 89.3596 105.64 87.3391 103.131 86.1521C100.695 85 97.5465 85 91.25 85H88.75C82.4535 85 79.3053 85 76.8693 86.1521C74.3596 87.3391 72.3391 89.3596 71.1521 91.8693Z" fill="#C036EE"/>
</g>
<g filter="url(#filter3_i)">
<path fill-rule="evenodd" clip-rule="evenodd" d="M97.6 71V66C97.6 61.8026 94.1974 58.4 90 58.4C85.8026 58.4 82.4 61.8026 82.4 66V71C82.4 75.1974 85.8026 78.6 90 78.6C94.1974 78.6 97.6 75.1974 97.6 71ZM90 56C84.4772 56 80 60.4772 80 66V71C80 76.5228 84.4772 81 90 81C95.5228 81 100 76.5228 100 71V66C100 60.4772 95.5228 56 90 56Z" fill="#C036EE"/>
</g>
<g filter="url(#filter4_i)">
<path fill-rule="evenodd" clip-rule="evenodd" d="M85 68.8C85.6627 68.8 86.2 69.3373 86.2 70C86.2 72.0987 87.9013 73.8 90 73.8C92.0987 73.8 93.8 72.0987 93.8 70C93.8 69.3373 94.3373 68.8 95 68.8C95.6627 68.8 96.2 69.3373 96.2 70C96.2 73.4242 93.4242 76.2 90 76.2C86.5758 76.2 83.8 73.4242 83.8 70C83.8 69.3373 84.3373 68.8 85 68.8Z" fill="#C036EE"/>
</g>
<g filter="url(#filter5_i)">
<path fill-rule="evenodd" clip-rule="evenodd" d="M31.25 87.4H28.75C25.5647 87.4 23.311 87.4016 21.5454 87.537C19.8053 87.6704 18.738 87.9232 17.8955 88.3217C15.8877 89.2713 14.2713 90.8877 13.3217 92.8955C12.9232 93.738 12.6704 94.8053 12.537 96.5454C12.4016 98.311 12.4 100.565 12.4 103.75C12.4 104.836 12.4016 105.516 12.441 106.029C12.4784 106.517 12.5392 106.654 12.5536 106.684C12.7119 107.019 12.9813 107.288 13.3159 107.446C13.3464 107.461 13.483 107.522 13.9708 107.559C14.484 107.598 15.1635 107.6 16.25 107.6H43.75C44.8365 107.6 45.516 107.598 46.0292 107.559C46.517 107.522 46.6536 107.461 46.6841 107.446C47.0187 107.288 47.2881 107.019 47.4464 106.684C47.4608 106.654 47.5216 106.517 47.559 106.029C47.5984 105.516 47.6 104.836 47.6 103.75C47.6 100.565 47.5984 98.311 47.463 96.5454C47.3296 94.8053 47.0768 93.738 46.6783 92.8955C45.7287 90.8877 44.1123 89.2713 42.1045 88.3217C41.262 87.9232 40.1947 87.6704 38.4546 87.537C36.689 87.4016 34.4353 87.4 31.25 87.4ZM11.1521 91.8693C10 94.3053 10 97.4535 10 103.75C10 105.849 10 106.898 10.384 107.71C10.7797 108.547 11.4532 109.22 12.2898 109.616C13.1018 110 14.1512 110 16.25 110H43.75C45.8488 110 46.8982 110 47.7102 109.616C48.5468 109.22 49.2203 108.547 49.616 107.71C50 106.898 50 105.849 50 103.75C50 97.4535 50 94.3053 48.8479 91.8693C47.6609 89.3596 45.6404 87.3391 43.1307 86.1521C40.6947 85 37.5465 85 31.25 85H28.75C22.4535 85 19.3053 85 16.8693 86.1521C14.3596 87.3391 12.3391 89.3596 11.1521 91.8693Z" fill="#FF699E"/>
</g>
<g filter="url(#filter6_i)">
<path fill-rule="evenodd" clip-rule="evenodd" d="M42.5284 60.5418C41.0519 60.5418 39.7921 61.4829 39.322 62.8017C39.0995 63.426 38.413 63.7517 37.7887 63.5291C37.1645 63.3066 36.8388 62.6201 37.0613 61.9959C37.8614 59.7514 40.0054 58.1418 42.5284 58.1418C45.7332 58.1418 48.3312 60.7398 48.3312 63.9446C48.3312 65.198 48.1189 66.2642 47.8651 67.2484C47.7659 67.6332 47.6673 67.9831 47.5718 68.3222C47.4104 68.8955 47.2576 69.438 47.1249 70.0656C46.7373 71.8987 46.6063 74.1722 47.8096 77.967L48.7545 80.947L46.0583 79.3647C42.881 77.5 39.9154 75.0331 38.0898 71.6526C37.7748 71.0695 37.9923 70.3414 38.5754 70.0265C39.1585 69.7116 39.8866 69.929 40.2015 70.5121C41.2823 72.5135 42.8664 74.1876 44.7399 75.6099C44.2808 73.0931 44.429 71.2142 44.7768 69.5691C44.9233 68.8763 45.1169 68.1854 45.2935 67.5554C45.3832 67.235 45.4686 66.9303 45.5411 66.6491C45.7694 65.7641 45.9312 64.9159 45.9312 63.9446C45.9312 62.0653 44.4077 60.5418 42.5284 60.5418Z" fill="#FF699E"/>
</g>
<g filter="url(#filter7_i)">
<path fill-rule="evenodd" clip-rule="evenodd" d="M37.6 71V66C37.6 61.8026 34.1974 58.4 30 58.4C25.8026 58.4 22.4 61.8026 22.4 66V71C22.4 75.1974 25.8026 78.6 30 78.6C34.1974 78.6 37.6 75.1974 37.6 71ZM30 56C24.4772 56 20 60.4772 20 66V71C20 76.5228 24.4772 81 30 81C35.5228 81 40 76.5228 40 71V66C40 60.4772 35.5228 56 30 56Z" fill="#FF699E"/>
</g>
<g filter="url(#filter8_i)">
<path fill-rule="evenodd" clip-rule="evenodd" d="M25 68.8C25.6627 68.8 26.2 69.3373 26.2 70C26.2 72.0987 27.9013 73.8 30 73.8C32.0987 73.8 33.8 72.0987 33.8 70C33.8 69.3373 34.3373 68.8 35 68.8C35.6627 68.8 36.2 69.3373 36.2 70C36.2 73.4242 33.4242 76.2 30 76.2C26.5758 76.2 23.8 73.4242 23.8 70C23.8 69.3373 24.3373 68.8 25 68.8Z" fill="#FF699E"/>
</g>
<defs>
<filter id="filter0_i" x="42.7961" y="19.863" width="32.3648" height="36" filterUnits="userSpaceOnUse" color-interpolation-filters="sRGB">
<feFlood flood-opacity="0" result="BackgroundImageFix"/>
<feBlend mode="normal" in="SourceGraphic" in2="BackgroundImageFix" result="shape"/>
<feColorMatrix in="SourceAlpha" type="matrix" values="0 0 0 0 0 0 0 0 0 0 0 0 0 0 0 0 0 0 127 0" result="hardAlpha"/>
<feOffset dy="4"/>
<feGaussianBlur stdDeviation="4"/>
<feComposite in2="hardAlpha" operator="arithmetic" k2="-1" k3="1"/>
<feColorMatrix type="matrix" values="0 0 0 0 1 0 0 0 0 0.645117 0 0 0 0 0.770509 0 0 0 1 0"/>
<feBlend mode="normal" in2="shape" result="effect1_innerShadow"/>
</filter>
<filter id="filter1_f" x="38.9021" y="15.0089" width="33.4501" height="26.0781" filterUnits="userSpaceOnUse" color-interpolation-filters="sRGB">
<feFlood flood-opacity="0" result="BackgroundImageFix"/>
<feBlend mode="normal" in="SourceGraphic" in2="BackgroundImageFix" result="shape"/>
<feGaussianBlur stdDeviation="2" result="effect1_foregroundBlur"/>
</filter>
<filter id="filter2_i" x="70" y="85" width="40" height="26" filterUnits="userSpaceOnUse" color-interpolation-filters="sRGB">
<feFlood flood-opacity="0" result="BackgroundImageFix"/>
<feBlend mode="normal" in="SourceGraphic" in2="BackgroundImageFix" result="shape"/>
<feColorMatrix in="SourceAlpha" type="matrix" values="0 0 0 0 0 0 0 0 0 0 0 0 0 0 0 0 0 0 127 0" result="hardAlpha"/>
<feOffset dy="1"/>
<feGaussianBlur stdDeviation="0.5"/>
<feComposite in2="hardAlpha" operator="arithmetic" k2="-1" k3="1"/>
<feColorMatrix type="matrix" values="0 0 0 0 0.681458 0 0 0 0 0.420833 0 0 0 0 1 0 0 0 1 0"/>
<feBlend mode="normal" in2="shape" result="effect1_innerShadow"/>
</filter>
<filter id="filter3_i" x="80" y="56" width="20" height="26" filterUnits="userSpaceOnUse" color-interpolation-filters="sRGB">
<feFlood flood-opacity="0" result="BackgroundImageFix"/>
<feBlend mode="normal" in="SourceGraphic" in2="BackgroundImageFix" result="shape"/>
<feColorMatrix in="SourceAlpha" type="matrix" values="0 0 0 0 0 0 0 0 0 0 0 0 0 0 0 0 0 0 127 0" result="hardAlpha"/>
<feOffset dy="1"/>
<feGaussianBlur stdDeviation="0.5"/>
<feComposite in2="hardAlpha" operator="arithmetic" k2="-1" k3="1"/>
<feColorMatrix type="matrix" values="0 0 0 0 0.681458 0 0 0 0 0.420833 0 0 0 0 1 0 0 0 1 0"/>
<feBlend mode="normal" in2="shape" result="effect1_innerShadow"/>
</filter>
<filter id="filter4_i" x="83.8" y="68.8" width="12.4" height="8.4" filterUnits="userSpaceOnUse" color-interpolation-filters="sRGB">
<feFlood flood-opacity="0" result="BackgroundImageFix"/>
<feBlend mode="normal" in="SourceGraphic" in2="BackgroundImageFix" result="shape"/>
<feColorMatrix in="SourceAlpha" type="matrix" values="0 0 0 0 0 0 0 0 0 0 0 0 0 0 0 0 0 0 127 0" result="hardAlpha"/>
<feOffset dy="1"/>
<feGaussianBlur stdDeviation="0.5"/>
<feComposite in2="hardAlpha" operator="arithmetic" k2="-1" k3="1"/>
<feColorMatrix type="matrix" values="0 0 0 0 0.681458 0 0 0 0 0.420833 0 0 0 0 1 0 0 0 1 0"/>
<feBlend mode="normal" in2="shape" result="effect1_innerShadow"/>
</filter>
<filter id="filter5_i" x="10" y="85" width="40" height="26" filterUnits="userSpaceOnUse" color-interpolation-filters="sRGB">
<feFlood flood-opacity="0" result="BackgroundImageFix"/>
<feBlend mode="normal" in="SourceGraphic" in2="BackgroundImageFix" result="shape"/>
<feColorMatrix in="SourceAlpha" type="matrix" values="0 0 0 0 0 0 0 0 0 0 0 0 0 0 0 0 0 0 127 0" result="hardAlpha"/>
<feOffset dy="1"/>
<feGaussianBlur stdDeviation="0.5"/>
<feComposite in2="hardAlpha" operator="arithmetic" k2="-1" k3="1"/>
<feColorMatrix type="matrix" values="0 0 0 0 1 0 0 0 0 0.570833 0 0 0 0 0.722472 0 0 0 1 0"/>
<feBlend mode="normal" in2="shape" result="effect1_innerShadow"/>
</filter>
<filter id="filter6_i" x="36.9913" y="58.1418" width="11.7632" height="23.8052" filterUnits="userSpaceOnUse" color-interpolation-filters="sRGB">
<feFlood flood-opacity="0" result="BackgroundImageFix"/>
<feBlend mode="normal" in="SourceGraphic" in2="BackgroundImageFix" result="shape"/>
<feColorMatrix in="SourceAlpha" type="matrix" values="0 0 0 0 0 0 0 0 0 0 0 0 0 0 0 0 0 0 127 0" result="hardAlpha"/>
<feOffset dy="1"/>
<feGaussianBlur stdDeviation="0.5"/>
<feComposite in2="hardAlpha" operator="arithmetic" k2="-1" k3="1"/>
<feColorMatrix type="matrix" values="0 0 0 0 1 0 0 0 0 0.570833 0 0 0 0 0.722472 0 0 0 1 0"/>
<feBlend mode="normal" in2="shape" result="effect1_innerShadow"/>
</filter>
<filter id="filter7_i" x="20" y="56" width="20" height="26" filterUnits="userSpaceOnUse" color-interpolation-filters="sRGB">
<feFlood flood-opacity="0" result="BackgroundImageFix"/>
<feBlend mode="normal" in="SourceGraphic" in2="BackgroundImageFix" result="shape"/>
<feColorMatrix in="SourceAlpha" type="matrix" values="0 0 0 0 0 0 0 0 0 0 0 0 0 0 0 0 0 0 127 0" result="hardAlpha"/>
<feOffset dy="1"/>
<feGaussianBlur stdDeviation="0.5"/>
<feComposite in2="hardAlpha" operator="arithmetic" k2="-1" k3="1"/>
<feColorMatrix type="matrix" values="0 0 0 0 1 0 0 0 0 0.570833 0 0 0 0 0.722472 0 0 0 1 0"/>
<feBlend mode="normal" in2="shape" result="effect1_innerShadow"/>
</filter>
<filter id="filter8_i" x="23.8" y="68.8" width="12.4" height="8.4" filterUnits="userSpaceOnUse" color-interpolation-filters="sRGB">
<feFlood flood-opacity="0" result="BackgroundImageFix"/>
<feBlend mode="normal" in="SourceGraphic" in2="BackgroundImageFix" result="shape"/>
<feColorMatrix in="SourceAlpha" type="matrix" values="0 0 0 0 0 0 0 0 0 0 0 0 0 0 0 0 0 0 127 0" result="hardAlpha"/>
<feOffset dy="1"/>
<feGaussianBlur stdDeviation="0.5"/>
<feComposite in2="hardAlpha" operator="arithmetic" k2="-1" k3="1"/>
<feColorMatrix type="matrix" values="0 0 0 0 1 0 0 0 0 0.570833 0 0 0 0 0.722472 0 0 0 1 0"/>
<feBlend mode="normal" in2="shape" result="effect1_innerShadow"/>
</filter>
</defs>
</svg>
