<svg width="19" height="12" viewBox="0 0 19 12" fill="none" xmlns="http://www.w3.org/2000/svg">
<g filter="url(#filter0_i)">
<path fill-rule="evenodd" clip-rule="evenodd" d="M17.8485 0.65146C18.3172 1.12009 18.3172 1.87989 17.8485 2.34852L9.08448 11.1126C8.20094 11.9961 6.7598 11.9673 5.91228 11.0491L0.61823 5.31392C0.168705 4.82694 0.199073 4.06775 0.686058 3.61822C1.17304 3.1687 1.93223 3.19907 2.38176 3.68605L7.53461 9.26831L16.1515 0.65146C16.6201 0.18283 17.3799 0.18283 17.8485 0.65146Z" fill="black"/>
<path fill-rule="evenodd" clip-rule="evenodd" d="M17.8485 0.65146C18.3172 1.12009 18.3172 1.87989 17.8485 2.34852L9.08448 11.1126C8.20094 11.9961 6.7598 11.9673 5.91228 11.0491L0.61823 5.31392C0.168705 4.82694 0.199073 4.06775 0.686058 3.61822C1.17304 3.1687 1.93223 3.19907 2.38176 3.68605L7.53461 9.26831L16.1515 0.65146C16.6201 0.18283 17.3799 0.18283 17.8485 0.65146Z" fill="url(#paint0_linear)"/>
</g>
<defs>
<filter id="filter0_i" x="0.299988" y="0.299988" width="17.9" height="12.4569" filterUnits="userSpaceOnUse" color-interpolation-filters="sRGB">
<feFlood flood-opacity="0" result="BackgroundImageFix"/>
<feBlend mode="normal" in="SourceGraphic" in2="BackgroundImageFix" result="shape"/>
<feColorMatrix in="SourceAlpha" type="matrix" values="0 0 0 0 0 0 0 0 0 0 0 0 0 0 0 0 0 0 127 0" result="hardAlpha"/>
<feOffset dy="1"/>
<feGaussianBlur stdDeviation="1"/>
<feComposite in2="hardAlpha" operator="arithmetic" k2="-1" k3="1"/>
<feColorMatrix type="matrix" values="0 0 0 0 1 0 0 0 0 1 0 0 0 0 1 0 0 0 0.6 0"/>
<feBlend mode="normal" in2="shape" result="effect1_innerShadow"/>
</filter>
<linearGradient id="paint0_linear" x1="0.299988" y1="0.299988" x2="18.2" y2="0.299988" gradientUnits="userSpaceOnUse">
<stop stop-color="#FF699E"/>
<stop offset="1" stop-color="#C036EE"/>
</linearGradient>
</defs>
</svg>
