<svg width="120" height="120" viewBox="0 0 120 120" fill="none" xmlns="http://www.w3.org/2000/svg">
<g filter="url(#filter0_i)">
<path fill-rule="evenodd" clip-rule="evenodd" d="M91.6071 90.5316H88.3929C85.1063 90.5316 83.8626 90.5494 82.8933 90.814C80.1619 91.5596 78.028 93.6935 77.2824 96.425C77.0178 97.3942 77 98.6379 77 101.924C77 103.318 77.0178 103.615 77.0706 103.808C77.257 104.491 77.7905 105.025 78.4733 105.211C78.6668 105.264 78.9638 105.282 80.3571 105.282H99.6429C101.036 105.282 101.333 105.264 101.527 105.211C102.21 105.025 102.743 104.491 102.929 103.808C102.982 103.615 103 103.318 103 101.924C103 98.6379 102.982 97.3942 102.718 96.425C101.972 93.6935 99.8381 91.5596 97.1067 90.814C96.1374 90.5494 94.8937 90.5316 91.6071 90.5316ZM75.3529 95.8983C75 97.1913 75 98.769 75 101.924C75 103.187 75 103.818 75.1412 104.335C75.514 105.701 76.5809 106.768 77.9467 107.14C78.4639 107.282 79.095 107.282 80.3571 107.282H99.6429C100.905 107.282 101.536 107.282 102.053 107.14C103.419 106.768 104.486 105.701 104.859 104.335C105 103.818 105 103.187 105 101.924C105 98.769 105 97.1913 104.647 95.8983C103.715 92.4839 101.048 89.8166 97.6333 88.8846C96.3403 88.5316 94.7626 88.5316 91.6071 88.5316H88.3929C85.2374 88.5316 83.6597 88.5316 82.3667 88.8846C78.9523 89.8166 76.285 92.4839 75.3529 95.8983Z" fill="#C036EE"/>
</g>
<g filter="url(#filter1_i)">
<path fill-rule="evenodd" clip-rule="evenodd" d="M95.5 78.0315V74.2815C95.5 71.2439 93.0376 68.7815 90 68.7815C86.9624 68.7815 84.5 71.2439 84.5 74.2815V78.0315C84.5 81.0691 86.9624 83.5315 90 83.5315C93.0376 83.5315 95.5 81.0691 95.5 78.0315ZM90 66.7815C85.8579 66.7815 82.5 70.1394 82.5 74.2815V78.0315C82.5 82.1736 85.8579 85.5315 90 85.5315C94.1421 85.5315 97.5 82.1736 97.5 78.0315V74.2815C97.5 70.1394 94.1421 66.7815 90 66.7815Z" fill="#C036EE"/>
</g>
<g filter="url(#filter2_i)">
<path fill-rule="evenodd" clip-rule="evenodd" d="M86.75 76.1775C87.3023 76.1775 87.75 76.6252 87.75 77.1775C87.75 78.4201 88.7574 79.4275 90 79.4275C91.2426 79.4275 92.25 78.4201 92.25 77.1775C92.25 76.6252 92.6977 76.1775 93.25 76.1775C93.8023 76.1775 94.25 76.6252 94.25 77.1775C94.25 79.5247 92.3472 81.4275 90 81.4275C87.6528 81.4275 85.75 79.5247 85.75 77.1775C85.75 76.6252 86.1977 76.1775 86.75 76.1775Z" fill="#C036EE"/>
</g>
<g filter="url(#filter3_i)">
<path fill-rule="evenodd" clip-rule="evenodd" d="M31.6071 90.5315H28.3929C25.1063 90.5315 23.8626 90.5493 22.8933 90.8139C20.1619 91.5595 18.028 93.6934 17.2824 96.4248C17.0178 97.3941 17 98.6378 17 101.924C17 103.318 17.0178 103.615 17.0706 103.808C17.257 104.491 17.7905 105.025 18.4733 105.211C18.6668 105.264 18.9638 105.281 20.3571 105.281H39.6429C41.0362 105.281 41.3333 105.264 41.5267 105.211C42.2095 105.025 42.743 104.491 42.9294 103.808C42.9822 103.615 43 103.318 43 101.924C43 98.6378 42.9822 97.3941 42.7176 96.4248C41.972 93.6934 39.8381 91.5595 37.1067 90.8139C36.1374 90.5493 34.8937 90.5315 31.6071 90.5315ZM15.3529 95.8982C15 97.1912 15 98.7689 15 101.924C15 103.187 15 103.818 15.1412 104.335C15.514 105.701 16.5809 106.768 17.9467 107.14C18.4639 107.281 19.095 107.281 20.3571 107.281H39.6429C40.905 107.281 41.5361 107.281 42.0533 107.14C43.4191 106.768 44.486 105.701 44.8588 104.335C45 103.818 45 103.187 45 101.924C45 98.7689 45 97.1912 44.6471 95.8982C43.7151 92.4838 41.0477 89.8164 37.6333 88.8844C36.3403 88.5315 34.7626 88.5315 31.6071 88.5315H28.3929C25.2374 88.5315 23.6597 88.5315 22.3667 88.8844C18.9523 89.8164 16.285 92.4838 15.3529 95.8982Z" fill="#7C36EE"/>
</g>
<g filter="url(#filter4_i)">
<path fill-rule="evenodd" clip-rule="evenodd" d="M39.3963 70.2878C38.3325 70.2878 37.4245 70.9658 37.0857 71.9163C36.9002 72.4366 36.3282 72.708 35.808 72.5225C35.2877 72.3371 35.0164 71.765 35.2018 71.2448C35.8156 69.5228 37.4605 68.2878 39.3963 68.2878C41.8551 68.2878 43.8484 70.2811 43.8484 72.7399C43.8484 73.6917 43.6871 74.5004 43.4956 75.2428C43.42 75.5359 43.3457 75.8 43.2739 76.0548C43.1535 76.4821 43.0405 76.8833 42.9415 77.3514C42.6545 78.7086 42.555 80.3962 43.4525 83.2265L44.2399 85.7098L41.9931 84.3912C39.6013 82.9875 37.3604 81.1257 35.9793 78.5684C35.7169 78.0825 35.8981 77.4758 36.384 77.2133C36.87 76.9509 37.4767 77.1321 37.7391 77.618C38.5023 79.0312 39.6048 80.2269 40.9124 81.2526C40.6202 79.4787 40.733 78.1282 40.9848 76.9376C41.0953 76.4152 41.2423 75.8903 41.3752 75.4157C41.4422 75.1765 41.5057 74.9501 41.559 74.7433C41.7291 74.0837 41.8484 73.4566 41.8484 72.7399C41.8484 71.3857 40.7506 70.2878 39.3963 70.2878Z" fill="#7C36EE"/>
</g>
<g filter="url(#filter5_i)">
<path fill-rule="evenodd" clip-rule="evenodd" d="M35.5 78.0315V74.2815C35.5 71.2439 33.0376 68.7815 30 68.7815C26.9624 68.7815 24.5 71.2439 24.5 74.2815V78.0315C24.5 81.0691 26.9624 83.5315 30 83.5315C33.0376 83.5315 35.5 81.0691 35.5 78.0315ZM30 66.7815C25.8579 66.7815 22.5 70.1394 22.5 74.2815V78.0315C22.5 82.1736 25.8579 85.5315 30 85.5315C34.1421 85.5315 37.5 82.1736 37.5 78.0315V74.2815C37.5 70.1394 34.1421 66.7815 30 66.7815Z" fill="#7C36EE"/>
</g>
<g filter="url(#filter6_i)">
<path fill-rule="evenodd" clip-rule="evenodd" d="M26.75 76.1841C27.3023 76.1841 27.75 76.6318 27.75 77.1841C27.75 78.4267 28.7574 79.4341 30 79.4341C31.2426 79.4341 32.25 78.4267 32.25 77.1841C32.25 76.6318 32.6977 76.1841 33.25 76.1841C33.8023 76.1841 34.25 76.6318 34.25 77.1841C34.25 79.5313 32.3472 81.4341 30 81.4341C27.6528 81.4341 25.75 79.5313 25.75 77.1841C25.75 76.6318 26.1977 76.1841 26.75 76.1841Z" fill="#7C36EE"/>
</g>
<g filter="url(#filter7_i)">
<path fill-rule="evenodd" clip-rule="evenodd" d="M72.5284 58.8233C71.0519 58.8233 69.7921 59.7644 69.322 61.0832C69.0995 61.7075 68.413 62.0332 67.7887 61.8106C67.1645 61.5881 66.8388 60.9016 67.0613 60.2774C67.8614 58.0329 70.0054 56.4233 72.5284 56.4233C75.7332 56.4233 78.3312 59.0213 78.3312 62.2261C78.3312 63.4795 78.119 64.5457 77.8651 65.5299C77.7659 65.9146 77.6673 66.2646 77.5718 66.6037C77.4104 67.177 77.2576 67.7195 77.1249 68.3471C76.7373 70.1802 76.6063 72.4537 77.8096 76.2485L78.7545 79.2285L76.0583 77.6462C72.881 75.7815 69.9154 73.3145 68.0898 69.9341C67.7749 69.351 67.9923 68.6229 68.5754 68.308C69.1585 67.9931 69.8866 68.2105 70.2015 68.7936C71.2823 70.7949 72.8664 72.4691 74.7399 73.8914C74.2808 71.3746 74.429 69.4957 74.7769 67.8506C74.9233 67.1578 75.1169 66.4669 75.2935 65.8369C75.3832 65.5165 75.4686 65.2118 75.5411 64.9306C75.7694 64.0456 75.9312 63.1974 75.9312 62.2261C75.9312 60.3468 74.4077 58.8233 72.5284 58.8233Z" fill="#FF699E"/>
</g>
<g filter="url(#filter8_i)">
<path fill-rule="evenodd" clip-rule="evenodd" d="M61.25 85.6815H58.75C55.5647 85.6815 53.311 85.6831 51.5454 85.8185C49.8053 85.9519 48.738 86.2047 47.8955 86.6032C45.8877 87.5528 44.2713 89.1692 43.3217 91.177C42.9232 92.0195 42.6704 93.0868 42.537 94.8269C42.4016 96.5925 42.4 98.8462 42.4 102.031C42.4 103.118 42.4016 103.798 42.441 104.311C42.4784 104.798 42.5392 104.935 42.5536 104.966C42.7119 105.3 42.9813 105.57 43.3159 105.728C43.3464 105.742 43.483 105.803 43.9708 105.841C44.484 105.88 45.1635 105.881 46.25 105.881H73.75C74.8365 105.881 75.516 105.88 76.0292 105.841C76.517 105.803 76.6536 105.742 76.6841 105.728C77.0187 105.57 77.2881 105.3 77.4464 104.966C77.4608 104.935 77.5216 104.798 77.559 104.311C77.5984 103.798 77.6 103.118 77.6 102.031C77.6 98.8462 77.5984 96.5925 77.463 94.8269C77.3296 93.0868 77.0768 92.0195 76.6783 91.177C75.7287 89.1692 74.1123 87.5528 72.1045 86.6032C71.262 86.2047 70.1947 85.9519 68.4546 85.8185C66.689 85.6831 64.4353 85.6815 61.25 85.6815ZM41.1521 90.1508C40 92.5868 40 95.735 40 102.031C40 104.13 40 105.18 40.384 105.992C40.7797 106.828 41.4532 107.502 42.2898 107.897C43.1018 108.281 44.1512 108.281 46.25 108.281H73.75C75.8488 108.281 76.8982 108.281 77.7102 107.897C78.5468 107.502 79.2203 106.828 79.616 105.992C80 105.18 80 104.13 80 102.031C80 95.735 80 92.5868 78.8479 90.1508C77.6609 87.6411 75.6404 85.6206 73.1307 84.4336C70.6947 83.2815 67.5465 83.2815 61.25 83.2815H58.75C52.4535 83.2815 49.3053 83.2815 46.8693 84.4336C44.3596 85.6206 42.3391 87.6411 41.1521 90.1508Z" fill="#FF699E"/>
</g>
<g filter="url(#filter9_i)">
<path fill-rule="evenodd" clip-rule="evenodd" d="M67.6 69.2815V64.2815C67.6 60.0841 64.1974 56.6815 60 56.6815C55.8026 56.6815 52.4 60.0841 52.4 64.2815V69.2815C52.4 73.4789 55.8026 76.8815 60 76.8815C64.1974 76.8815 67.6 73.4789 67.6 69.2815ZM60 54.2815C54.4772 54.2815 50 58.7586 50 64.2815V69.2815C50 74.8043 54.4772 79.2815 60 79.2815C65.5228 79.2815 70 74.8043 70 69.2815V64.2815C70 58.7586 65.5228 54.2815 60 54.2815Z" fill="#FF699E"/>
</g>
<g filter="url(#filter10_i)">
<path fill-rule="evenodd" clip-rule="evenodd" d="M55 67.0815C55.6627 67.0815 56.2 67.6188 56.2 68.2815C56.2 70.3802 57.9013 72.0815 60 72.0815C62.0987 72.0815 63.8 70.3802 63.8 68.2815C63.8 67.6188 64.3372 67.0815 65 67.0815C65.6627 67.0815 66.2 67.6188 66.2 68.2815C66.2 71.7057 63.4242 74.4815 60 74.4815C56.5758 74.4815 53.8 71.7057 53.8 68.2815C53.8 67.6188 54.3372 67.0815 55 67.0815Z" fill="#FF699E"/>
</g>
<path d="M72.4246 38.1488C70.0911 43.153 72.2561 49.1013 77.2603 51.4348C78.3257 51.9316 83.0689 54.1434 85.7902 55.4123C86.5593 55.771 87.3945 55.0674 87.1761 54.2473L86.3418 51.1135C88.1229 50.1257 89.6196 48.5862 90.5462 46.5991C92.8797 41.5949 90.7147 35.6466 85.7105 33.3131C80.7064 30.9796 74.758 33.1447 72.4246 38.1488Z" fill="#C036EE"/>
<mask id="mask0" mask-type="alpha" maskUnits="userSpaceOnUse" x="71" y="32" width="21" height="24">
<path d="M72.4246 38.1488C70.0911 43.153 72.2561 49.1013 77.2603 51.4348C78.3257 51.9316 83.0689 54.1434 85.7902 55.4123C86.5594 55.771 87.3945 55.0674 87.1762 54.2473L86.3418 51.1135C88.123 50.1257 89.6196 48.5862 90.5462 46.5991C92.8797 41.5949 90.7147 35.6466 85.7105 33.3131C80.7064 30.9796 74.7581 33.1447 72.4246 38.1488Z" fill="#C036EE"/>
</mask>
<g mask="url(#mask0)">
<g filter="url(#filter11_f)">
<path d="M82.3885 32.7947C76.062 33.3667 72.8606 36.4681 72.8606 41.2701C77.8628 37.6686 79.5635 36.8683 82.3885 32.7947Z" fill="#DE7CFF"/>
</g>
</g>
<path d="M57.9579 27.9543C61.2941 35.1088 58.1988 43.6132 51.0442 46.9494C49.4053 47.7137 41.6793 51.3164 38.0161 53.0245C37.247 53.3832 36.4124 52.6794 36.6307 51.8593L38.0603 46.4901C35.5137 45.0778 33.3739 42.8768 32.0491 40.0358C28.7129 32.8812 31.8082 24.3768 38.9628 21.0406C46.1173 17.7044 54.6217 20.7998 57.9579 27.9543Z" fill="#FF699E"/>
<mask id="mask1" mask-type="alpha" maskUnits="userSpaceOnUse" x="30" y="19" width="30" height="35">
<path d="M57.9578 27.9546C61.294 35.1091 58.1987 43.6135 51.0441 46.9497C49.4052 47.714 41.6792 51.3167 38.016 53.0248C37.2469 53.3835 36.4123 52.6797 36.6306 51.8596L38.0602 46.4904C35.5136 45.0781 33.3738 42.8771 32.049 40.0361C28.7128 32.8815 31.8081 24.3771 38.9627 21.0409C46.1172 17.7047 54.6216 20.8001 57.9578 27.9546Z" fill="#FF699E"/>
</mask>
<g mask="url(#mask1)">
<g filter="url(#filter12_f)">
<path d="M54.8406 22.1085C35.7975 13.3462 27.8908 28.2684 30.9707 37.8384C35.4807 24.1985 44.7426 21.2739 54.8406 22.1085Z" fill="#FBA7C5"/>
</g>
</g>
<defs>
<filter id="filter0_i" x="75" y="88.5316" width="30" height="19.75" filterUnits="userSpaceOnUse" color-interpolation-filters="sRGB">
<feFlood flood-opacity="0" result="BackgroundImageFix"/>
<feBlend mode="normal" in="SourceGraphic" in2="BackgroundImageFix" result="shape"/>
<feColorMatrix in="SourceAlpha" type="matrix" values="0 0 0 0 0 0 0 0 0 0 0 0 0 0 0 0 0 0 127 0" result="hardAlpha"/>
<feOffset dy="1"/>
<feGaussianBlur stdDeviation="0.5"/>
<feComposite in2="hardAlpha" operator="arithmetic" k2="-1" k3="1"/>
<feColorMatrix type="matrix" values="0 0 0 0 0.681458 0 0 0 0 0.420833 0 0 0 0 1 0 0 0 1 0"/>
<feBlend mode="normal" in2="shape" result="effect1_innerShadow"/>
</filter>
<filter id="filter1_i" x="82.5" y="66.7815" width="15" height="19.75" filterUnits="userSpaceOnUse" color-interpolation-filters="sRGB">
<feFlood flood-opacity="0" result="BackgroundImageFix"/>
<feBlend mode="normal" in="SourceGraphic" in2="BackgroundImageFix" result="shape"/>
<feColorMatrix in="SourceAlpha" type="matrix" values="0 0 0 0 0 0 0 0 0 0 0 0 0 0 0 0 0 0 127 0" result="hardAlpha"/>
<feOffset dy="1"/>
<feGaussianBlur stdDeviation="0.5"/>
<feComposite in2="hardAlpha" operator="arithmetic" k2="-1" k3="1"/>
<feColorMatrix type="matrix" values="0 0 0 0 0.681458 0 0 0 0 0.420833 0 0 0 0 1 0 0 0 1 0"/>
<feBlend mode="normal" in2="shape" result="effect1_innerShadow"/>
</filter>
<filter id="filter2_i" x="85.75" y="76.1775" width="8.5" height="6.25" filterUnits="userSpaceOnUse" color-interpolation-filters="sRGB">
<feFlood flood-opacity="0" result="BackgroundImageFix"/>
<feBlend mode="normal" in="SourceGraphic" in2="BackgroundImageFix" result="shape"/>
<feColorMatrix in="SourceAlpha" type="matrix" values="0 0 0 0 0 0 0 0 0 0 0 0 0 0 0 0 0 0 127 0" result="hardAlpha"/>
<feOffset dy="1"/>
<feGaussianBlur stdDeviation="0.5"/>
<feComposite in2="hardAlpha" operator="arithmetic" k2="-1" k3="1"/>
<feColorMatrix type="matrix" values="0 0 0 0 0.681458 0 0 0 0 0.420833 0 0 0 0 1 0 0 0 1 0"/>
<feBlend mode="normal" in2="shape" result="effect1_innerShadow"/>
</filter>
<filter id="filter3_i" x="15" y="88.5315" width="30" height="19.75" filterUnits="userSpaceOnUse" color-interpolation-filters="sRGB">
<feFlood flood-opacity="0" result="BackgroundImageFix"/>
<feBlend mode="normal" in="SourceGraphic" in2="BackgroundImageFix" result="shape"/>
<feColorMatrix in="SourceAlpha" type="matrix" values="0 0 0 0 0 0 0 0 0 0 0 0 0 0 0 0 0 0 127 0" result="hardAlpha"/>
<feOffset dy="1"/>
<feGaussianBlur stdDeviation="0.5"/>
<feComposite in2="hardAlpha" operator="arithmetic" k2="-1" k3="1"/>
<feColorMatrix type="matrix" values="0 0 0 0 0.625679 0 0 0 0 0.395833 0 0 0 0 1 0 0 0 1 0"/>
<feBlend mode="normal" in2="shape" result="effect1_innerShadow"/>
</filter>
<filter id="filter4_i" x="35.1435" y="68.2878" width="9.09647" height="18.422" filterUnits="userSpaceOnUse" color-interpolation-filters="sRGB">
<feFlood flood-opacity="0" result="BackgroundImageFix"/>
<feBlend mode="normal" in="SourceGraphic" in2="BackgroundImageFix" result="shape"/>
<feColorMatrix in="SourceAlpha" type="matrix" values="0 0 0 0 0 0 0 0 0 0 0 0 0 0 0 0 0 0 127 0" result="hardAlpha"/>
<feOffset dy="1"/>
<feGaussianBlur stdDeviation="0.5"/>
<feComposite in2="hardAlpha" operator="arithmetic" k2="-1" k3="1"/>
<feColorMatrix type="matrix" values="0 0 0 0 0.625679 0 0 0 0 0.395833 0 0 0 0 1 0 0 0 1 0"/>
<feBlend mode="normal" in2="shape" result="effect1_innerShadow"/>
</filter>
<filter id="filter5_i" x="22.5" y="66.7815" width="15" height="19.75" filterUnits="userSpaceOnUse" color-interpolation-filters="sRGB">
<feFlood flood-opacity="0" result="BackgroundImageFix"/>
<feBlend mode="normal" in="SourceGraphic" in2="BackgroundImageFix" result="shape"/>
<feColorMatrix in="SourceAlpha" type="matrix" values="0 0 0 0 0 0 0 0 0 0 0 0 0 0 0 0 0 0 127 0" result="hardAlpha"/>
<feOffset dy="1"/>
<feGaussianBlur stdDeviation="0.5"/>
<feComposite in2="hardAlpha" operator="arithmetic" k2="-1" k3="1"/>
<feColorMatrix type="matrix" values="0 0 0 0 0.625679 0 0 0 0 0.395833 0 0 0 0 1 0 0 0 1 0"/>
<feBlend mode="normal" in2="shape" result="effect1_innerShadow"/>
</filter>
<filter id="filter6_i" x="25.75" y="76.1841" width="8.5" height="6.25" filterUnits="userSpaceOnUse" color-interpolation-filters="sRGB">
<feFlood flood-opacity="0" result="BackgroundImageFix"/>
<feBlend mode="normal" in="SourceGraphic" in2="BackgroundImageFix" result="shape"/>
<feColorMatrix in="SourceAlpha" type="matrix" values="0 0 0 0 0 0 0 0 0 0 0 0 0 0 0 0 0 0 127 0" result="hardAlpha"/>
<feOffset dy="1"/>
<feGaussianBlur stdDeviation="0.5"/>
<feComposite in2="hardAlpha" operator="arithmetic" k2="-1" k3="1"/>
<feColorMatrix type="matrix" values="0 0 0 0 0.625679 0 0 0 0 0.395833 0 0 0 0 1 0 0 0 1 0"/>
<feBlend mode="normal" in2="shape" result="effect1_innerShadow"/>
</filter>
<filter id="filter7_i" x="66.9913" y="56.4233" width="11.7632" height="23.8052" filterUnits="userSpaceOnUse" color-interpolation-filters="sRGB">
<feFlood flood-opacity="0" result="BackgroundImageFix"/>
<feBlend mode="normal" in="SourceGraphic" in2="BackgroundImageFix" result="shape"/>
<feColorMatrix in="SourceAlpha" type="matrix" values="0 0 0 0 0 0 0 0 0 0 0 0 0 0 0 0 0 0 127 0" result="hardAlpha"/>
<feOffset dy="1"/>
<feGaussianBlur stdDeviation="0.5"/>
<feComposite in2="hardAlpha" operator="arithmetic" k2="-1" k3="1"/>
<feColorMatrix type="matrix" values="0 0 0 0 1 0 0 0 0 0.570833 0 0 0 0 0.722472 0 0 0 1 0"/>
<feBlend mode="normal" in2="shape" result="effect1_innerShadow"/>
</filter>
<filter id="filter8_i" x="40" y="83.2815" width="40" height="26" filterUnits="userSpaceOnUse" color-interpolation-filters="sRGB">
<feFlood flood-opacity="0" result="BackgroundImageFix"/>
<feBlend mode="normal" in="SourceGraphic" in2="BackgroundImageFix" result="shape"/>
<feColorMatrix in="SourceAlpha" type="matrix" values="0 0 0 0 0 0 0 0 0 0 0 0 0 0 0 0 0 0 127 0" result="hardAlpha"/>
<feOffset dy="1"/>
<feGaussianBlur stdDeviation="0.5"/>
<feComposite in2="hardAlpha" operator="arithmetic" k2="-1" k3="1"/>
<feColorMatrix type="matrix" values="0 0 0 0 1 0 0 0 0 0.570833 0 0 0 0 0.722472 0 0 0 1 0"/>
<feBlend mode="normal" in2="shape" result="effect1_innerShadow"/>
</filter>
<filter id="filter9_i" x="50" y="54.2815" width="20" height="26" filterUnits="userSpaceOnUse" color-interpolation-filters="sRGB">
<feFlood flood-opacity="0" result="BackgroundImageFix"/>
<feBlend mode="normal" in="SourceGraphic" in2="BackgroundImageFix" result="shape"/>
<feColorMatrix in="SourceAlpha" type="matrix" values="0 0 0 0 0 0 0 0 0 0 0 0 0 0 0 0 0 0 127 0" result="hardAlpha"/>
<feOffset dy="1"/>
<feGaussianBlur stdDeviation="0.5"/>
<feComposite in2="hardAlpha" operator="arithmetic" k2="-1" k3="1"/>
<feColorMatrix type="matrix" values="0 0 0 0 1 0 0 0 0 0.570833 0 0 0 0 0.722472 0 0 0 1 0"/>
<feBlend mode="normal" in2="shape" result="effect1_innerShadow"/>
</filter>
<filter id="filter10_i" x="53.8" y="67.0815" width="12.4" height="8.4" filterUnits="userSpaceOnUse" color-interpolation-filters="sRGB">
<feFlood flood-opacity="0" result="BackgroundImageFix"/>
<feBlend mode="normal" in="SourceGraphic" in2="BackgroundImageFix" result="shape"/>
<feColorMatrix in="SourceAlpha" type="matrix" values="0 0 0 0 0 0 0 0 0 0 0 0 0 0 0 0 0 0 127 0" result="hardAlpha"/>
<feOffset dy="1"/>
<feGaussianBlur stdDeviation="0.5"/>
<feComposite in2="hardAlpha" operator="arithmetic" k2="-1" k3="1"/>
<feColorMatrix type="matrix" values="0 0 0 0 1 0 0 0 0 0.570833 0 0 0 0 0.722472 0 0 0 1 0"/>
<feBlend mode="normal" in2="shape" result="effect1_innerShadow"/>
</filter>
<filter id="filter11_f" x="68.8606" y="28.7948" width="17.528" height="16.4754" filterUnits="userSpaceOnUse" color-interpolation-filters="sRGB">
<feFlood flood-opacity="0" result="BackgroundImageFix"/>
<feBlend mode="normal" in="SourceGraphic" in2="BackgroundImageFix" result="shape"/>
<feGaussianBlur stdDeviation="2" result="effect1_foregroundBlur"/>
</filter>
<filter id="filter12_f" x="26.3236" y="15.4524" width="32.517" height="26.3859" filterUnits="userSpaceOnUse" color-interpolation-filters="sRGB">
<feFlood flood-opacity="0" result="BackgroundImageFix"/>
<feBlend mode="normal" in="SourceGraphic" in2="BackgroundImageFix" result="shape"/>
<feGaussianBlur stdDeviation="2" result="effect1_foregroundBlur"/>
</filter>
</defs>
</svg>
