<svg width="295" height="297" viewBox="0 0 295 297" fill="none" xmlns="http://www.w3.org/2000/svg">
<path fill-rule="evenodd" clip-rule="evenodd" d="M51.0876 239.39C24.0346 208.993 7.5955 168.919 7.5955 125C7.5955 30.007 84.5008 -47 179.368 -47C274.236 -47 351.141 30.007 351.141 125C351.141 219.993 274.236 297 179.368 297H9.78062C1.50038 297 -2.31682 286.762 3.87761 281.267L51.0876 239.39ZM175.205 79.6442C173.582 79.792 172.141 80.2847 170.963 81.1801C169.78 82.0799 168.989 83.2905 168.52 84.6622C167.612 87.3184 167.87 90.6729 168.738 94.1929C170.492 101.308 175.05 110.313 180.763 118.844C186.49 127.394 193.508 135.664 200.331 141.261C200.991 141.802 201.651 142.321 202.312 142.814C201.57 144.579 200.626 146.079 199.546 147.315C196.769 150.493 192.998 152.048 189.058 151.871C186.353 151.75 183.398 150.944 180.317 149.575C179.215 138.901 175.661 127.554 171.214 117.986C167.865 110.778 163.939 104.426 160.016 100.006C158.058 97.7997 156.036 96.0023 154.02 94.8389C152.013 93.6807 149.82 93.0466 147.653 93.5264C144.377 94.2518 141.969 95.908 140.583 98.4109C139.235 100.844 139.012 103.794 139.466 106.852C140.368 112.937 144.071 120.284 149.117 127.302C154.195 134.365 160.786 141.307 167.721 146.573C170.586 148.749 173.552 150.671 176.53 152.195C176.821 156.386 176.68 160.394 176.007 164.038C174.771 170.722 171.557 174.802 167.927 177.056C164.437 179.225 160.449 179.777 157.185 179.196C157.764 177.243 158.127 175.215 158.3 173.23C158.661 169.099 158.254 164.851 157.144 161.237C156.054 157.683 154.184 154.431 151.366 152.739C147.11 150.182 143.134 150.04 140.329 152.522C137.753 154.802 136.886 158.731 137.23 162.623C137.847 169.629 142.479 178.085 151.846 181.793C150.162 184.888 147.672 187.034 144.423 187.596C138.242 188.664 133.822 185.134 129.614 180.899C129.132 180.413 128.644 179.909 128.153 179.402L128.151 179.4C126.622 177.82 125.069 176.215 123.569 175.056C121.545 173.491 119.024 172.258 116.149 173.249C113.376 174.205 111.823 176.646 111.124 179.367C110.426 182.087 110.482 185.38 111.116 188.743C111.354 190.007 111.678 191.303 112.086 192.607C109.659 190.05 107.389 187.558 105.268 185.137C106.455 177.58 106.956 169.341 106.225 161.508C105.477 153.499 103.427 145.779 99.3722 139.658C96.2798 134.989 92.9253 131.752 89.6621 129.945C86.4139 128.146 83.037 127.666 80.2175 129.009C77.366 130.366 75.6902 133.295 75.2519 136.992C74.8147 140.68 75.5571 145.344 77.6955 150.772C81.1976 159.66 88.49 171.8 101.015 186.339C99.8025 193.288 98.0125 199.535 96.1261 204.128C95.1216 206.574 94.1194 208.477 93.2074 209.756C92.751 210.396 92.3577 210.821 92.0466 211.077C91.8138 211.269 91.6896 211.315 91.6697 211.322C90.5838 211.45 89.8 212.428 89.9151 213.518C90.031 214.617 91.0155 215.413 92.1139 215.297C93.0949 215.194 93.9294 214.708 94.5884 214.166C95.2603 213.613 95.8849 212.89 96.4639 212.079C97.6226 210.454 98.7606 208.242 99.8262 205.648C101.545 201.463 103.152 196.093 104.365 190.146C108.856 195.141 113.944 200.396 119.685 205.879C120.382 206.616 121.119 207.314 121.892 207.964C122.722 208.66 123.955 208.57 124.674 207.76C125.393 206.95 125.337 205.715 124.547 204.974C123.865 204.333 123.191 203.696 122.527 203.061C118.63 198.91 116.024 193.193 115.047 188.002C114.482 185.004 114.491 182.338 114.999 180.361C115.506 178.385 116.412 177.389 117.453 177.031C118.392 176.707 119.458 176.934 121.122 178.22C122.375 179.188 123.632 180.487 125.096 181.998C125.626 182.545 126.183 183.121 126.777 183.719C131.012 187.982 136.76 192.98 145.105 191.537C150.207 190.655 153.628 187.261 155.724 182.981L155.791 182.996C160.121 183.955 165.431 183.316 170.038 180.454C174.698 177.559 178.516 172.467 179.94 164.765C180.563 161.394 180.77 157.778 180.633 154.03C183.433 155.095 186.207 155.748 188.879 155.867C194.041 156.099 198.984 154.037 202.558 149.947C203.78 148.548 204.831 146.927 205.677 145.098C207.296 146.083 208.9 146.883 210.467 147.456C213.75 148.655 217.094 148.927 220.053 147.492C225.357 144.919 227.581 140.701 228.327 136.039C228.725 133.551 228.708 130.877 228.549 128.228C229.101 128.724 229.704 129.184 230.36 129.596C233.464 131.547 237.56 132.325 242.544 131.222C247.305 130.167 250.484 127.56 252.164 124.152C253.811 120.812 253.915 116.919 253.01 113.364C252.847 112.724 252.647 112.084 252.412 111.45C258.671 109.157 264.713 105.493 268.137 100.513C271.288 95.9312 272.429 89.4621 270.675 84.3997C269.779 81.8147 268.097 79.5271 265.478 78.1558C262.868 76.7894 259.568 76.4577 255.659 77.3129C254.58 77.5489 253.896 78.615 254.132 79.6941C254.368 80.7731 255.435 81.4565 256.514 81.2205C259.763 80.5096 262.053 80.8776 263.623 81.6995C265.183 82.5164 266.271 83.9057 266.895 85.7091C268.182 89.4234 267.365 94.5768 264.841 98.2464C262.004 102.372 256.638 105.705 250.632 107.84C247.76 103.273 242.942 99.881 237.032 100.751C233.779 101.231 231.187 102.183 229.176 103.603C227.145 105.038 225.81 106.879 224.978 108.953C223.371 112.962 223.657 117.862 224.048 122.382C224.079 122.746 224.111 123.108 224.144 123.469C224.163 123.686 224.183 123.903 224.203 124.118C224.572 128.2 224.918 132.025 224.377 135.407C223.79 139.078 222.188 142.011 218.307 143.893C216.675 144.685 214.542 144.686 211.839 143.699C210.344 143.153 208.742 142.326 207.064 141.249C207.776 138.601 208.126 135.637 208.047 132.389L208.044 132.295L208.033 132.201C206.566 119.921 202.078 106.664 196.268 96.5841C193.364 91.5459 190.077 87.2089 186.59 84.1836C183.125 81.1776 179.234 79.2773 175.205 79.6442ZM204.05 132.581C204.099 134.825 203.918 136.871 203.55 138.718C203.323 138.539 203.096 138.355 202.868 138.168C196.437 132.893 189.67 124.954 184.087 116.618C178.491 108.263 174.216 99.7044 172.621 93.2355C171.815 89.9633 171.77 87.5206 172.305 85.9568C172.557 85.2184 172.925 84.7132 173.384 84.3642C173.849 84.0108 174.534 83.7219 175.568 83.6277C178.064 83.4004 180.909 84.5505 183.969 87.2049C187.006 89.8401 190.031 93.7736 192.802 98.5816C198.328 108.168 202.636 120.864 204.05 132.581ZM167.587 119.671C171.565 128.231 174.709 138.059 176.016 147.35C174.074 146.21 172.106 144.88 170.14 143.388C163.55 138.384 157.232 131.737 152.365 124.967C147.465 118.152 144.188 111.423 143.423 106.265C143.042 103.7 143.313 101.736 144.082 100.349C144.812 99.0305 146.141 97.958 148.518 97.4319C149.352 97.2473 150.5 97.4258 152.021 98.3036C153.533 99.1763 155.229 100.638 157.025 102.662C160.61 106.701 164.341 112.687 167.587 119.671ZM154.315 172.883C154.155 174.719 153.834 176.471 153.356 178.087C145.526 174.995 141.717 167.978 141.214 162.272C140.923 158.971 141.766 156.592 142.98 155.517C143.967 154.644 145.865 154.101 149.306 156.168C150.902 157.126 152.358 159.276 153.32 162.41C154.264 165.485 154.636 169.212 154.315 172.883ZM102.242 161.88C102.829 168.159 102.582 174.771 101.8 181.08C90.878 167.988 84.5119 157.16 81.4171 149.305C79.4284 144.258 78.8898 140.282 79.2241 137.463C79.5573 134.652 80.7055 133.206 81.9369 132.62C83.2003 132.019 85.1652 132.027 87.724 133.444C90.2679 134.853 93.1858 137.562 96.0375 141.867C99.6001 147.245 101.53 154.248 102.242 161.88ZM232.565 109.92C231.28 109.617 230.049 109.61 228.921 109.916C229.49 108.72 230.308 107.701 231.484 106.87C232.851 105.905 234.801 105.123 237.615 104.709C241.116 104.193 244.402 106.024 246.649 109.056C241.238 110.446 236.032 110.739 232.565 109.92ZM231.646 113.813C236.171 114.882 242.475 114.377 248.606 112.673C248.811 113.217 248.988 113.777 249.134 114.351C249.862 117.211 249.708 120.089 248.576 122.383C247.478 124.61 245.36 126.501 241.679 127.316C237.579 128.224 234.585 127.526 232.488 126.209C230.358 124.87 228.968 122.773 228.321 120.589C227.661 118.359 227.845 116.298 228.504 115.052C228.818 114.458 229.212 114.091 229.642 113.894C230.068 113.7 230.703 113.59 231.646 113.813Z" fill="#BB95F9"/>
</svg>
