<svg width="180" height="40" viewBox="0 0 180 40" fill="none" xmlns="http://www.w3.org/2000/svg">
<path d="M56.9657 11.7881C57.685 11.7881 58.3067 11.5261 58.8308 11.002C59.3549 10.4779 59.617 9.85618 59.617 9.13685C59.617 8.41752 59.3549 7.79581 58.8308 7.27172C58.3067 6.74764 57.685 6.4856 56.9657 6.4856C56.2464 6.4856 55.6247 6.74764 55.1006 7.27172C54.5765 7.79581 54.3145 8.41752 54.3145 9.13685C54.3145 9.85618 54.5765 10.4779 55.1006 11.002C55.6247 11.5261 56.2464 11.7881 56.9657 11.7881ZM59.0929 29.3912V13.6686H54.8385V29.3912H59.0929ZM70.1813 29.3912C71.1267 29.3912 71.9796 29.1702 72.74 28.7284C73.5005 28.2865 74.1068 27.6905 74.5589 26.9403C75.0111 26.1901 75.2371 25.3629 75.2371 24.4586C75.2371 23.2871 75.0111 22.3417 74.5589 21.6224C74.1068 20.9031 73.4696 20.3738 72.6475 20.0347C71.8255 19.6956 70.8492 19.5261 69.7188 19.5261H66.7593C66.4305 19.5261 66.153 19.4182 65.9269 19.2024C65.7009 18.9866 65.5878 18.7142 65.5878 18.3854C65.5878 18.0566 65.706 17.7894 65.9423 17.5839C66.1787 17.3783 66.451 17.2756 66.7593 17.2756H73.7265V13.6686H66.3585C65.4542 13.6686 64.627 13.8896 63.8768 14.3314C63.1267 14.7733 62.5307 15.3591 62.0888 16.0887C61.6469 16.8183 61.426 17.625 61.426 18.5087C61.426 19.6596 61.6675 20.5896 62.1504 21.2987C62.6334 22.0077 63.2808 22.5216 64.0926 22.8401C64.9045 23.1587 65.8139 23.318 66.821 23.318H69.7805C70.0271 23.318 70.2481 23.3745 70.4433 23.4875C70.6386 23.6006 70.7927 23.7496 70.9057 23.9345C71.0188 24.1195 71.0753 24.3353 71.0753 24.5819C71.0753 24.808 71.0188 25.0135 70.9057 25.1985C70.7927 25.3835 70.6386 25.5273 70.4433 25.6301C70.2481 25.7329 70.0271 25.7842 69.7805 25.7842H62.1042V29.3912H70.1813ZM86.6637 29.3912V25.7842H83.2417C82.9745 25.7842 82.7433 25.6866 82.5481 25.4914C82.3528 25.2961 82.2552 25.0649 82.2552 24.7977L82.2551 17.2756H86.6637V13.6686H82.2551L82.2552 9.72259H78.0317L78.0316 13.6686H75.3496V17.2756H78.0316L78.0317 24.921C78.0317 26.2563 78.4037 27.321 79.1477 28.1152L79.2186 28.1889C80.0098 28.9904 81.1043 29.3912 82.5018 29.3912H86.6637ZM94.4545 29.7611C95.3588 29.7611 96.1398 29.6275 96.7975 29.3603C97.4552 29.0932 98.0152 28.7335 98.4776 28.2813C98.9401 27.8292 99.3254 27.3257 99.6337 26.7707H99.6954V29.3912H103.919V21.5607C103.919 20.0399 103.6 18.6526 102.963 17.3989C102.326 16.1452 101.401 15.1484 100.189 14.4085C98.976 13.6686 97.486 13.2987 95.7185 13.2987C93.9715 13.2987 92.4712 13.6635 91.2175 14.3931C89.9638 15.1227 89.003 16.1144 88.3351 17.3681C87.6671 18.6217 87.3331 20.0193 87.3331 21.5607C87.3331 23.0611 87.626 24.4329 88.2118 25.6763C88.7975 26.9198 89.6247 27.9114 90.6934 28.6513C91.7622 29.3912 93.0159 29.7611 94.4545 29.7611ZM95.6568 26.1542C94.8142 26.1542 94.0897 25.9487 93.4834 25.5376C92.8771 25.1266 92.4147 24.5665 92.0961 23.8575C91.7776 23.1484 91.6183 22.3623 91.6183 21.4991C91.6183 20.6359 91.7776 19.86 92.0961 19.1715C92.4147 18.483 92.8771 17.9332 93.4834 17.5222C94.0897 17.1112 94.8142 16.9056 95.6568 16.9056C96.4789 16.9056 97.188 17.1112 97.784 17.5222C98.38 17.9332 98.8373 18.483 99.1559 19.1715C99.4744 19.86 99.6337 20.6359 99.6337 21.4991C99.6337 22.3623 99.4744 23.1484 99.1559 23.8575C98.8373 24.5665 98.38 25.1266 97.784 25.5376C97.188 25.9487 96.4789 26.1542 95.6568 26.1542ZM110.626 29.3912V20.3584C110.626 19.7213 110.78 19.1407 111.088 18.6166C111.396 18.0925 111.813 17.6763 112.337 17.3681C112.861 17.0598 113.441 16.9056 114.078 16.9056C114.716 16.9056 115.296 17.0598 115.82 17.3681C116.344 17.6763 116.761 18.0925 117.069 18.6166C117.377 19.1407 117.531 19.7213 117.531 20.3584V29.3912H121.755V20.3584C121.755 19.0636 121.452 17.8819 120.845 16.8131C120.239 15.7444 119.366 14.8915 118.225 14.2544C117.084 13.6173 115.702 13.2987 114.078 13.2987C112.475 13.2987 111.098 13.6173 109.947 14.2544C108.796 14.8915 107.918 15.7444 107.312 16.8131C106.705 17.8819 106.402 19.0636 106.402 20.3584V29.3912H110.626ZM134.353 29.3912V25.7842H130.931C130.664 25.7842 130.433 25.6866 130.237 25.4914C130.042 25.2961 129.944 25.0649 129.944 24.7977L129.944 17.2756H134.353V13.6686H129.944L129.944 9.72259H125.721L125.721 13.6686H123.039V17.2756H125.721L125.721 24.921C125.721 26.2563 126.093 27.321 126.837 28.1152L126.908 28.1889C127.699 28.9904 128.793 29.3912 130.191 29.3912H134.353ZM148.34 29.3912V25.7842H140.602C140.5 25.7842 140.412 25.7483 140.34 25.6763C140.268 25.6044 140.232 25.5171 140.232 25.4143C140.232 25.3732 140.248 25.3218 140.279 25.2602C140.309 25.1985 140.356 25.1471 140.417 25.106L146.861 20.7592C147.395 20.3892 147.832 19.9268 148.171 19.3719C148.51 18.817 148.679 18.2107 148.679 17.553C148.679 16.8337 148.51 16.1812 148.171 15.5954C147.832 15.0097 147.385 14.5421 146.83 14.1927C146.275 13.8433 145.648 13.6686 144.949 13.6686H136.41V17.2756H143.716C143.819 17.2756 143.906 17.3115 143.978 17.3835C144.05 17.4554 144.086 17.5428 144.086 17.6455C144.086 17.6866 144.076 17.738 144.055 17.7997C144.035 17.8613 143.983 17.9127 143.901 17.9538L137.458 22.3006C136.923 22.6706 136.487 23.133 136.148 23.6879C135.809 24.2428 135.639 24.8491 135.639 25.5068C135.639 26.2261 135.809 26.8786 136.148 27.4644C136.487 28.0501 136.934 28.5177 137.489 28.8671C138.044 29.2165 138.67 29.3912 139.369 29.3912H148.34ZM153.262 11.7881C153.982 11.7881 154.603 11.5261 155.128 11.002C155.652 10.4779 155.914 9.85618 155.914 9.13685C155.914 8.41752 155.652 7.79581 155.128 7.27172C154.603 6.74764 153.982 6.4856 153.262 6.4856C152.543 6.4856 151.921 6.74764 151.397 7.27172C150.873 7.79581 150.611 8.41752 150.611 9.13685C150.611 9.85618 150.873 10.4779 151.397 11.002C151.921 11.5261 152.543 11.7881 153.262 11.7881ZM155.39 29.3912V13.6686H151.135V29.3912H155.39ZM164.536 29.7611C165.44 29.7611 166.221 29.6275 166.879 29.3603C167.536 29.0932 168.097 28.7335 168.559 28.2813C169.021 27.8292 169.407 27.3257 169.715 26.7707H169.777V29.3912H174V21.5607C174 20.0399 173.682 18.6526 173.044 17.3989C172.407 16.1452 171.483 15.1484 170.27 14.4085C169.057 13.6686 167.567 13.2987 165.8 13.2987C164.053 13.2987 162.553 13.6635 161.299 14.3931C160.045 15.1227 159.084 16.1144 158.416 17.3681C157.748 18.6217 157.414 20.0193 157.414 21.5607C157.414 23.0611 157.707 24.4329 158.293 25.6763C158.879 26.9198 159.706 27.9114 160.775 28.6513C161.843 29.3912 163.097 29.7611 164.536 29.7611ZM165.738 26.1542C164.895 26.1542 164.171 25.9487 163.565 25.5376C162.958 25.1266 162.496 24.5665 162.177 23.8575C161.859 23.1484 161.7 22.3623 161.7 21.4991C161.7 20.6359 161.859 19.86 162.177 19.1715C162.496 18.483 162.958 17.9332 163.565 17.5222C164.171 17.1112 164.895 16.9056 165.738 16.9056C166.56 16.9056 167.269 17.1112 167.865 17.5222C168.461 17.9332 168.919 18.483 169.237 19.1715C169.556 19.86 169.715 20.6359 169.715 21.4991C169.715 22.3623 169.556 23.1484 169.237 23.8575C168.919 24.5665 168.461 25.1266 167.865 25.5376C167.269 25.9487 166.56 26.1542 165.738 26.1542Z" fill="#303033"/>
<path d="M23.8544 5L23.776 5.00045C21.2961 5.02898 19.0267 6.40989 17.863 8.60468L16.4476 11.2738L13.8005 8.77095C12.942 7.95919 11.8053 7.50689 10.6238 7.50689C8.07013 7.50689 6 9.57702 6 12.1307V28.0421C6 29.2425 6.46686 30.3959 7.30186 31.2583L7.35549 31.3129C9.13657 33.0938 12.0237 33.1225 13.84 31.364L16.4434 28.8434L17.8504 31.5525C19.017 33.7989 21.3376 35.2086 23.8688 35.2086H35.5921C39.3375 35.2086 42.3737 32.1725 42.3737 28.4271V11.7815C42.3737 8.0362 39.3375 5 35.5921 5H23.8544ZM35.5921 9.31552C36.9541 9.31552 38.0582 10.4196 38.0582 11.7815V28.4271C38.0582 29.7891 36.9541 30.8931 35.5921 30.8931H23.8688C22.9483 30.8931 22.1045 30.3805 21.6803 29.5636L17.985 22.4479C17.8281 22.1457 17.4559 22.0279 17.1537 22.1849C17.1007 22.2124 17.052 22.2475 17.009 22.2891L10.8382 28.2636C10.7159 28.382 10.5207 28.3788 10.4023 28.2565C10.3466 28.199 10.3155 28.1221 10.3155 28.0421V12.1307C10.3155 11.9604 10.4535 11.8224 10.6238 11.8224C10.7025 11.8224 10.7783 11.8526 10.8356 11.9067L17.0149 17.7495C17.2623 17.9834 17.6525 17.9725 17.8864 17.7251C17.9246 17.6847 17.9571 17.6394 17.9831 17.5903L21.6757 10.6263C22.1033 9.81981 22.9415 9.31552 23.8544 9.31552H35.5921Z" fill="url(#paint0_radial)"/>
<defs>
<radialGradient id="paint0_radial" cx="0" cy="0" r="1" gradientUnits="userSpaceOnUse" gradientTransform="translate(8.5 10) rotate(36.4164) scale(37.9012 32.5387)">
<stop stop-color="#FF699E"/>
<stop offset="0.579735" stop-color="#C036EE"/>
<stop offset="1" stop-color="#6060F0"/>
</radialGradient>
</defs>
</svg>
