<svg width="184" height="227" viewBox="0 0 184 227" fill="none" xmlns="http://www.w3.org/2000/svg">
<path fill-rule="evenodd" clip-rule="evenodd" d="M28.7045 188.311C10.9162 168.324 0.106934 141.974 0.106934 113.096C0.106934 50.6348 50.6748 0 113.053 0C175.432 0 226 50.6348 226 113.096C226 175.557 175.432 226.192 113.053 226.192H9.6723C1.39206 226.192 -2.45804 215.954 3.7364 210.459L28.7045 188.311ZM110.725 85.0614C109.631 85.161 108.648 85.4944 107.841 86.1083C107.029 86.7253 106.49 87.5539 106.171 88.4852C105.556 90.2822 105.736 92.5301 106.31 94.8561C107.47 99.5645 110.48 105.506 114.243 111.124C118.015 116.756 122.641 122.208 127.146 125.904C127.542 126.229 127.94 126.543 128.339 126.843C127.867 127.929 127.277 128.854 126.607 129.62C124.818 131.667 122.393 132.666 119.859 132.553C118.135 132.475 116.249 131.968 114.276 131.101C113.535 124.085 111.199 116.647 108.285 110.378C106.078 105.629 103.488 101.435 100.893 98.5115C99.5976 97.0522 98.2533 95.8548 96.9042 95.0764C95.5618 94.3019 94.0719 93.8639 92.5853 94.193C90.3895 94.6792 88.7561 95.7952 87.8144 97.4957C86.9017 99.1441 86.7574 101.129 87.0589 103.162C87.6588 107.207 90.1133 112.066 93.4376 116.69C96.7862 121.348 101.133 125.926 105.709 129.401C107.568 130.813 109.496 132.066 111.436 133.067C111.617 135.771 111.521 138.354 111.087 140.704C110.283 145.052 108.198 147.687 105.859 149.14C103.676 150.496 101.192 150.873 99.128 150.556C99.4797 149.318 99.7018 148.042 99.8103 146.798C100.049 144.06 99.7799 141.243 99.043 138.841C98.3199 136.485 97.071 134.296 95.1617 133.149C92.3254 131.445 89.6153 131.32 87.6872 133.026C85.9299 134.581 85.3592 137.237 85.5873 139.823C85.9946 144.441 89.0186 150 95.1188 152.505C94.0347 154.403 92.4709 155.699 90.47 156.045C86.5057 156.73 83.6608 154.477 80.8955 151.694C80.5824 151.379 80.2643 151.05 79.9434 150.718L79.9431 150.718C78.9356 149.677 77.9002 148.607 76.902 147.835C75.5547 146.794 73.8297 145.937 71.8502 146.619C69.9465 147.275 68.8955 148.947 68.4273 150.77C67.9592 152.594 67.9993 154.788 68.419 157.016C68.5315 157.613 68.673 158.221 68.843 158.834C67.4684 157.373 66.1725 155.946 64.952 154.554C65.7241 149.596 66.0489 144.196 65.569 139.057C65.0757 133.773 63.7223 128.664 61.0331 124.604C58.9886 121.518 56.7628 119.365 54.5839 118.158C52.4162 116.958 50.1304 116.621 48.2046 117.537C46.2547 118.466 45.1285 120.46 44.8354 122.932C44.5432 125.397 45.0407 128.496 46.4537 132.082C48.7604 137.936 53.551 145.913 61.7618 155.456C60.9668 159.979 59.8001 164.041 58.5735 167.028C57.9158 168.629 57.2631 169.866 56.6749 170.691C56.3804 171.104 56.1325 171.37 55.9446 171.524C55.8477 171.604 55.7884 171.637 55.7655 171.648C54.9652 171.757 54.3913 172.483 54.4767 173.292C54.5636 174.115 55.302 174.713 56.1258 174.626C56.8201 174.553 57.4021 174.21 57.851 173.841C58.3094 173.464 58.7309 172.975 59.1172 172.433C59.8905 171.349 60.6451 169.88 61.3485 168.168C62.449 165.488 63.4788 162.077 64.2693 158.299C67.1642 161.505 70.4316 164.872 74.1038 168.379C74.5664 168.868 75.0546 169.331 75.5678 169.762C76.1898 170.284 77.1147 170.216 77.654 169.609C78.1934 169.002 78.1512 168.075 77.559 167.519C77.1118 167.1 76.6706 166.682 76.2353 166.266C73.7036 163.567 72.0046 159.844 71.3672 156.461C70.999 154.506 71.0082 152.782 71.3331 151.516C71.658 150.251 72.2239 149.664 72.828 149.455C73.3563 149.273 73.9895 149.376 75.0674 150.209C75.8796 150.837 76.693 151.677 77.6512 152.666C78.0015 153.028 78.3712 153.41 78.7672 153.808C81.5535 156.613 85.394 159.967 90.9811 159.001C94.3606 158.417 96.6306 156.199 98.0332 153.405C100.908 154.014 104.404 153.576 107.442 151.689C110.553 149.756 113.092 146.361 114.037 141.249C114.434 139.101 114.576 136.805 114.505 134.427C116.274 135.076 118.028 135.474 119.724 135.55C123.175 135.704 126.48 134.325 128.866 131.594C129.641 130.708 130.31 129.69 130.858 128.548C131.872 129.152 132.878 129.647 133.864 130.008C136.05 130.806 138.304 130.998 140.312 130.024C143.865 128.301 145.356 125.467 145.854 122.356C146.096 120.841 146.107 119.222 146.026 117.613C146.303 117.839 146.597 118.051 146.909 118.247C148.997 119.559 151.741 120.075 155.059 119.34C158.24 118.636 160.379 116.888 161.511 114.593C162.617 112.348 162.684 109.741 162.081 107.372C161.987 107.004 161.874 106.635 161.744 106.269C165.818 104.75 169.75 102.344 172 99.0723C174.101 96.0174 174.866 91.7029 173.691 88.3119C173.09 86.576 171.956 85.0304 170.185 84.103C168.421 83.1794 166.204 82.963 163.603 83.532C162.794 83.709 162.281 84.5086 162.458 85.3178C162.636 86.1271 163.435 86.6397 164.244 86.4626C166.351 86.0019 167.809 86.2456 168.793 86.7608C169.77 87.2723 170.458 88.1443 170.856 89.2939C171.681 91.6739 171.159 95.0016 169.528 97.3723C167.715 100.009 164.287 102.163 160.413 103.562C158.486 100.575 155.295 98.3629 151.368 98.9413C149.209 99.2593 147.475 99.8934 146.123 100.848C144.755 101.814 143.857 103.055 143.298 104.448C142.222 107.132 142.417 110.398 142.673 113.363C142.706 113.748 142.741 114.129 142.775 114.506C143.018 117.193 143.243 119.683 142.891 121.883C142.513 124.25 141.488 126.119 139.002 127.325C137.99 127.816 136.643 127.829 134.893 127.19C133.959 126.848 132.956 126.336 131.903 125.669C132.353 123.943 132.573 122.021 132.521 119.922L132.519 119.852L132.511 119.781C131.544 111.682 128.584 102.941 124.751 96.2918C122.836 92.9684 120.662 90.0979 118.349 88.0907C116.052 86.0979 113.445 84.8137 110.725 85.0614ZM129.523 120.066C129.552 121.405 129.455 122.633 129.255 123.752C129.216 123.721 129.177 123.69 129.139 123.658C129.109 123.634 129.079 123.609 129.048 123.584C124.838 120.13 120.4 114.925 116.735 109.454C113.061 103.969 110.264 98.3617 109.222 94.138C108.695 91.9979 108.675 90.4339 109.01 89.4561C109.166 88.9999 109.388 88.7003 109.656 88.4963C109.929 88.289 110.344 88.1084 110.997 88.049C112.567 87.906 114.39 88.6275 116.383 90.3567C118.359 92.0713 120.336 94.6391 122.152 97.7899C125.772 104.07 128.595 112.39 129.523 120.066ZM105.565 111.643C108.122 117.145 110.15 123.437 111.037 129.408C109.875 128.708 108.699 127.905 107.523 127.012C103.206 123.734 99.064 119.377 95.8735 114.939C92.6587 110.467 90.5233 106.071 90.0265 102.722C89.7797 101.059 89.9604 99.8132 90.4389 98.949C90.8885 98.137 91.7128 97.4589 93.2338 97.1221C93.7205 97.0144 94.427 97.1107 95.4049 97.6749C96.3761 98.2353 97.476 99.1812 98.6492 100.503C100.991 103.141 103.435 107.061 105.565 111.643ZM96.8217 146.537C96.7234 147.663 96.5336 148.735 96.2552 149.727C91.3061 147.685 88.8972 143.206 88.5757 139.56C88.3867 137.417 88.9395 135.924 89.6752 135.273C90.24 134.773 91.3924 134.385 93.6169 135.721C94.6101 136.317 95.5483 137.679 96.175 139.721C96.7877 141.718 97.0304 144.145 96.8217 146.537ZM62.582 139.335C62.9529 143.308 62.8152 147.487 62.343 151.495C55.339 143.046 51.2452 136.059 49.2449 130.982C47.9442 127.681 47.5995 125.099 47.8145 123.285C48.0288 121.478 48.7594 120.596 49.4941 120.246C50.2529 119.885 51.4796 119.868 53.1303 120.783C54.7697 121.691 56.6682 123.447 58.5321 126.261C60.8519 129.763 62.1151 134.335 62.582 139.335ZM148.5 104.973C147.776 104.802 147.071 104.769 146.409 104.884C146.757 104.273 147.224 103.744 147.854 103.299C148.723 102.685 149.976 102.179 151.805 101.909C153.934 101.596 155.963 102.657 157.402 104.474C153.961 105.324 150.685 105.489 148.5 104.973ZM147.811 107.893C150.786 108.595 154.892 108.276 158.891 107.186C158.998 107.487 159.093 107.796 159.173 108.112C159.644 109.96 159.54 111.806 158.82 113.266C158.125 114.676 156.781 115.886 154.411 116.411C151.755 116.999 149.838 116.544 148.506 115.707C147.148 114.854 146.259 113.515 145.845 112.116C145.42 110.682 145.546 109.379 145.951 108.614C146.142 108.253 146.373 108.044 146.613 107.934C146.849 107.826 147.224 107.754 147.811 107.893Z" fill="#BB95F9"/>
</svg>
