<svg width="48" height="48" viewBox="0 0 48 48" fill="none" xmlns="http://www.w3.org/2000/svg">
<g opacity="0.6">
<mask id="path-1-inside-1" fill="white">
<path fill-rule="evenodd" clip-rule="evenodd" d="M20.7188 10.8H36.7188C39.5906 10.8 41.9188 13.1281 41.9188 16V32C41.9188 34.8719 39.5906 37.2 36.7188 37.2H20.7188C17.8469 37.2 15.5188 34.8719 15.5188 32V16C15.5188 13.1281 17.8469 10.8 20.7188 10.8ZM12.7188 16C12.7188 11.5817 16.3005 8 20.7188 8H36.7188C41.137 8 44.7188 11.5817 44.7188 16V32C44.7188 36.4183 41.137 40 36.7188 40H20.7188C16.3005 40 12.7188 36.4183 12.7188 32V26.9589L6.79311 33.8013C5.58084 35.2011 3.28125 34.3437 3.28125 32.4919V15.508C3.28125 13.6563 5.58084 12.7989 6.79311 14.1987L12.7188 21.0411V16ZM6.08125 17.6538L11.5772 24L6.08125 30.3462V17.6538Z"/>
</mask>
<path fill-rule="evenodd" clip-rule="evenodd" d="M20.7188 10.8H36.7188C39.5906 10.8 41.9188 13.1281 41.9188 16V32C41.9188 34.8719 39.5906 37.2 36.7188 37.2H20.7188C17.8469 37.2 15.5188 34.8719 15.5188 32V16C15.5188 13.1281 17.8469 10.8 20.7188 10.8ZM12.7188 16C12.7188 11.5817 16.3005 8 20.7188 8H36.7188C41.137 8 44.7188 11.5817 44.7188 16V32C44.7188 36.4183 41.137 40 36.7188 40H20.7188C16.3005 40 12.7188 36.4183 12.7188 32V26.9589L6.79311 33.8013C5.58084 35.2011 3.28125 34.3437 3.28125 32.4919V15.508C3.28125 13.6563 5.58084 12.7989 6.79311 14.1987L12.7188 21.0411V16ZM6.08125 17.6538L11.5772 24L6.08125 30.3462V17.6538Z" fill="#9880AF"/>
<path d="M12.7188 26.9589H14.1187V23.2038L11.6604 26.0424L12.7188 26.9589ZM6.79311 33.8013L7.85141 34.7178L6.79311 33.8013ZM6.79311 14.1987L7.85141 13.2822L6.79311 14.1987ZM12.7188 21.0411L11.6604 21.9576L14.1187 24.7962V21.0411H12.7188ZM11.5772 24L12.6355 24.9165L13.4292 24L12.6355 23.0835L11.5772 24ZM6.08125 17.6538L7.13955 16.7373L4.68125 13.8987V17.6538H6.08125ZM6.08125 30.3462H4.68125V34.1013L7.13955 31.2627L6.08125 30.3462ZM36.7188 9.4H20.7188V12.2H36.7188V9.4ZM43.3188 16C43.3188 12.3549 40.3638 9.4 36.7188 9.4V12.2C38.8174 12.2 40.5187 13.9013 40.5187 16H43.3188ZM43.3188 32V16H40.5187V32H43.3188ZM36.7188 38.6C40.3638 38.6 43.3188 35.6451 43.3188 32H40.5187C40.5187 34.0987 38.8174 35.8 36.7188 35.8V38.6ZM20.7188 38.6H36.7188V35.8H20.7188V38.6ZM14.1188 32C14.1188 35.6451 17.0737 38.6 20.7188 38.6V35.8C18.6201 35.8 16.9187 34.0987 16.9187 32H14.1188ZM14.1188 16V32H16.9187V16H14.1188ZM20.7188 9.4C17.0737 9.4 14.1188 12.3549 14.1188 16H16.9187C16.9187 13.9013 18.6201 12.2 20.7188 12.2V9.4ZM20.7188 6.6C15.5273 6.6 11.3188 10.8085 11.3188 16H14.1187C14.1187 12.3549 17.0737 9.4 20.7188 9.4V6.6ZM36.7188 6.6H20.7188V9.4H36.7188V6.6ZM46.1188 16C46.1188 10.8085 41.9102 6.6 36.7188 6.6V9.4C40.3638 9.4 43.3187 12.3549 43.3187 16H46.1188ZM46.1188 32V16H43.3187V32H46.1188ZM36.7188 41.4C41.9102 41.4 46.1188 37.1915 46.1188 32H43.3187C43.3187 35.6451 40.3638 38.6 36.7188 38.6V41.4ZM20.7188 41.4H36.7188V38.6H20.7188V41.4ZM11.3188 32C11.3188 37.1915 15.5273 41.4 20.7188 41.4V38.6C17.0737 38.6 14.1187 35.6451 14.1187 32H11.3188ZM11.3188 26.9589V32H14.1187V26.9589H11.3188ZM7.85141 34.7178L13.7771 27.8754L11.6604 26.0424L5.7348 32.8847L7.85141 34.7178ZM1.88125 32.4919C1.88125 35.64 5.79055 37.0974 7.85141 34.7178L5.7348 32.8847C5.37113 33.3047 4.68125 33.0475 4.68125 32.4919H1.88125ZM1.88125 15.508V32.4919H4.68125V15.508H1.88125ZM7.85141 13.2822C5.79055 10.9025 1.88125 12.36 1.88125 15.508H4.68125C4.68125 14.9525 5.37112 14.6953 5.7348 15.1152L7.85141 13.2822ZM13.7771 20.1246L7.85141 13.2822L5.7348 15.1152L11.6604 21.9576L13.7771 20.1246ZM11.3188 16V21.0411H14.1187V16H11.3188ZM12.6355 23.0835L7.13955 16.7373L5.02295 18.5703L10.5189 24.9165L12.6355 23.0835ZM7.13955 31.2627L12.6355 24.9165L10.5189 23.0835L5.02295 29.4297L7.13955 31.2627ZM4.68125 17.6538V30.3462H7.48125V17.6538H4.68125Z" fill="#9880AF" mask="url(#path-1-inside-1)"/>
<circle cx="24" cy="21" r="1.5" fill="#9880AF" stroke="#9880AF"/>
<circle cx="34" cy="21" r="1.5" fill="#9880AF" stroke="#9880AF"/>
<path fill-rule="evenodd" clip-rule="evenodd" d="M28.9758 26.7384C26.7262 26.728 24.5422 27.7448 23.3963 29.7206C23.1192 30.1983 22.5073 30.361 22.0295 30.0839C21.5518 29.8068 21.3891 29.1949 21.6662 28.7171C23.239 26.0054 26.1644 24.7253 28.9851 24.7384C31.802 24.7514 34.6933 26.0561 36.1858 28.7317C36.4548 29.214 36.282 29.8231 35.7996 30.0921C35.3173 30.3612 34.7082 30.1883 34.4392 29.706C33.3692 27.7878 31.2292 26.7488 28.9758 26.7384Z" fill="#9880AF"/>
</g>
</svg>
