<svg width="40" height="40" viewBox="0 0 40 40" fill="none" xmlns="http://www.w3.org/2000/svg">
<path opacity="0.9" d="M19.671 5L19.5934 5.00045C17.139 5.02878 14.8929 6.40016 13.7411 8.57978L12.3402 11.2305L9.72037 8.74491C8.87068 7.93876 7.74566 7.48957 6.57627 7.48957C4.04887 7.48957 2 9.54541 2 12.0814V27.883C2 29.0751 2.46206 30.2205 3.28848 31.077L3.34156 31.1311C5.10434 32.8997 7.96182 32.9283 9.75946 31.1819L12.3361 28.6787L13.7287 31.3691C14.8833 33.6 17.18 35 19.6852 35H31.2881C34.995 35 38 31.9848 38 28.2653V11.7347C38 8.01523 34.995 5 31.2881 5H19.671ZM31.2881 9.28571C32.6361 9.28571 33.7288 10.3822 33.7288 11.7347V28.2653C33.7288 29.6178 32.6361 30.7143 31.2881 30.7143H19.6852C18.7742 30.7143 17.9391 30.2052 17.5192 29.394L13.8619 22.3274C13.7065 22.0273 13.3382 21.9103 13.0391 22.0662C12.9867 22.0935 12.9384 22.1284 12.8959 22.1697L6.78848 28.1029C6.66743 28.2205 6.47429 28.2174 6.35709 28.0959C6.30199 28.0388 6.27119 27.9624 6.27119 27.883V12.0814C6.27119 11.9123 6.40778 11.7753 6.57627 11.7753C6.65423 11.7753 6.72923 11.8052 6.78588 11.859L12.9017 17.6614C13.1466 17.8937 13.5328 17.8829 13.7643 17.6372C13.8021 17.5971 13.8343 17.5521 13.86 17.5034L17.5147 10.5875C17.9379 9.78652 18.7675 9.28571 19.671 9.28571H31.2881Z" fill="#9880AF"/>
</svg>
